<svg xmlns="http://www.w3.org/2000/svg" xmlns:xlink="http://www.w3.org/1999/xlink" width="507.45" height="547.52" viewBox="0 0 507.45 547.52">
  <defs>
    <linearGradient id="linear-gradient" x1="-42.09" y1="691.91" x2="-41.09" y2="691.91" gradientTransform="matrix(59.28, 0, 0, -59.28, 2719.76, 41059.85)" gradientUnits="userSpaceOnUse">
      <stop offset="0" stop-color="#f79256"/>
      <stop offset="1" stop-color="#f79256" stop-opacity="0.48"/>
    </linearGradient>
    <linearGradient id="linear-gradient-2" x1="-45.88" y1="690.81" x2="-44.88" y2="690.81" gradientTransform="matrix(41.08, 0, 0, -41.08, 1749.73, 28466.13)" gradientUnits="userSpaceOnUse">
      <stop offset="0" stop-color="#2bc5b4"/>
      <stop offset="1" stop-color="#2bc5b4" stop-opacity="0.47"/>
    </linearGradient>
    <linearGradient id="linear-gradient-3" x1="-46.17" y1="691.8" x2="-45.17" y2="691.8" gradientTransform="matrix(56.9, 0, 0, -56.9, 2403.71, 39794.57)" gradientUnits="userSpaceOnUse">
      <stop offset="0" stop-color="#524cb3"/>
      <stop offset="1" stop-color="#5953b6" stop-opacity="0.47"/>
    </linearGradient>
    <linearGradient id="linear-gradient-4" x1="-46.31" y1="692.28" x2="-45.31" y2="692.28" gradientTransform="matrix(69.9, 0, 0, -69.9, 3183.71, 48903.08)" xlink:href="#linear-gradient"/>
    <linearGradient id="linear-gradient-5" x1="-46.17" y1="691.8" x2="-45.17" y2="691.8" gradientTransform="matrix(56.9, 0, 0, -56.9, 2822.71, 39781.57)" xlink:href="#linear-gradient-2"/>
    <linearGradient id="linear-gradient-6" x1="-46.17" y1="691.8" x2="-45.17" y2="691.8" gradientTransform="matrix(56.9, 0, 0, -56.9, 2811.71, 39476.57)" xlink:href="#linear-gradient-3"/>
    <clipPath id="clip-path">
      <path d="M238.17,236.86a136.51,136.51,0,0,0-31.33,16.76v41.92a108,108,0,0,1,31.33-20.15Z" fill="none"/>
    </clipPath>
    <clipPath id="clip-path-2">
      <rect x="206.84" y="236.86" width="31.33" height="58.68" fill="none"/>
    </clipPath>
    <pattern id="pattern" data-name="pattern" width="24.32" height="24.32" patternTransform="translate(262.33 541.71)" patternUnits="userSpaceOnUse" viewBox="0 0 24.32 24.32">
      <rect width="24.32" height="24.32" fill="none"/>
    </pattern>
  </defs>
  <g id="Layer_2" data-name="Layer 2">
    <g id="Layer_1-2" data-name="Layer 1">
      <g id="Group_7249" data-name="Group 7249">
        <path id="Line_8" data-name="Line 8" d="M270.31,156.88V89.94" fill="none" stroke="#f79256" stroke-linecap="round" stroke-width="4" stroke-dasharray="5 10" opacity="0.5" style="isolation: isolate"/>
        <path id="Line_11" data-name="Line 11" d="M270.31,423.94v-119" fill="none" stroke="#f79256" stroke-linecap="round" stroke-width="4" stroke-dasharray="5 10" opacity="0.5" style="isolation: isolate"/>
        <path id="Line_9" data-name="Line 9" d="M195.13,206.76l-64.82-64.82" fill="none" stroke="#f79256" stroke-linecap="round" stroke-width="4" stroke-dasharray="5 10" opacity="0.5" style="isolation: isolate"/>
        <path id="Line_13" data-name="Line 13" d="M338.49,206.76l64.82-64.82" fill="none" stroke="#f79256" stroke-linecap="round" stroke-width="4" stroke-dasharray="5 10" opacity="0.5" style="isolation: isolate"/>
        <path id="Line_10" data-name="Line 10" d="M195.13,317.13l-79.82,79.81" fill="none" stroke="#f79256" stroke-linecap="round" stroke-width="4" stroke-dasharray="5 10" opacity="0.5" style="isolation: isolate"/>
        <path id="Line_12" data-name="Line 12" d="M323.31,301.94l95,95" fill="none" stroke="#f79256" stroke-linecap="round" stroke-width="4" stroke-dasharray="5 10" opacity="0.5" style="isolation: isolate"/>
        <g id="Group_7239" data-name="Group 7239">
          <circle id="Ellipse_375" data-name="Ellipse 375" cx="243.53" cy="46.49" r="29.64" opacity="0.3" fill="url(#linear-gradient)" style="isolation: isolate"/>
          <g id="Group_7216" data-name="Group 7216">
            <g id="Group_7215" data-name="Group 7215">
              <path id="Path_3183" data-name="Path 3183" d="M316.45,34.8a8,8,0,0,0-14.1-4.93l-11,12.67a7.93,7.93,0,0,0-1.12,1.68l-.45.19a7.48,7.48,0,0,0-5.51-5.36c-14.57-4.13-16.46-5-20.43-4.61h0c-10.74,1.15-13.2,1.5-18.61,4.61a84.89,84.89,0,0,0-11.29,7.8l-.66-.77a4.55,4.55,0,0,0-6.4-.47L211.34,59a4.4,4.4,0,0,0-.46,6.21l0,0L231.38,88.6a4.28,4.28,0,0,0,6,.49l0,0,15.48-13.37a4.53,4.53,0,0,0,.47-6.4h0l-.61-.7,1-.86c2.65-2.29,6.64-3,10.67-1.83l10.3,2.92a2.22,2.22,0,0,0,1.21-4.27h0l-10.3-2.93c-5.47-1.55-11-.52-14.78,2.75l-1,.86-13-15a81.11,81.11,0,0,1,10.6-7.31c4.6-2.65,6.15-2.9,16.84-4,2.5-.22,4.07.23,12.63,2.69,6.64,1.91,8,1.92,8.58,3.85a4.37,4.37,0,0,1,.1,1.76,3.28,3.28,0,0,1-.55,1.2,1.86,1.86,0,0,1-2,.72c-4.2-.58-14.21-1.92-14.31-1.93a2.22,2.22,0,0,0-.59,4.4c.1,0,10.1,1.35,14.3,1.93a6.45,6.45,0,0,0,7.15-4.18c.11,0,22.37-9.21,22.48-9.27,2.34-1.19,4.56-1.46,6,.78,1.61,2.88-1.25,5-2,5.5l-29.63,17,0,0-.08,0a12.21,12.21,0,0,1-1.55.85,2.22,2.22,0,0,0,1.81,4,17.3,17.3,0,0,0,2.12-1.14l29.74-17c8-5.24,4.17-14.29-2-15.27ZM250,72.19a.11.11,0,0,1,0,.07c0,.07-15.3,13.26-15.36,13.3L214.27,62.37,229.78,49a.09.09,0,0,1,.07,0l.07,0Zm48.93-31.52,6.83-7.89A3.59,3.59,0,0,1,312,35.24Z" fill="#f79256"/>
            </g>
          </g>
          <g id="Group_7218" data-name="Group 7218">
            <g id="Group_7217" data-name="Group 7217">
              <path id="Path_3184" data-name="Path 3184" d="M280.48,7.47a3.71,3.71,0,0,0,3.1,1.68,3.6,3.6,0,0,0,2.91-1.71,5.93,5.93,0,0,1,10.63.63,2.22,2.22,0,0,0,4.09-1.75A10.37,10.37,0,0,0,287.61.83,10.27,10.27,0,0,0,283.49,4c-6.08-7.79-18.58-3.37-18.57,6.42,0,10.29,8.92,18.16,17.26,22.09a3.08,3.08,0,0,0,2.65,0c6-2.84,12.36-7.89,15.31-14a2.22,2.22,0,1,0-4-1.93c-2.4,5-7.72,9.14-12.64,11.62-6.94-3.43-14.13-9.81-14.13-17.8a5.95,5.95,0,0,1,11.11-2.95Z" fill="#f79256"/>
            </g>
          </g>
        </g>
        <g id="Group_7240" data-name="Group 7240">
          <circle id="Ellipse_385" data-name="Ellipse 385" cx="46.91" cy="89.19" r="20.54" opacity="0.3" fill="url(#linear-gradient-2)" style="isolation: isolate"/>
          <path id="Path_3207" data-name="Path 3207" d="M110.33,66.05a30.68,30.68,0,0,0,.3-4.06,29.55,29.55,0,0,0-59.1-.49,4,4,0,0,0,0,.49,27.63,27.63,0,0,0,.3,4.06,26.25,26.25,0,0,0-1.94,50.43v6.26a1.64,1.64,0,0,0,1.64,1.64v4.92a1.64,1.64,0,0,0,1.64,1.64H63a1.63,1.63,0,0,0,1.64-1.64v-4.92a1.65,1.65,0,0,0,1.65-1.64h0v-6.26a26.43,26.43,0,0,0,8.21-4.5V129.3a1.63,1.63,0,0,0,1.64,1.64H86a1.64,1.64,0,0,0,1.64-1.64V112a26.21,26.21,0,0,0,8.21,4.5v6.26a1.64,1.64,0,0,0,1.64,1.64h0v4.92a1.64,1.64,0,0,0,1.64,1.64H109a1.63,1.63,0,0,0,1.64-1.64v-4.92a1.65,1.65,0,0,0,1.65-1.64v-6.26a26.25,26.25,0,0,0-1.94-50.43ZM81.07,35.72A26.29,26.29,0,0,1,99.13,81.1V76.77a5,5,0,0,0-4.93-4.93H86v-3a9.86,9.86,0,0,0,4.92-8.52V58.71h.82a4.1,4.1,0,0,0,.8-8.13s0,0,0-.08V45.57a4.94,4.94,0,0,0-4.93-4.92H76.4l-4.66-1.56a1.66,1.66,0,0,0-2.17,1.56V50.5s0,0,0,.08a4.1,4.1,0,0,0,.8,8.13h.82v1.64a9.87,9.87,0,0,0,4.93,8.52v3H67.93A4.94,4.94,0,0,0,63,76.76V81.1A26.29,26.29,0,0,1,81.06,35.72ZM67.94,91.54a4.86,4.86,0,0,1,3.28,1.3v6.91a1.65,1.65,0,0,0,1.64,1.65V103H43.31V96.47a4.93,4.93,0,0,1,4.93-4.92ZM51.52,81.69A6.57,6.57,0,0,1,55,75.93a29.34,29.34,0,0,0,8.33,9.7,6.55,6.55,0,0,1-11.79-3.94Zm13.89,6.57c.23-.25.43-.53.64-.8.47.28,1,.54,1.46.8Zm.88-4.53v-7a1.65,1.65,0,0,1,1.65-1.65h6.8a6.53,6.53,0,0,0,12.67,0h6.8a1.64,1.64,0,0,1,1.64,1.65v7a26.27,26.27,0,0,1-7,3.38,26.37,26.37,0,0,1-22.52-3.38ZM74.5,52.14H87.64v8.21a6.57,6.57,0,0,1-13.14,0h0Zm-1.64-3.28V42.93l2.76.92a1.89,1.89,0,0,0,.53.08H87.64a1.65,1.65,0,0,1,1.64,1.64v3.29Zm11,26.27a3.29,3.29,0,0,1-4.49,1.19,3.39,3.39,0,0,1-1.19-1.19Zm-4.48-3.29V70.05a9,9,0,0,0,3.28,0v1.79ZM96.09,87.46c.22.27.41.55.64.8h-2.1c.49-.26,1-.53,1.46-.81Zm-6.81,13.93a1.63,1.63,0,0,0,1.64-1.64V92.84a4.88,4.88,0,0,1,3.28-1.3h19.7a4.94,4.94,0,0,1,4.93,4.92V103H89.28Zm14.78-13.13a6.57,6.57,0,0,1-5.23-2.63,29.24,29.24,0,0,0,8.33-9.7,6.55,6.55,0,0,1-3.1,12.33ZM90.92,55.42V53.78h.82a.82.82,0,1,1,0,1.64h-.82Zm-19.7-1.64v1.64H70.4a.82.82,0,1,1,0-1.64Zm-9.85,73.88H54.8v-3.28h6.57ZM63,121.09H53.16v-3.76a27.27,27.27,0,0,0,4.93.48,26.22,26.22,0,0,0,4.92-.49Zm11.5-13.52A23,23,0,1,1,52.42,69.28a31.26,31.26,0,0,0,1.19,3.66A9.81,9.81,0,0,0,49.3,86.12a9.57,9.57,0,0,0,1.47,2.14H48.24A8.21,8.21,0,0,0,40,96.47v8.21a1.64,1.64,0,0,0,1.64,1.64H74.51Zm9.85,20.09H77.79V101.39h6.57ZM74.51,98.11V90.82a30.1,30.1,0,0,0,6.56.72h1.58v-.08a32.13,32.13,0,0,0,5-.64v7.29Zm32.83,29.55h-6.57v-3.28h6.57Zm1.64-6.57H99.13v-3.77a26.25,26.25,0,0,0,4.93.49,27.07,27.07,0,0,0,4.92-.48Zm-4.92-6.56a23,23,0,0,1-16.42-7v-1.25h32.83a1.64,1.64,0,0,0,1.64-1.64V96.47a8.2,8.2,0,0,0-8.21-8.21h-2.52a9.83,9.83,0,0,0-2.84-15.32,33.9,33.9,0,0,0,1.18-3.66,23,23,0,0,1-5.67,45.24Z" fill="#24afa0"/>
        </g>
        <g id="Group_7242" data-name="Group 7242">
          <g id="Group_7241" data-name="Group 7241">
            <path id="Path_3208" data-name="Path 3208" d="M105.27,421.91V390.09a11.36,11.36,0,1,0-13-11.23H14.39v64.91H63.15a25.95,25.95,0,1,0,42.12-21.86Zm-1.62-51.17a8.12,8.12,0,1,1-8.12,8.12A8.11,8.11,0,0,1,103.65,370.74Zm-86,11.36H92.76a11.55,11.55,0,0,0,1.8,3.55l-9.92,9.92a4.7,4.7,0,0,0-4.17,0L77.2,392.3A4.86,4.86,0,1,0,68,390.22a4.71,4.71,0,0,0,.49,2.08l-8.14,8.14a4.86,4.86,0,1,0,2.78,4.38,4.68,4.68,0,0,0-.49-2.08l8.14-8.14a4.7,4.7,0,0,0,4.17,0l3.27,3.27a4.87,4.87,0,0,0,8.76,4.25,4.81,4.81,0,0,0,0-4.25l9.93-9.93a11.28,11.28,0,0,0,5.17,2.15V419.7A25.8,25.8,0,0,0,69.57,425V417.8H59.83v19.48h3.72a25.13,25.13,0,0,0-.39,3.24H17.64Zm64.91,16.23A1.63,1.63,0,1,1,80.93,400a1.62,1.62,0,0,1,1.62-1.62Zm-11.36-8.11a1.63,1.63,0,1,1,1.62,1.62,1.63,1.63,0,0,1-1.62-1.62Zm-11.36,14.6a1.63,1.63,0,1,1-1.62-1.62,1.62,1.62,0,0,1,1.62,1.62ZM89,455.13a13,13,0,1,1,13-13h0a13,13,0,0,1-13,13ZM66.32,429.6A26.76,26.76,0,0,0,64.39,434H63.08v-13h3.24Zm21.1-10.09V426a16.22,16.22,0,0,0-13.16,22.81l-5.63,3.25a22.64,22.64,0,0,1,18.79-32.55Zm1.63,45.35a22.71,22.71,0,0,1-18.81-10l5.65-3.27a16.17,16.17,0,0,0,22.57,3.74,16,16,0,0,0,3.74-3.74l5.65,3.27a22.74,22.74,0,0,1-18.81,10Zm20.41-12.8-5.63-3.25A16.2,16.2,0,0,0,90.67,426v-6.49a22.65,22.65,0,0,1,18.79,32.55Z" fill="#5d56c4"/>
            <path id="Path_3209" data-name="Path 3209" d="M89,432.41a9.74,9.74,0,1,0,9.74,9.74A9.73,9.73,0,0,0,89,432.41Zm0,16.23a6.49,6.49,0,1,1,6.49-6.49h0A6.5,6.5,0,0,1,89,448.64Z" fill="#5d56c4"/>
            <path id="Path_3210" data-name="Path 3210" d="M20.88,385.35h3.25v3.24H20.88Z" fill="#5d56c4"/>
            <path id="Path_3211" data-name="Path 3211" d="M27.37,385.35H50.09v3.24H27.37Z" fill="#5d56c4"/>
            <path id="Path_3212" data-name="Path 3212" d="M20.88,391.84h3.25v3.24H20.88Z" fill="#5d56c4"/>
            <path id="Path_3213" data-name="Path 3213" d="M27.37,391.84H50.09v3.24H27.37Z" fill="#5d56c4"/>
            <path id="Path_3214" data-name="Path 3214" d="M20.88,398.33h3.25v3.25H20.88Z" fill="#5d56c4"/>
            <path id="Path_3215" data-name="Path 3215" d="M27.37,398.33H50.09v3.25H27.37Z" fill="#5d56c4"/>
            <path id="Path_3216" data-name="Path 3216" d="M20.88,404.82h3.25v3.25H20.88Z" fill="#5d56c4"/>
            <path id="Path_3217" data-name="Path 3217" d="M27.37,404.82H50.09v3.25H27.37Z" fill="#5d56c4"/>
            <path id="Path_3218" data-name="Path 3218" d="M20.88,437.28h9.74V421.05H20.88Zm3.25-13h3.25V434H24.13Z" fill="#5d56c4"/>
            <path id="Path_3219" data-name="Path 3219" d="M33.87,437.28H43.6v-13H33.87Zm3.24-9.74h3.25V434H37.11Z" fill="#5d56c4"/>
            <path id="Path_3220" data-name="Path 3220" d="M46.85,437.28h9.73v-26H46.85Zm3.24-22.72h3.25V434H50.1Z" fill="#5d56c4"/>
          </g>
          <circle id="Ellipse_387" data-name="Ellipse 387" cx="28.45" cy="431.07" r="28.45" opacity="0.3" fill="url(#linear-gradient-3)" style="isolation: isolate"/>
        </g>
        <g id="Group_7243" data-name="Group 7243">
          <g id="Ecommerce-transfer_money-buy-smartphone-hands" data-name="Ecommerce-transfer money-buy-smartphone-hands">
            <path id="Path_3221" data-name="Path 3221" d="M310.12,468.81l2.15,2.15,6.09-6.09a1.51,1.51,0,0,0,0-2.15h0l-6.09-6.09-2.15,2.15,3.49,3.49H296v3h17.64Z" fill="#f79256"/>
            <path id="Path_3222" data-name="Path 3222" d="M301,483.14l2.15-2.15-3.49-3.49h17.64v-3.05H299.64l3.5-3.49L301,468.81l-6.09,6.09a1.53,1.53,0,0,0,0,2.15h0Z" fill="#f79256"/>
            <path id="Path_3223" data-name="Path 3223" d="M317,494.5a14.93,14.93,0,0,1-13.45-3.3,5.42,5.42,0,0,0-2,.35,5.73,5.73,0,0,0-1.92,1.13,6.09,6.09,0,0,0-5.22-3,6,6,0,0,0-3.05.84v-25.2a6.08,6.08,0,0,0-6.09-6.09h0a6,6,0,0,0-3,.83v-5.4a4.59,4.59,0,0,0-4.57-4.57H241.16a4.59,4.59,0,0,0-4.57,4.57v30.45h-1.52a7.62,7.62,0,0,0-7.62,7.61h0V499l3.05,31.91v9.06a1.53,1.53,0,0,0,1.52,1.53h33.5a1.54,1.54,0,0,0,1.53-1.53v-8.65l5.66-8.1H276L277.7,528v11.92a1.53,1.53,0,0,0,1.53,1.53h30.45a1.53,1.53,0,0,0,1.52-1.53V528l7-19.58a10.66,10.66,0,0,0,.62-3.58v-6A6.13,6.13,0,0,0,317,494.5Zm-53,43.9H233.55v-6.09H264Zm.73-9.13H233.41l-2.91-30.45v-6.09a4.59,4.59,0,0,1,4.57-4.57h10.66a4.57,4.57,0,0,1,.13,9.13h-7.75a1.52,1.52,0,0,0-1.52,1.53v19.79a4.59,4.59,0,0,0,4.57,4.57H269Zm-23.57-9.14a1.52,1.52,0,0,1-1.52-1.52V514H267v-3h-27.4V500.34h6.09a7.62,7.62,0,0,0,0-15.23h-6.09V454.66a1.52,1.52,0,0,1,1.52-1.52H277.7a1.52,1.52,0,0,1,1.52,1.52V486a5.88,5.88,0,0,0-3.06-.85,6.08,6.08,0,0,0-6.07,6.07v13.66a10.71,10.71,0,0,0,.62,3.59l4.17,11.69Zm44.15,18.27h-4.57v-9.14h4.57Zm7.62,0h-4.57v-9.14h4.57Zm7.61,0H296v-9.14h4.57Zm7.61,0h-4.57v-9.14h4.57Zm7.61-33.55a7.64,7.64,0,0,1-.44,2.55l-6.71,18.82H280.29l-6.72-18.8a8,8,0,0,1-.44-2.57V491.19a3,3,0,1,1,6.09,0h0v12.18h3V465.32a3,3,0,0,1,6.09,0h0v38.07h3v-7.62a3,3,0,0,1,6.09,0h0v7.62h3.05V497.3a3,3,0,0,1,.9-2.15,2.7,2.7,0,0,1,1.17-.73,2.91,2.91,0,0,1,1-.17,3.07,3.07,0,0,1,3.05,3.05v7.61h3v-6.09a3,3,0,0,1,6.09,0h0Z" fill="#f79256"/>
            <path id="Path_3224" data-name="Path 3224" d="M259.43,456.18a15.23,15.23,0,1,0,15.23,15.22,15.23,15.23,0,0,0-15.23-15.22Zm0,27.4a12.18,12.18,0,1,1,12.18-12.18h0A12.18,12.18,0,0,1,259.43,483.58Z" fill="#f79256"/>
            <path id="Path_3225" data-name="Path 3225" d="M264,474.45a4.57,4.57,0,0,1-3.05,4.29v1.8h-3v-1.8a4.57,4.57,0,0,1-3.05-4.29h3.05a1.52,1.52,0,1,0,1.52-1.52h0a4.57,4.57,0,0,1-1.52-8.86v-1.8h3v1.8a4.57,4.57,0,0,1,3.05,4.29H261a1.52,1.52,0,1,0-1.52,1.52h0A4.59,4.59,0,0,1,264,474.45Z" fill="#f79256"/>
          </g>
          <circle id="Ellipse_388" data-name="Ellipse 388" cx="255.95" cy="512.57" r="34.95" opacity="0.3" fill="url(#linear-gradient-4)" style="isolation: isolate"/>
        </g>
        <g id="Group_7248" data-name="Group 7248">
          <circle id="Ellipse_390" data-name="Ellipse 390" cx="447.45" cy="418.07" r="28.45" opacity="0.3" fill="url(#linear-gradient-5)" style="isolation: isolate"/>
          <g id="Group_7245" data-name="Group 7245">
            <g id="Group_7244" data-name="Group 7244">
              <path id="Path_3226" data-name="Path 3226" d="M475.78,389.28H449.3a1.4,1.4,0,1,0-.18,2.79h26.66a1.4,1.4,0,0,0,0-2.79Z" fill="#24afa0"/>
              <path id="Path_3227" data-name="Path 3227" d="M475.78,397.82H449.3a1.4,1.4,0,1,0-.18,2.79h26.66a1.4,1.4,0,0,0,1.3-1.49A1.38,1.38,0,0,0,475.78,397.82Z" fill="#24afa0"/>
              <path id="Path_3228" data-name="Path 3228" d="M451.83,452.31h-6.72a1.4,1.4,0,0,0,0,2.8h6.72a1.4,1.4,0,0,0,0-2.8Z" fill="#24afa0"/>
              <path id="Path_3229" data-name="Path 3229" d="M465.9,452.31h-6.72a1.4,1.4,0,0,0,0,2.8h6.72a1.4,1.4,0,0,0,0-2.8Z" fill="#24afa0"/>
              <path id="Path_3230" data-name="Path 3230" d="M480,452.31h-6.72a1.4,1.4,0,0,0,0,2.8H480a1.4,1.4,0,0,0,0-2.8Z" fill="#24afa0"/>
              <path id="Path_3231" data-name="Path 3231" d="M451.83,458.6h-6.72a1.4,1.4,0,1,0-.18,2.79h6.9a1.4,1.4,0,1,0,.19-2.79Z" fill="#24afa0"/>
              <path id="Path_3232" data-name="Path 3232" d="M465.9,458.6h-6.72a1.4,1.4,0,0,0-.19,2.79h6.91a1.4,1.4,0,1,0,.19-2.79Z" fill="#24afa0"/>
              <path id="Path_3233" data-name="Path 3233" d="M480,458.6h-6.72a1.4,1.4,0,0,0-1.3,1.49,1.38,1.38,0,0,0,1.3,1.3H480a1.4,1.4,0,0,0,0-2.79Z" fill="#24afa0"/>
              <path id="Path_3234" data-name="Path 3234" d="M451.83,464.89h-6.72a1.4,1.4,0,0,0-1.31,1.48,1.42,1.42,0,0,0,1.31,1.31h6.72a1.4,1.4,0,0,0,0-2.79Z" fill="#24afa0"/>
              <path id="Path_3235" data-name="Path 3235" d="M465.9,464.89h-6.72a1.4,1.4,0,0,0-.19,2.79h6.91a1.4,1.4,0,0,0,.19-2.79Z" fill="#24afa0"/>
              <path id="Path_3236" data-name="Path 3236" d="M480,464.89h-6.72a1.4,1.4,0,0,0,0,2.79H480a1.4,1.4,0,0,0,0-2.79Z" fill="#24afa0"/>
              <path id="Path_3237" data-name="Path 3237" d="M484.2,417.48a2.92,2.92,0,0,0-2.92-2.91H443.79a2.91,2.91,0,0,0-2.91,2.91v4a1.4,1.4,0,0,0,2.8.18v-4.2a.11.11,0,0,1,.11-.12h37.49a.12.12,0,0,1,.12.12h0v14.57a.12.12,0,0,1-.12.12H443.79a.11.11,0,0,1-.11-.12h0v-4a1.4,1.4,0,0,0-2.8,0v4a2.92,2.92,0,0,0,2.91,2.91h37.49a2.92,2.92,0,0,0,2.92-2.91Z" fill="#24afa0"/>
              <path id="Path_3238" data-name="Path 3238" d="M453.79,441.1a2.79,2.79,0,0,0-2.79-2.79h-6.85a2.82,2.82,0,0,0-2.72,3.44l.91,3.83a2.8,2.8,0,0,0,2.72,2.14H451a2.8,2.8,0,0,0,2.79-2.79Zm-8.73,3.83-.92-3.82H451v3.82Z" fill="#24afa0"/>
              <path id="Path_3239" data-name="Path 3239" d="M468.94,444.93V441.1a2.8,2.8,0,0,0-2.79-2.79h-7.22a2.8,2.8,0,0,0-2.79,2.79v3.83a2.79,2.79,0,0,0,2.79,2.79h7.22A2.79,2.79,0,0,0,468.94,444.93Zm-10,0v-3.82h7.22v3.82Z" fill="#24afa0"/>
              <path id="Path_3240" data-name="Path 3240" d="M482.73,445.57l.91-3.82a2.78,2.78,0,0,0-2.06-3.36,2.82,2.82,0,0,0-.65-.08h-6.85a2.79,2.79,0,0,0-2.79,2.79v3.83a2.79,2.79,0,0,0,2.79,2.79H480a2.78,2.78,0,0,0,2.71-2.15Zm-2.71-.65h-5.94V441.1h6.85Z" fill="#24afa0"/>
              <path id="Path_3241" data-name="Path 3241" d="M503.62,394.08H496v-6.49a7.06,7.06,0,0,0-7.09-6.85H447.9a7.48,7.48,0,0,0-7.47,7.48v11.94a8.41,8.41,0,0,0-7.12,8.29v18.64c0,10.49,1.85,13.3,1.85,23.53V469a7.1,7.1,0,0,0,7.1,7.1h40.57a7.1,7.1,0,0,0,7.1-7.1v-5.73a1.4,1.4,0,0,0-1.49-1.31,1.42,1.42,0,0,0-1.31,1.31V469a4.3,4.3,0,0,1-4.3,4.3H442.25A4.31,4.31,0,0,1,438,469v-18.4c0-10.43-1.84-13.34-1.84-23.52V408.45a5.6,5.6,0,0,1,4.32-5.45v3.58a3.65,3.65,0,0,0,3.64,3.64H481a3.65,3.65,0,0,0,3.64-3.64V403a5.6,5.6,0,0,1,4.32,5.45v18.64c0,10.19-1.85,13.08-1.85,23.53v6a1.4,1.4,0,0,0,2.8,0v-6c0-10.17,1.85-13.1,1.85-23.53V414.45h8.58a7.12,7.12,0,0,0,7.1-7.1v-9.44a3.84,3.84,0,0,0-3.83-3.83Zm-21.77,12.5a.85.85,0,0,1-.84.85H444.07a.86.86,0,0,1-.85-.85V388.22a4.7,4.7,0,0,1,4.68-4.69h35.41a7.07,7.07,0,0,0-1.46,4.3Zm9.92,5.08v-3.21a8.41,8.41,0,0,0-7.12-8.29V387.84a4.3,4.3,0,1,1,8.6-.17v19.68a7.1,7.1,0,0,0,1.45,4.3Zm12.88-4.3a4.31,4.31,0,0,1-8.61,0h0V396.88h7.58a1,1,0,0,1,1,1Z" fill="#24afa0"/>
            </g>
          </g>
        </g>
        <g id="Group_7247" data-name="Group 7247">
          <circle id="Ellipse_389" data-name="Ellipse 389" cx="436.45" cy="113.07" r="28.45" opacity="0.3" fill="url(#linear-gradient-6)" style="isolation: isolate"/>
          <g id="Group_7246" data-name="Group 7246">
            <path id="Path_3242" data-name="Path 3242" d="M448.83,77a1.72,1.72,0,0,0-.6,0,4,4,0,0,1-3.54-4,1.76,1.76,0,1,0-3.52,0h0a7.53,7.53,0,0,0,5.54,7.25V82a1.76,1.76,0,1,0,3.52,0h0V80.39a7.52,7.52,0,0,0-1.54-14.88,4,4,0,1,1,4-4,1.76,1.76,0,0,0,3.52,0,7.52,7.52,0,0,0-6-7.36v-1.6a1.76,1.76,0,1,0-3.52,0v1.71a7.52,7.52,0,0,0,2,14.77,4,4,0,0,1,.15,8Z" fill="#5d56c4"/>
            <path id="Path_3243" data-name="Path 3243" d="M423.16,67.41a25.53,25.53,0,1,0,25.53-25.53h0a25.53,25.53,0,0,0-25.53,25.53Zm25.53-22a22,22,0,1,1-22,22h0a22,22,0,0,1,22-22Z" fill="#5d56c4"/>
            <path id="Path_3244" data-name="Path 3244" d="M482.9,97.28l-13.8,6.51a11.2,11.2,0,0,0-9.57-5.9l-12.73-.35A13.41,13.41,0,0,1,441,96l-1.3-.67a22.86,22.86,0,0,0-21.17,0l.08-2.94a1.75,1.75,0,0,0-1.71-1.8h0l-14-.39A1.77,1.77,0,0,0,401.15,92h0l-.84,30.64a1.76,1.76,0,0,0,1.71,1.81h0l14,.38h0a1.75,1.75,0,0,0,1.76-1.71l0-1.47,3.63-1.94a6.24,6.24,0,0,1,4.64-.51l21.66,6.08.12,0a23,23,0,0,0,4.76.49,23.58,23.58,0,0,0,9.81-2.14l.22-.12,31.4-20.31a1.77,1.77,0,0,0,.57-2.35,8.88,8.88,0,0,0-11.74-3.57Zm-79,23.67.74-27.12,10.44.29-.74,27.11Zm57-.47a20,20,0,0,1-12.21,1.37l-21.6-6.07a9.76,9.76,0,0,0-7.26.8l-1.85,1,.5-18a19.34,19.34,0,0,1,19.66-1.05l1.3.67a16.92,16.92,0,0,0,7.31,1.89l12.73.35a7.72,7.72,0,0,1,7.34,6.15l-19-.52a1.76,1.76,0,1,0-.16,3.52h.06l20.93.58h.05a1.77,1.77,0,0,0,1.76-1.71,10.94,10.94,0,0,0-.17-2.29l14.15-6.68,0,0a5.36,5.36,0,0,1,6.08.85Z" fill="#5d56c4"/>
            <path id="Path_3245" data-name="Path 3245" d="M450.45,36.93V20.2a1.76,1.76,0,1,0-3.52,0V36.93a1.76,1.76,0,1,0,3.52,0Z" fill="#5d56c4"/>
            <path id="Path_3246" data-name="Path 3246" d="M463.65,36.93V29a1.76,1.76,0,0,0-3.52,0v7.93a1.76,1.76,0,1,0,3.52,0Z" fill="#5d56c4"/>
            <path id="Path_3247" data-name="Path 3247" d="M437.24,36.93V29a1.76,1.76,0,0,0-3.52,0v7.93a1.76,1.76,0,1,0,3.52,0Z" fill="#5d56c4"/>
          </g>
        </g>
        <g id="Group_7238" data-name="Group 7238">
          <path id="Path_1" data-name="Path 1" d="M206.84,231v127.8C236.51,270.31,332,312.85,332,231a62.58,62.58,0,1,0-125.16,0Zm31.33,44.4V231a31.25,31.25,0,0,1,62.5-.56V231c0,32.88-38.23,30.93-62.5,44.41Z" fill="#2bc5b4" fill-rule="evenodd"/>
          <g id="Group_4" data-name="Group 4">
            <g clip-path="url(#clip-path)">
              <g id="Group_3" data-name="Group 3">
                <g id="Group_2" data-name="Group 2">
                  <g clip-path="url(#clip-path-2)">
                    <g id="Group_1" data-name="Group 1">
                      <path id="Rectangle_1" data-name="Rectangle 1" d="M205.45,236.25h34.24v60.39H205.45Z" fill="url(#pattern)"/>
                    </g>
                  </g>
                </g>
              </g>
            </g>
          </g>
        </g>
      </g>
    </g>
  </g>
</svg>
