<svg xmlns="http://www.w3.org/2000/svg" xmlns:xlink="http://www.w3.org/1999/xlink" width="507.446" height="547.524" viewBox="0 0 507.446 547.524">
    <defs>
        <linearGradient id="linear-gradient" x1=".186" x2="1.186" y1="-1.485" y2="-1.485" gradientUnits="objectBoundingBox">
            <stop offset="0" stop-color="#f79256"/>
            <stop offset="1" stop-color="#f79256" stop-opacity=".478"/>
        </linearGradient>
        <linearGradient id="linear-gradient-2" x1="-3.93" x2="-2.93" y1="-12.876" y2="-12.876" gradientUnits="objectBoundingBox">
            <stop offset="0" stop-color="#2bc5b4"/>
            <stop offset="1" stop-color="#2bc5b4" stop-opacity=".471"/>
        </linearGradient>
        <linearGradient id="linear-gradient-3" x1="-3.93" x2="-2.93" y1="-12.876" y2="-12.876" gradientUnits="objectBoundingBox">
            <stop offset="0" stop-color="#524cb3"/>
            <stop offset="1" stop-color="#5953b6" stop-opacity=".471"/>
        </linearGradient>
        <linearGradient id="linear-gradient-4" x1="-3.93" x2="-2.93" y1="-12.876" y2="-12.876" xlink:href="#linear-gradient"/>
        <clipPath id="clip-path">
            <path id="Path_2" fill="none" d="M7.621 394A54.967 54.967 0 0 0-5 400.748v16.889a43.525 43.525 0 0 1 12.621-8.117V394z" clip-rule="evenodd" transform="translate(5 -394)"/>
        </clipPath>
        <clipPath id="clip-path-2">
            <path id="Rectangle_2" fill="none" d="M0 0H12.621V23.637H0z"/>
        </clipPath>
        <pattern id="pattern" width="1" height="1" patternTransform="matrix(1 0 0 -1 0 48.647)" viewBox="0 0 13.79 24.324"/>
        <style>
            .cls-7{fill:none;stroke:#f79256;stroke-linecap:round;stroke-width:4px;stroke-dasharray:5 10;opacity:.5}.cls-10,.cls-13{opacity:.3}.cls-9{fill:#f79256}.cls-10{fill:url(#linear-gradient-2)}.cls-11{fill:#24afa0}.cls-12{fill:#5d56c4}.cls-13{fill:url(#linear-gradient-3)}
        </style>
    </defs>
    <g id="paytack_logo" data-name="paytack logo" class="paytack_logo" transform="translate(-1175.19 -4919.552)">
        <g id="Group_7238" transform="translate(1424.403 4819.919)">
            <path id="Path_1" fill="#2bc5b4" fill-rule="evenodd" d="M-5 350.1v51.48c11.95-35.64 50.417-18.506 50.417-51.482A25.208 25.208 0 0 0-5 350.1zm12.621 17.886V350.1a12.588 12.588 0 1 1 25.175 0c0 13.244-15.4 12.458-25.175 17.888z"/>
            <g id="Group_4" transform="translate(-5 352.466)">
                <g id="Group_3" clip-path="url(#clip-path)">
                    <g id="Group_2">
                        <g id="Group_1" clip-path="url(#clip-path-2)">
                            <path id="Rectangle_1" fill="url(#pattern)" d="M0 0H13.79V24.324H0z" transform="translate(-.56 -.246)"/>
                        </g>
                    </g>
                </g>
            </g>
        </g>
        <path id="Line_8" d="M0 118L0 0" class="cls-7" transform="translate(1445.5 5009.5)"/>
        <path id="Line_11" d="M0 119L0 0" class="cls-7" transform="translate(1445.5 5224.5)"/>
        <path id="Line_9" d="M80 80L0 0" class="cls-7" transform="translate(1305.5 5061.5)"/>
        <path id="Line_13" d="M0 80L80 0" class="cls-7" transform="translate(1498.5 5061.5)"/>
        <path id="Line_10" d="M95 0L0 95" class="cls-7" transform="translate(1290.5 5221.5)"/>
        <path id="Line_12" d="M0 0L95 95" class="cls-7" transform="translate(1498.5 5221.5)"/>
        <g id="heart_grp" data-name="heart grp" transform="translate(1195.461 4640.735)">
            <circle id="Ellipse_375" cx="29.638" cy="29.638" r="29.638" fill="url(#linear-gradient)" opacity="0.3" transform="translate(193.619 295.674)"/>
            <g id="Group_7216" transform="translate(189.539 305.915)">
                <g id="Group_7215">
                    <path id="Path_3183" d="M296.175 524.309a8.041 8.041 0 0 0-14.093-4.93l-10.966 12.67A7.954 7.954 0 0 0 270 533.73l-.453.187a7.475 7.475 0 0 0-5.509-5.359c-14.565-4.131-16.463-4.959-20.431-4.611h-.043c-10.739 1.151-13.2 1.5-18.609 4.616a85.282 85.282 0 0 0-11.283 7.794l-.659-.764a4.549 4.549 0 0 0-6.409-.469l-15.539 13.417a4.4 4.4 0 0 0-.432 6.23l20.48 23.339a4.277 4.277 0 0 0 5.941.494l.041-.035 15.48-13.369a4.541 4.541 0 0 0 .47-6.409l-.606-.7 1-.862c2.65-2.289 6.639-2.973 10.668-1.831l10.3 2.921a2.221 2.221 0 1 0 1.212-4.274l-10.3-2.922c-5.471-1.551-11-.526-14.783 2.742l-1 .862-12.959-15.008a80.784 80.784 0 0 1 10.6-7.306c4.605-2.651 6.152-2.9 16.845-4.047 2.5-.218 4.062.233 12.631 2.694 6.64 1.907 8.01 1.917 8.571 3.853a4.214 4.214 0 0 1 .1 1.76 3.3 3.3 0 0 1-.541 1.2 1.874 1.874 0 0 1-2.021.717c-4.2-.578-14.212-1.917-14.312-1.93a2.221 2.221 0 0 0-.589 4.4c.1.013 10.1 1.35 14.3 1.928a6.448 6.448 0 0 0 7.151-4.174c.111-.046 22.368-9.219 22.475-9.273 2.346-1.191 4.562-1.464 5.96.78 1.608 2.874-1.244 5.018-1.962 5.5l-29.63 16.961-.039.023-.073.045a11.3 11.3 0 0 1-1.556.845 2.221 2.221 0 0 0 1.812 4.056 15.731 15.731 0 0 0 2.115-1.144c.088-.05 29.662-16.977 29.747-17.032 8.039-5.236 4.163-14.281-1.986-15.266zM229.682 561.7a.094.094 0 0 1 .025.074c-.005.065-15.3 13.254-15.354 13.3L194 551.877l15.506-13.389a.094.094 0 0 1 .073-.024.093.093 0 0 1 .07.035zm48.927-31.519l6.832-7.894a3.588 3.588 0 0 1 6.292 2.464z" class="cls-9" transform="translate(-189.539 -516.603)"/>
                </g>
            </g>
            <g id="Group_7218" transform="translate(244.652 278.817)">
                <g id="Group_7217">
                    <path id="Path_3184" d="M391.21 432.576a3.71 3.71 0 0 0 3.092 1.68 3.623 3.623 0 0 0 2.912-1.711 5.936 5.936 0 0 1 10.634.624 2.221 2.221 0 0 0 4.086-1.745 10.368 10.368 0 0 0-17.721-2.327c-6.079-7.789-18.573-3.364-18.563 6.423.011 10.29 8.92 18.16 17.256 22.094a3.1 3.1 0 0 0 2.649 0c5.993-2.843 12.364-7.888 15.312-13.981a2.221 2.221 0 1 0-4-1.935c-2.4 4.964-7.723 9.142-12.645 11.622-6.933-3.428-14.122-9.808-14.13-17.8a5.953 5.953 0 0 1 11.118-2.944z" class="cls-9" transform="translate(-375.65 -425.097)"/>
                </g>
            </g>
        </g>
        <g id="people_grp" data-name="people grp" class="people" transform="translate(-494.239 3982.703)">
            <circle id="Ellipse_385" cx="20.539" cy="20.539" r="20.539" class="cls-10" transform="translate(1695.799 1005.502)"/>
            <path id="Path_3207" d="M1779.755 1002.9a30.006 30.006 0 0 0 .3-4.055 29.551 29.551 0 1 0-59.1 0 29.986 29.986 0 0 0 .3 4.055 26.25 26.25 0 0 0-1.937 50.434v6.255a1.642 1.642 0 0 0 1.642 1.642v4.925a1.642 1.642 0 0 0 1.642 1.642h9.85a1.642 1.642 0 0 0 1.642-1.642v-4.925a1.641 1.641 0 0 0 1.642-1.642v-6.255a26.215 26.215 0 0 0 8.209-4.5v17.32a1.642 1.642 0 0 0 1.642 1.642h9.85a1.642 1.642 0 0 0 1.642-1.642v-17.32a26.215 26.215 0 0 0 8.209 4.5v6.255a1.641 1.641 0 0 0 1.642 1.642v4.925a1.642 1.642 0 0 0 1.642 1.642h9.85a1.642 1.642 0 0 0 1.642-1.642v-4.925a1.642 1.642 0 0 0 1.642-1.642v-6.255a26.25 26.25 0 0 0-1.937-50.434zm-29.255-30.324a26.293 26.293 0 0 1 18.059 45.378v-4.334a4.94 4.94 0 0 0-4.925-4.925h-8.209v-2.972a9.85 9.85 0 0 0 4.925-8.521v-1.642h.821a4.1 4.1 0 0 0 .8-8.127c0-.033.016-.049.016-.082v-4.925a4.94 4.94 0 0 0-4.925-4.925h-11.229l-4.662-1.56a1.643 1.643 0 0 0-1.478.23 1.615 1.615 0 0 0-.69 1.33v9.85c0 .033.017.049.017.082a4.1 4.1 0 0 0 .8 8.127h.821v1.64a9.851 9.851 0 0 0 4.925 8.521v2.972h-8.209a4.94 4.94 0 0 0-4.925 4.925v4.334a26.292 26.292 0 0 1 18.059-45.378zm-13.134 55.819a4.864 4.864 0 0 1 3.284 1.3v6.912a1.642 1.642 0 0 0 1.642 1.642v1.642h-29.551v-6.567a4.94 4.94 0 0 1 4.925-4.925zm-16.417-9.85a6.567 6.567 0 0 1 3.464-5.762 29.373 29.373 0 0 0 8.324 9.7 6.546 6.546 0 0 1-11.788-3.94zm13.889 6.567c.23-.246.427-.525.64-.8.476.279.969.542 1.461.8zm.886-4.531v-6.961a1.642 1.642 0 0 1 1.642-1.642h6.8a6.539 6.539 0 0 0 12.674 0h6.8a1.642 1.642 0 0 1 1.642 1.642v6.961a26.33 26.33 0 0 1-7.043 3.382 26.678 26.678 0 0 1-15.465 0 26.331 26.331 0 0 1-7.051-3.382zm8.209-31.587h13.134v8.206a6.567 6.567 0 0 1-13.134 0zm-1.642-3.283v-5.927l2.758.919a1.939 1.939 0 0 0 .525.082h11.492a1.642 1.642 0 0 1 1.642 1.642v3.283zm11.049 26.268a3.283 3.283 0 0 1-5.68 0zm-4.482-3.283v-1.79a9.194 9.194 0 0 0 3.283 0v1.79zm16.664 15.613c.213.279.41.558.64.8h-2.1c.49-.26.983-.522 1.459-.801zm-6.813 13.938a1.642 1.642 0 0 0 1.642-1.642v-6.912a4.864 4.864 0 0 1 3.283-1.3h19.7a4.94 4.94 0 0 1 4.925 4.925v6.567h-29.551zm14.776-13.134a6.548 6.548 0 0 1-5.221-2.627 29.373 29.373 0 0 0 8.324-9.7 6.551 6.551 0 0 1-3.1 12.329zm-13.134-32.835v-1.642h.821a.821.821 0 1 1 0 1.642zm-19.7-1.642v1.642h-.821a.821.821 0 1 1 0-1.642zm-9.85 73.878h-6.567v-3.284h6.567zm1.642-6.567h-9.85v-3.76a26.933 26.933 0 0 0 4.925.476 25.932 25.932 0 0 0 4.925-.493zm11.492-13.528a22.961 22.961 0 1 1-22.081-38.285 31.725 31.725 0 0 0 1.182 3.661 9.807 9.807 0 0 0-2.84 15.318h-2.528a8.209 8.209 0 0 0-8.209 8.209v8.209a1.642 1.642 0 0 0 1.642 1.642h32.835zm9.85 20.095h-6.567v-26.268h6.567zm-9.85-29.551v-7.289a30.359 30.359 0 0 0 6.567.722h1.576v-.082a31.9 31.9 0 0 0 4.991-.64v7.289zm32.835 29.551h-6.57v-3.284h6.567zm1.642-6.567h-9.85v-3.776a25.931 25.931 0 0 0 4.925.493 26.934 26.934 0 0 0 4.925-.476zm-4.925-6.567a22.942 22.942 0 0 1-16.417-6.961v-1.248h32.83a1.642 1.642 0 0 0 1.642-1.642v-8.209a8.209 8.209 0 0 0-8.209-8.209h-2.528a9.806 9.806 0 0 0-2.84-15.318 31.7 31.7 0 0 0 1.182-3.661 22.984 22.984 0 0 1-5.664 45.246z" class="cls-11"/>
        </g>
        <g id="graph_grp" data-name="graph grp" class="graph" transform="translate(76.582 179)">
            <g id="Group_7241" transform="translate(1113 5108.053)">
                <path id="Path_3208" d="M2712.43 994.622V962.8a11.354 11.354 0 1 0-12.983-11.23h-77.9v64.913h48.767a25.948 25.948 0 1 0 42.111-21.859zm-1.623-51.168a8.114 8.114 0 1 1-8.114 8.114 8.123 8.123 0 0 1 8.114-8.114zm-86.01 11.36h75.128a11.363 11.363 0 0 0 1.8 3.546l-9.925 9.925a4.7 4.7 0 0 0-4.172 0l-3.27-3.27a4.823 4.823 0 0 0 .487-2.087 4.868 4.868 0 1 0-9.736 0 4.791 4.791 0 0 0 .488 2.085l-8.138 8.138a4.823 4.823 0 0 0-2.087-.487 4.868 4.868 0 1 0 4.868 4.869 4.784 4.784 0 0 0-.489-2.085l8.139-8.139a4.7 4.7 0 0 0 4.172 0l3.27 3.27a4.87 4.87 0 1 0 8.762 0l9.927-9.925a11.29 11.29 0 0 0 5.167 2.146v29.608a25.808 25.808 0 0 0-32.457 5.334v-7.226h-9.737v19.474h3.719a25.987 25.987 0 0 0-.391 3.246H2624.8zm64.913 16.228a1.623 1.623 0 1 1-1.623 1.623 1.625 1.625 0 0 1 1.624-1.623zm-11.36-8.114a1.623 1.623 0 1 1 1.623 1.623 1.625 1.625 0 0 1-1.622-1.623zm-11.359 14.605a1.623 1.623 0 1 1-1.623-1.623 1.625 1.625 0 0 1 1.623 1.624zm29.21 50.308a12.983 12.983 0 1 1 12.983-12.983 13 13 0 0 1-12.984 12.984zm-22.719-25.526a25.819 25.819 0 0 0-1.93 4.429h-1.316v-12.982h3.246zm21.1-10.094v6.491a16.195 16.195 0 0 0-13.159 22.806l-5.63 3.25a22.642 22.642 0 0 1 18.789-32.547zm1.623 45.356a22.709 22.709 0 0 1-18.805-9.989l5.652-3.263a16.175 16.175 0 0 0 26.306 0l5.653 3.263a22.709 22.709 0 0 1-18.811 9.99zm20.412-12.809l-5.63-3.25a16.194 16.194 0 0 0-13.159-22.806v-6.491a22.641 22.641 0 0 1 18.789 32.547z" class="cls-12" transform="translate(-2621.552 -940.209)"/>
                <path id="Path_3209" d="M2951.289 1260.209a9.737 9.737 0 1 0 9.737 9.737 9.747 9.747 0 0 0-9.737-9.737zm0 16.228a6.491 6.491 0 1 1 6.491-6.491 6.5 6.5 0 0 1-6.491 6.491z" class="cls-12" transform="translate(-2876.639 -1195.296)"/>
                <path id="Path_3210" d="M2653.552 1028.209h3.245v3.246h-3.245z" class="cls-12" transform="translate(-2647.06 -1010.358)"/>
                <path id="Path_3211" d="M2685.552 1028.209h22.72v3.246h-22.72z" class="cls-12" transform="translate(-2672.569 -1010.358)"/>
                <path id="Path_3212" d="M2653.552 1060.209h3.245v3.245h-3.245z" class="cls-12" transform="translate(-2647.06 -1035.867)"/>
                <path id="Path_3213" d="M2685.552 1060.209h22.72v3.245h-22.72z" class="cls-12" transform="translate(-2672.569 -1035.867)"/>
                <path id="Path_3214" d="M2653.552 1092.209h3.245v3.246h-3.245z" class="cls-12" transform="translate(-2647.06 -1061.375)"/>
                <path id="Path_3215" d="M2685.552 1092.209h22.72v3.246h-22.72z" class="cls-12" transform="translate(-2672.569 -1061.375)"/>
                <path id="Path_3216" d="M2653.552 1124.209h3.245v3.246h-3.245z" class="cls-12" transform="translate(-2647.06 -1086.884)"/>
                <path id="Path_3217" d="M2685.552 1124.209h22.72v3.246h-22.72z" class="cls-12" transform="translate(-2672.569 -1086.884)"/>
                <path id="Path_3218" d="M2653.552 1220.437h9.737v-16.228h-9.737zm3.245-12.983h3.246v9.737h-3.243z" class="cls-12" transform="translate(-2647.06 -1150.656)"/>
                <path id="Path_3219" d="M2717.552 1233.191h9.737v-12.983h-9.737zm3.245-9.737h3.246v6.491h-3.243z" class="cls-12" transform="translate(-2698.078 -1163.41)"/>
                <path id="Path_3220" d="M2781.552 1182.174h9.736v-25.965h-9.736zm3.245-22.719h3.245v19.474h-3.242z" class="cls-12" transform="translate(-2749.096 -1112.393)"/>
            </g>
            <circle id="Ellipse_387" cx="28.45" cy="28.45" r="28.45" class="cls-13" transform="translate(1098.608 5143.176)"/>
        </g>
        <g id="swipe_grp" data-name="swipe grp" class="swipe" transform="translate(-21 -41)">
            <g id="Ecommerce-transfer_money-buy-smartphone-hands" transform="translate(-619.857 3761.415)">
                <path id="Path_3221" d="M2417.651 1695.755l2.153 2.153 6.09-6.09a1.522 1.522 0 0 0 0-2.153l-6.09-6.09-2.153 2.153 3.491 3.491H2403.5v3.045h17.641z" class="cls-9" transform="translate(-291.484 -27.808)"/>
                <path id="Path_3222" d="M2402.04 1761.908l2.153-2.153-3.491-3.491h17.641v-3.045H2400.7l3.491-3.491-2.153-2.153-6.09 6.09a1.522 1.522 0 0 0 0 2.153z" class="cls-9" transform="translate(-285.008 -79.627)"/>
                <path id="Path_3223" d="M2133.075 1693.644a14.944 14.944 0 0 1-13.444-3.3 5.423 5.423 0 0 0-1.995.35 5.848 5.848 0 0 0-1.918 1.127 6.09 6.09 0 0 0-5.222-3 6.02 6.02 0 0 0-3.045.837v-25.2a6.09 6.09 0 0 0-6.09-6.09 6.02 6.02 0 0 0-3.045.837v-5.405a4.581 4.581 0 0 0-4.568-4.568h-36.542a4.582 4.582 0 0 0-4.568 4.568v30.452h-1.523a7.613 7.613 0 0 0-7.613 7.613v6.227l3.045 31.913v9.059a1.523 1.523 0 0 0 1.523 1.523h33.5a1.523 1.523 0 0 0 1.523-1.523v-8.648l5.664-8.1h3.273l1.72 4.827v11.922a1.523 1.523 0 0 0 1.523 1.523h30.452a1.523 1.523 0 0 0 1.523-1.523v-11.922l6.989-19.58a10.652 10.652 0 0 0 .624-3.578v-6.029a6.089 6.089 0 0 0-1.786-4.312zm-53.031 43.9h-30.452v-6.09h30.452zm.731-9.135h-31.32l-2.908-30.452v-6.09a4.582 4.582 0 0 1 4.568-4.568h10.658a4.568 4.568 0 1 1 0 9.135h-7.613a1.523 1.523 0 0 0-1.523 1.523v19.794a4.581 4.581 0 0 0 4.568 4.568h27.833zm-23.57-9.135a1.523 1.523 0 0 1-1.522-1.523v-4.568h27.406v-3.045h-27.406v-10.658h6.09a7.613 7.613 0 0 0 0-15.226h-6.09V1653.8a1.523 1.523 0 0 1 1.522-1.523h36.542a1.523 1.523 0 0 1 1.523 1.523v31.3a5.978 5.978 0 0 0-3.06-.853 6.091 6.091 0 0 0-6.075 6.075v13.658a10.817 10.817 0 0 0 .624 3.593l4.172 11.693zm44.155 18.271h-4.568v-9.145h4.568zm7.613 0h-4.568v-9.145h4.568zm7.613 0h-4.568v-9.145h4.568zm7.613 0h-4.568v-9.145h4.568zm7.613-33.558a7.719 7.719 0 0 1-.442 2.558l-6.714 18.819h-28.32l-6.715-18.8a7.886 7.886 0 0 1-.442-2.573v-13.658a3.045 3.045 0 1 1 6.09.015v12.181h3.045v-38.065a3.045 3.045 0 0 1 6.09 0v38.065h3.045v-7.613a3.045 3.045 0 0 1 6.09 0v7.613h3.045v-6.09a3.02 3.02 0 0 1 .9-2.147 2.741 2.741 0 0 1 1.172-.731 2.841 2.841 0 0 1 .974-.167 3.054 3.054 0 0 1 3.045 3.045v7.613h3.045v-6.09a3.045 3.045 0 0 1 6.09 0z" class="cls-9"/>
                <path id="Path_3224" d="M2146.728 1681.23a15.226 15.226 0 1 0 15.226 15.226 15.226 15.226 0 0 0-15.226-15.226zm0 27.406a12.181 12.181 0 1 1 12.181-12.181 12.181 12.181 0 0 1-12.181 12.181z" class="cls-9" transform="translate(-71.252 -25.91)"/>
                <path id="Path_3225" d="M2196.637 1725.411a4.583 4.583 0 0 1-3.045 4.294v1.8h-3.045v-1.8a4.583 4.583 0 0 1-3.045-4.294h3.045a1.523 1.523 0 1 0 1.523-1.523 4.568 4.568 0 0 1-1.523-8.861v-1.8h3.045v1.8a4.583 4.583 0 0 1 3.045 4.294h-3.045a1.523 1.523 0 1 0-1.522 1.523 4.581 4.581 0 0 1 4.567 4.567z" class="cls-9" transform="translate(-116.594 -51.819)"/>
            </g>
            <circle id="Ellipse_388" cx="34.95" cy="34.95" r="34.95" fill="url(#linear-gradient-4)" opacity="0.3" transform="translate(1417.19 5438.176)"/>
        </g>
        <g id="device_grp" data-name="device grp" class="device" transform="translate(-68)">
            <circle id="Ellipse_390" cx="28.45" cy="28.45" r="28.45" class="cls-10" transform="translate(1662.19 5309.176)"/>
            <g id="Group_7245" transform="translate(1619.5 5300.297)">
                <g id="Group_7244" transform="translate(57)">
                    <path id="Path_3226" d="M163.216 45.84h-26.48a1.4 1.4 0 1 0 0 2.794h26.48a1.4 1.4 0 0 0 0-2.794z" class="cls-11" transform="translate(-120.747 -37.301)"/>
                    <path id="Path_3227" d="M163.216 91.668h-26.48a1.4 1.4 0 1 0 0 2.794h26.48a1.4 1.4 0 0 0 0-2.794z" class="cls-11" transform="translate(-120.747 -74.593)"/>
                    <path id="Path_3228" d="M120.971 384.24h-6.725a1.4 1.4 0 0 0 0 2.794h6.725a1.4 1.4 0 0 0 0-2.794z" class="cls-11" transform="translate(-102.446 -312.667)"/>
                    <path id="Path_3229" d="M196.489 384.24h-6.725a1.4 1.4 0 0 0 0 2.794h6.725a1.4 1.4 0 0 0 0-2.794z" class="cls-11" transform="translate(-163.897 -312.667)"/>
                    <path id="Path_3230" d="M272 384.24h-6.72a1.4 1.4 0 0 0 0 2.794H272a1.4 1.4 0 0 0 0-2.794z" class="cls-11" transform="translate(-225.347 -312.667)"/>
                    <path id="Path_3231" d="M120.971 417.987h-6.725a1.4 1.4 0 1 0 0 2.794h6.725a1.4 1.4 0 1 0 0-2.794z" class="cls-11" transform="translate(-102.446 -340.128)"/>
                    <path id="Path_3232" d="M196.489 417.987h-6.725a1.4 1.4 0 1 0 0 2.794h6.725a1.4 1.4 0 1 0 0-2.794z" class="cls-11" transform="translate(-163.897 -340.128)"/>
                    <path id="Path_3233" d="M272 417.987h-6.72a1.4 1.4 0 0 0 0 2.794H272a1.4 1.4 0 0 0 0-2.794z" class="cls-11" transform="translate(-225.347 -340.128)"/>
                    <path id="Path_3234" d="M120.971 451.734h-6.725a1.4 1.4 0 0 0 0 2.794h6.725a1.4 1.4 0 0 0 0-2.794z" class="cls-11" transform="translate(-102.446 -367.589)"/>
                    <path id="Path_3235" d="M196.489 451.734h-6.725a1.4 1.4 0 1 0 0 2.794h6.725a1.4 1.4 0 1 0 0-2.794z" class="cls-11" transform="translate(-163.897 -367.589)"/>
                    <path id="Path_3236" d="M272 451.734h-6.72a1.4 1.4 0 0 0 0 2.794H272a1.4 1.4 0 0 0 0-2.794z" class="cls-11" transform="translate(-225.347 -367.589)"/>
                    <path id="Path_3237" d="M140.968 184.507a2.914 2.914 0 0 0-2.911-2.911h-37.491a2.914 2.914 0 0 0-2.911 2.911v4.019a1.4 1.4 0 1 0 2.794 0v-4.019a.117.117 0 0 1 .117-.117h37.491a.117.117 0 0 1 .117.117v14.575a.117.117 0 0 1-.117.117h-37.49a.117.117 0 0 1-.117-.117v-4.025a1.4 1.4 0 0 0-2.794 0v4.025a2.914 2.914 0 0 0 2.911 2.911h37.49a2.914 2.914 0 0 0 2.911-2.911v-14.575z" class="cls-11" transform="translate(-90.082 -147.77)"/>
                    <path id="Path_3238" d="M112.627 311.875a2.793 2.793 0 0 0-2.79-2.79h-6.852a2.789 2.789 0 0 0-2.713 3.437l.912 3.825a2.78 2.78 0 0 0 2.713 2.142h5.939a2.793 2.793 0 0 0 2.79-2.789zM103.9 315.7l-.916-3.819h6.847l.005 3.82z" class="cls-11" transform="translate(-92.149 -251.512)"/>
                    <path id="Path_3239" d="M192.357 315.7v-3.825a2.793 2.793 0 0 0-2.789-2.79h-7.223a2.793 2.793 0 0 0-2.789 2.79v3.825a2.792 2.792 0 0 0 2.789 2.789h7.223a2.792 2.792 0 0 0 2.789-2.789zm-10.008 0v-3.821h7.219l.006 3.82z" class="cls-11" transform="translate(-156.727 -251.511)"/>
                    <path id="Path_3240" d="M272.342 316.346l.912-3.825a2.789 2.789 0 0 0-2.713-3.437h-6.851a2.793 2.793 0 0 0-2.79 2.79v3.826a2.793 2.793 0 0 0 2.79 2.789h5.939a2.78 2.78 0 0 0 2.713-2.143zm-2.713-.651h-5.936v-3.821l6.848-.005z" class="cls-11" transform="translate(-222.919 -251.512)"/>
                    <path id="Path_3241" d="M127.307 13.341h-7.572V6.9v-.047A7.067 7.067 0 0 0 112.643 0H71.594a7.484 7.484 0 0 0-7.476 7.476V19.42A8.4 8.4 0 0 0 57 27.707v18.645c0 10.483 1.848 13.3 1.848 23.523v18.4a7.1 7.1 0 0 0 7.1 7.1h40.568a7.1 7.1 0 0 0 7.1-7.1v-5.729a1.4 1.4 0 0 0-2.794 0v5.728a4.308 4.308 0 0 1-4.3 4.3H65.945a4.308 4.308 0 0 1-4.3-4.3v-18.4c0-10.437-1.848-13.34-1.848-23.523V27.707a5.6 5.6 0 0 1 4.325-5.443v3.574a3.642 3.642 0 0 0 3.638 3.638h36.94a3.642 3.642 0 0 0 3.638-3.638v-3.574a5.6 5.6 0 0 1 4.325 5.443v18.645c0 10.186-1.848 13.078-1.848 23.523V75.9a1.4 1.4 0 0 0 2.794 0v-6.025c0-10.169 1.848-13.1 1.848-23.523V33.707h8.58a7.114 7.114 0 0 0 7.1-7.1v-9.438a3.832 3.832 0 0 0-3.828-3.828zm-21.762 12.5a.845.845 0 0 1-.844.844H67.757a.845.845 0 0 1-.844-.844V7.476a4.687 4.687 0 0 1 4.682-4.682H107a7.061 7.061 0 0 0-1.457 4.3zm9.912 5.075v-3.209a8.4 8.4 0 0 0-7.119-8.287V7.1a4.3 4.3 0 0 1 8.6-.172v19.681a7.062 7.062 0 0 0 1.457 4.3zm12.884-4.3a4.3 4.3 0 0 1-8.607 0V16.135h7.572a1.035 1.035 0 0 1 1.034 1.034z" class="cls-11" transform="translate(-57)"/>
                </g>
            </g>
        </g>
        <g id="dollar_grp" data-name="dollar grp" class="dollar" transform="translate(-68)">
            <circle id="Ellipse_389" cx="28.45" cy="28.45" r="28.45" class="cls-13" transform="translate(1651.19 5004.176)"/>
            <g id="Group_7246" transform="translate(1613.824 4938)">
                <path id="Path_3242" d="M222.745 173.009a1.674 1.674 0 0 0-.6-.02 4 4 0 0 1-3.54-3.969 1.76 1.76 0 1 0-3.521 0 7.531 7.531 0 0 0 5.538 7.252v1.76a1.76 1.76 0 1 0 3.521 0v-1.654A7.518 7.518 0 0 0 222.6 161.5a4 4 0 1 1 4-4 1.76 1.76 0 1 0 3.521 0 7.532 7.532 0 0 0-5.978-7.359v-1.6a1.76 1.76 0 1 0-3.521 0v1.71a7.517 7.517 0 0 0 1.981 14.769 3.995 3.995 0 0 1 .146 7.987z" class="cls-12" transform="translate(-144.544 -114.434)"/>
                <path id="Path_3243" d="M133.358 131.864a25.529 25.529 0 1 0 25.529-25.529 25.528 25.528 0 0 0-25.529 25.529zm25.529-22.008a22.008 22.008 0 1 1-22.008 22.008 22.007 22.007 0 0 1 22.008-22.008z" class="cls-12" transform="translate(-80.832 -82.9)"/>
                <path id="Path_3244" d="M112.262 332.889l-13.791 6.516A11.232 11.232 0 0 0 88.9 333.5l-12.731-.35a13.451 13.451 0 0 1-5.786-1.494l-1.3-.672a22.849 22.849 0 0 0-21.165.016l.082-2.932a1.76 1.76 0 0 0-1.712-1.808l-13.96-.384a1.76 1.76 0 0 0-1.808 1.712l-.843 30.635a1.76 1.76 0 0 0 1.712 1.808l13.96.384h.051a1.76 1.76 0 0 0 1.76-1.712l.041-1.466 3.627-1.942a6.22 6.22 0 0 1 4.643-.508l21.657 6.078c.038.011.076.02.114.028a23.185 23.185 0 0 0 4.76.491 23.489 23.489 0 0 0 9.812-2.141 1.644 1.644 0 0 0 .218-.12l31.4-20.311a1.761 1.761 0 0 0 .577-2.345 8.893 8.893 0 0 0-11.747-3.578zm-79.017 23.67l.746-27.115 10.44.287-.746 27.116zm56.979-.461a19.96 19.96 0 0 1-12.206 1.362l-21.6-6.063a9.733 9.733 0 0 0-7.257.793l-1.853.993.5-18.029a19.352 19.352 0 0 1 19.659-1.049l1.3.672a17 17 0 0 0 7.308 1.888l12.732.35a7.721 7.721 0 0 1 7.338 6.153l-18.964-.523a1.761 1.761 0 1 0-.1 3.52l20.928.576h.049a1.761 1.761 0 0 0 1.759-1.712 11.188 11.188 0 0 0-.17-2.284l14.145-6.683.041-.02a5.379 5.379 0 0 1 6.083.852z" class="cls-12" transform="translate(0 -254.057)"/>
                <path id="Path_3245" d="M244.728 18.485V1.76a1.76 1.76 0 0 0-3.521 0v16.725a1.76 1.76 0 0 0 3.521 0z" class="cls-12" transform="translate(-164.913)"/>
                <path id="Path_3246" d="M304.639 49.624V41.7a1.76 1.76 0 1 0-3.521 0v7.922a1.76 1.76 0 1 0 3.521 0z" class="cls-12" transform="translate(-211.62 -31.139)"/>
                <path id="Path_3247" d="M184.816 49.624V41.7a1.76 1.76 0 1 0-3.521 0v7.922a1.76 1.76 0 1 0 3.521 0z" class="cls-12" transform="translate(-118.205 -31.139)"/>
            </g>
        </g>
    </g>
</svg>
