<svg id="Layer_1" data-name="Layer 1" xmlns="http://www.w3.org/2000/svg" xmlns:xlink="http://www.w3.org/1999/xlink" width="179.02mm" height="193.15mm" viewBox="0 0 507.45 547.52">
  <defs>
    <linearGradient id="linear-gradient" x1="-42.09" y1="691.91" x2="-41.09" y2="691.91" gradientTransform="matrix(59.28, 0, 0, -59.28, 2719.76, 41060.14)" gradientUnits="userSpaceOnUse">
      <stop offset="0" stop-color="#f79256"/>
      <stop offset="1" stop-color="#f79256" stop-opacity="0.48"/>
    </linearGradient>
    <linearGradient id="linear-gradient-2" x1="-45.88" y1="690.81" x2="-44.88" y2="690.81" gradientTransform="matrix(41.08, 0, 0, -41.08, 1749.72, 28466.33)" gradientUnits="userSpaceOnUse">
      <stop offset="0" stop-color="#2bc5b4"/>
      <stop offset="1" stop-color="#2bc5b4" stop-opacity="0.47"/>
    </linearGradient>
    <linearGradient id="linear-gradient-3" x1="-46.17" y1="691.81" x2="-45.17" y2="691.81" gradientTransform="matrix(56.9, 0, 0, -56.9, 2403.7, 39794.85)" gradientUnits="userSpaceOnUse">
      <stop offset="0" stop-color="#524cb3"/>
      <stop offset="1" stop-color="#5953b6" stop-opacity="0.47"/>
    </linearGradient>
    <linearGradient id="linear-gradient-4" x1="-46.31" y1="692.29" x2="-45.31" y2="692.29" gradientTransform="matrix(69.9, 0, 0, -69.9, 3183.7, 48903.42)" xlink:href="#linear-gradient"/>
    <linearGradient id="linear-gradient-5" x1="-46.17" y1="691.81" x2="-45.17" y2="691.81" gradientTransform="matrix(56.9, 0, 0, -56.9, 2822.7, 39781.85)" xlink:href="#linear-gradient-2"/>
    <linearGradient id="linear-gradient-6" x1="-46.17" y1="691.81" x2="-45.17" y2="691.81" gradientTransform="matrix(56.9, 0, 0, -56.9, 2811.7, 39476.85)" xlink:href="#linear-gradient-3"/>
    <clipPath id="clip-path" transform="translate(0 0)">
      <path d="M238.17,236.87a136.09,136.09,0,0,0-31.33,16.75v41.93a108,108,0,0,1,31.33-20.15Z" fill="none"/>
    </clipPath>
    <clipPath id="clip-path-2" transform="translate(0 0)">
      <rect x="206.84" y="236.87" width="31.33" height="58.68" fill="none"/>
    </clipPath>
    <pattern id="pattern" data-name="pattern" width="24.32" height="24.32" patternTransform="translate(262.33 541.71)" patternUnits="userSpaceOnUse" viewBox="0 0 24.32 24.32">
      <rect width="24.32" height="24.32" fill="none"/>
    </pattern>
  </defs>
  <g id="Group_7249" data-name="Group 7249">
    <path id="Line_8" data-name="Line 8" d="M270.31,156.89V90" transform="translate(0 0)" fill="none" stroke="#f79256" stroke-linecap="round" stroke-width="4" stroke-dasharray="5 10" opacity="0.5" style="isolation: isolate"/>
    <path id="Line_11" data-name="Line 11" d="M270.31,424V305" transform="translate(0 0)" fill="none" stroke="#f79256" stroke-linecap="round" stroke-width="4" stroke-dasharray="5 10" opacity="0.5" style="isolation: isolate"/>
    <path id="Line_9" data-name="Line 9" d="M195.13,206.76,130.31,142" transform="translate(0 0)" fill="none" stroke="#f79256" stroke-linecap="round" stroke-width="4" stroke-dasharray="5 10" opacity="0.5" style="isolation: isolate"/>
    <path id="Line_13" data-name="Line 13" d="M338.49,206.76,403.31,142" transform="translate(0 0)" fill="none" stroke="#f79256" stroke-linecap="round" stroke-width="4" stroke-dasharray="5 10" opacity="0.5" style="isolation: isolate"/>
    <path id="Line_10" data-name="Line 10" d="M195.13,317.13,115.31,397" transform="translate(0 0)" fill="none" stroke="#f79256" stroke-linecap="round" stroke-width="4" stroke-dasharray="5 10" opacity="0.5" style="isolation: isolate"/>
    <path id="Line_12" data-name="Line 12" d="M323.31,302l95,95" transform="translate(0 0)" fill="none" stroke="#f79256" stroke-linecap="round" stroke-width="4" stroke-dasharray="5 10" opacity="0.5" style="isolation: isolate"/>
    <g id="Group_7239" data-name="Group 7239">
      <circle id="Ellipse_375" data-name="Ellipse 375" cx="243.53" cy="46.49" r="29.64" opacity="0.3" fill="url(#linear-gradient)" style="isolation: isolate"/>
      <g id="Group_7216" data-name="Group 7216">
        <g id="Group_7215" data-name="Group 7215">
          <path id="Path_3183" data-name="Path 3183" d="M316.45,34.8a8.05,8.05,0,0,0-14.1-4.93l-11,12.67a8,8,0,0,0-1.12,1.69l-.45.18a7.51,7.51,0,0,0-5.51-5.36c-14.57-4.13-16.46-5-20.43-4.61h0c-10.74,1.15-13.2,1.5-18.61,4.62a85.77,85.77,0,0,0-11.29,7.79l-.66-.76a4.53,4.53,0,0,0-6.4-.47L211.34,59a4.39,4.39,0,0,0-.46,6.2l0,0,20.48,23.34a4.29,4.29,0,0,0,6,.49l0,0L252.85,75.7a4.54,4.54,0,0,0,.47-6.41h0l-.61-.7,1-.87c2.65-2.28,6.64-3,10.67-1.83l10.3,2.92a2.22,2.22,0,0,0,1.21-4.27h0l-10.3-2.92c-5.47-1.55-11-.53-14.78,2.74l-1,.86-13-15a81,81,0,0,1,10.6-7.3c4.6-2.65,6.15-2.9,16.84-4,2.5-.22,4.07.23,12.63,2.7,6.64,1.9,8,1.91,8.58,3.85a4.35,4.35,0,0,1,.1,1.76,3.36,3.36,0,0,1-.55,1.2,1.88,1.88,0,0,1-2,.72c-4.2-.58-14.21-1.92-14.31-1.93a2.22,2.22,0,0,0-.59,4.4l14.3,1.92a6.43,6.43,0,0,0,7.15-4.17L312.06,40c2.34-1.19,4.56-1.47,6,.78,1.61,2.87-1.25,5-2,5.5l-29.63,17,0,0-.08.05a11,11,0,0,1-1.55.84,2.22,2.22,0,0,0,1.81,4.06,16.11,16.11,0,0,0,2.12-1.15c.08,0,29.66-17,29.74-17,8-5.24,4.17-14.28-2-15.27ZM250,72.2a.08.08,0,0,1,0,.07c0,.06-15.3,13.25-15.36,13.3l-20.35-23.2L229.78,49l.07,0a.09.09,0,0,1,.07,0Zm48.93-31.52,6.83-7.9A3.59,3.59,0,0,1,312,35.25Z" transform="translate(0 0)" fill="#f79256"/>
        </g>
      </g>
      <g id="Group_7218" data-name="Group 7218">
        <g id="Group_7217" data-name="Group 7217">
          <path id="Path_3184" data-name="Path 3184" d="M280.48,7.48a3.75,3.75,0,0,0,3.1,1.68,3.65,3.65,0,0,0,2.91-1.71,5.93,5.93,0,0,1,10.63.62,2.22,2.22,0,0,0,4.09-1.74A10.36,10.36,0,0,0,283.49,4c-6.08-7.79-18.58-3.36-18.57,6.42,0,10.29,8.92,18.16,17.26,22.1a3.15,3.15,0,0,0,2.65,0c6-2.85,12.36-7.89,15.31-14a2.22,2.22,0,1,0-4-1.94c-2.4,5-7.72,9.14-12.64,11.62-6.94-3.42-14.13-9.8-14.13-17.8a5.95,5.95,0,0,1,11.11-2.94Z" transform="translate(0 0)" fill="#f79256"/>
        </g>
      </g>
    </g>
    <g id="Group_7240" data-name="Group 7240">
      <circle id="Ellipse_385" data-name="Ellipse 385" cx="46.91" cy="89.19" r="20.54" opacity="0.3" fill="url(#linear-gradient-2)" style="isolation: isolate"/>
      <path id="Path_3207" data-name="Path 3207" d="M110.33,66.05a30.53,30.53,0,0,0,.3-4,29.55,29.55,0,1,0-59.1-.49,4,4,0,0,0,0,.49,27.5,27.5,0,0,0,.3,4,26.25,26.25,0,0,0-1.94,50.44v6.25a1.63,1.63,0,0,0,1.64,1.64v4.93A1.65,1.65,0,0,0,53.17,131H63a1.65,1.65,0,0,0,1.65-1.64v-4.93a1.64,1.64,0,0,0,1.64-1.64h0v-6.25a26.43,26.43,0,0,0,8.21-4.5v17.32A1.64,1.64,0,0,0,76.16,131H86a1.65,1.65,0,0,0,1.64-1.64V112a26.21,26.21,0,0,0,8.21,4.5v6.25a1.63,1.63,0,0,0,1.64,1.64h0v4.93A1.65,1.65,0,0,0,99.14,131H109a1.64,1.64,0,0,0,1.64-1.64v-4.93a1.64,1.64,0,0,0,1.65-1.64v-6.25a26.25,26.25,0,0,0-1.94-50.44ZM81.07,35.73A26.29,26.29,0,0,1,99.13,81.11V76.77a4.93,4.93,0,0,0-4.93-4.92H86v-3a9.83,9.83,0,0,0,4.92-8.52V58.71h.82a4.1,4.1,0,0,0,.8-8.13s0,0,0-.08V45.58a5,5,0,0,0-4.93-4.93H76.4l-4.66-1.56a1.66,1.66,0,0,0-1.48.23,1.64,1.64,0,0,0-.69,1.33V50.5s0,0,0,.08a4.1,4.1,0,0,0,.8,8.13h.82v1.64a9.85,9.85,0,0,0,4.93,8.52v3H67.93A5,5,0,0,0,63,76.77V81.1A26.29,26.29,0,0,1,81.06,35.73ZM67.94,91.55a4.81,4.81,0,0,1,3.28,1.3v6.91a1.64,1.64,0,0,0,1.64,1.64V103H43.31V96.48a5,5,0,0,1,4.93-4.93ZM51.52,81.7A6.59,6.59,0,0,1,55,75.93a29.24,29.24,0,0,0,8.33,9.7,6.55,6.55,0,0,1-11.79-3.94Zm13.89,6.56a8.62,8.62,0,0,0,.64-.8c.48.28,1,.55,1.46.8Zm.89-4.53v-7a1.63,1.63,0,0,1,1.64-1.64h6.8a6.54,6.54,0,0,0,12.67,0h6.8a1.63,1.63,0,0,1,1.64,1.64v7a26.27,26.27,0,0,1-7,3.38,26.37,26.37,0,0,1-22.52-3.38Zm8.2-31.58H87.64v8.2a6.57,6.57,0,0,1-13.14,0h0Zm-1.64-3.29V42.94l2.76.91a1.9,1.9,0,0,0,.53.09H87.64a1.64,1.64,0,0,1,1.64,1.64v3.28Zm11,26.27a3.28,3.28,0,0,1-4.49,1.19,3.23,3.23,0,0,1-1.19-1.19Zm-4.48-3.28V70.06a9.51,9.51,0,0,0,3.28,0v1.79ZM96.09,87.46c.22.28.41.56.64.8h-2.1c.49-.26,1-.52,1.46-.8ZM89.28,101.4a1.64,1.64,0,0,0,1.64-1.64V92.84a4.93,4.93,0,0,1,3.28-1.3h19.7a5,5,0,0,1,4.93,4.93V103H89.28Zm14.78-13.14a6.56,6.56,0,0,1-5.23-2.62,29.44,29.44,0,0,0,8.33-9.7,6.55,6.55,0,0,1-3.1,12.33ZM90.92,55.43V53.79h.82a.82.82,0,1,1,0,1.64h-.82Zm-19.7-1.64v1.64H70.4a.82.82,0,1,1,0-1.64Zm-9.85,73.88H54.8v-3.29h6.57ZM63,121.1H53.16v-3.76a26.39,26.39,0,0,0,4.93.47,25.41,25.41,0,0,0,4.92-.49Zm11.5-13.53A23,23,0,1,1,52.42,69.29,31.88,31.88,0,0,0,53.61,73a9.78,9.78,0,0,0-2.84,15.31H48.24A8.22,8.22,0,0,0,40,96.47v8.21a1.64,1.64,0,0,0,1.64,1.64H74.51Zm9.85,20.1H77.79V101.4h6.57ZM74.51,98.11V90.83a30.73,30.73,0,0,0,6.56.72h1.58v-.08a33.39,33.39,0,0,0,5-.64v7.28Zm32.83,29.56h-6.57v-3.29h6.57ZM109,121.1H99.13v-3.78a26.34,26.34,0,0,0,4.93.5,27.07,27.07,0,0,0,4.92-.48Zm-4.92-6.57a22.93,22.93,0,0,1-16.42-7v-1.25h32.83a1.63,1.63,0,0,0,1.64-1.64V96.47a8.21,8.21,0,0,0-8.21-8.21h-2.52a9.81,9.81,0,0,0-.71-13.85,10.1,10.1,0,0,0-2.13-1.47,32.53,32.53,0,0,0,1.18-3.66,23,23,0,0,1-5.67,45.25Z" transform="translate(0 0)" fill="#24afa0"/>
    </g>
    <g id="Group_7242" data-name="Group 7242">
      <g id="Group_7241" data-name="Group 7241">
        <path id="Path_3208" data-name="Path 3208" d="M105.27,421.91V390.09a11.35,11.35,0,1,0-13-11.23H14.39v64.92H63.15a25.95,25.95,0,1,0,42.12-21.86Zm-1.62-51.16a8.11,8.11,0,1,1-8.12,8.11A8.11,8.11,0,0,1,103.65,370.75Zm-86,11.36H92.76a11.39,11.39,0,0,0,1.8,3.54l-9.92,9.93a4.7,4.7,0,0,0-4.17,0l-3.27-3.27A4.86,4.86,0,1,0,68,390.22a4.75,4.75,0,0,0,.49,2.09l-8.14,8.13a4.86,4.86,0,1,0,2.78,4.39,4.72,4.72,0,0,0-.49-2.09l8.14-8.14a4.7,4.7,0,0,0,4.17,0l3.27,3.27a4.87,4.87,0,0,0,8.76,4.26,4.83,4.83,0,0,0,0-4.26L96.86,388a11.37,11.37,0,0,0,5.17,2.14V419.7A25.82,25.82,0,0,0,69.57,425v-7.22H59.83v19.47h3.72a25.5,25.5,0,0,0-.39,3.25H17.64Zm64.91,16.22A1.63,1.63,0,1,1,80.93,400a1.62,1.62,0,0,1,1.62-1.63Zm-11.36-8.11a1.63,1.63,0,1,1,1.62,1.62,1.62,1.62,0,0,1-1.62-1.62ZM59.83,404.83a1.63,1.63,0,1,1-1.62-1.63,1.63,1.63,0,0,1,1.62,1.63ZM89,455.13a13,13,0,1,1,13-13h0a13,13,0,0,1-13,13ZM66.32,429.61A26,26,0,0,0,64.39,434H63.08v-13h3.24Zm21.1-10.1V426a16.22,16.22,0,0,0-13.16,22.81l-5.63,3.25a22.66,22.66,0,0,1,18.79-32.55Zm1.63,45.36a22.72,22.72,0,0,1-18.81-10l5.65-3.26a16.18,16.18,0,0,0,22.57,3.74,16.39,16.39,0,0,0,3.74-3.74l5.65,3.26a22.69,22.69,0,0,1-18.81,10Zm20.41-12.81-5.63-3.25a16.21,16.21,0,0,0-8.06-21.44,16.41,16.41,0,0,0-5.1-1.37v-6.49a22.65,22.65,0,0,1,18.79,32.55Z" transform="translate(0 0)" fill="#5d56c4"/>
        <path id="Path_3209" data-name="Path 3209" d="M89,432.41a9.74,9.74,0,1,0,9.74,9.74A9.73,9.73,0,0,0,89,432.41Zm0,16.23a6.49,6.49,0,1,1,6.49-6.49h0A6.5,6.5,0,0,1,89,448.64Z" transform="translate(0 0)" fill="#5d56c4"/>
        <path id="Path_3210" data-name="Path 3210" d="M20.88,385.35h3.25v3.25H20.88Z" transform="translate(0 0)" fill="#5d56c4"/>
        <path id="Path_3211" data-name="Path 3211" d="M27.37,385.35H50.09v3.25H27.37Z" transform="translate(0 0)" fill="#5d56c4"/>
        <path id="Path_3212" data-name="Path 3212" d="M20.88,391.84h3.25v3.25H20.88Z" transform="translate(0 0)" fill="#5d56c4"/>
        <path id="Path_3213" data-name="Path 3213" d="M27.37,391.84H50.09v3.25H27.37Z" transform="translate(0 0)" fill="#5d56c4"/>
        <path id="Path_3214" data-name="Path 3214" d="M20.88,398.34h3.25v3.24H20.88Z" transform="translate(0 0)" fill="#5d56c4"/>
        <path id="Path_3215" data-name="Path 3215" d="M27.37,398.34H50.09v3.24H27.37Z" transform="translate(0 0)" fill="#5d56c4"/>
        <path id="Path_3216" data-name="Path 3216" d="M20.88,404.83h3.25v3.24H20.88Z" transform="translate(0 0)" fill="#5d56c4"/>
        <path id="Path_3217" data-name="Path 3217" d="M27.37,404.83H50.09v3.24H27.37Z" transform="translate(0 0)" fill="#5d56c4"/>
        <path id="Path_3218" data-name="Path 3218" d="M20.88,437.28h9.74V421.05H20.88Zm3.25-13h3.25V434H24.13Z" transform="translate(0 0)" fill="#5d56c4"/>
        <path id="Path_3219" data-name="Path 3219" d="M33.87,437.28H43.6v-13H33.87Zm3.24-9.73h3.25V434H37.11Z" transform="translate(0 0)" fill="#5d56c4"/>
        <path id="Path_3220" data-name="Path 3220" d="M46.85,437.28h9.73v-26H46.85Zm3.24-22.72h3.25V434H50.1Z" transform="translate(0 0)" fill="#5d56c4"/>
      </g>
      <circle id="Ellipse_387" data-name="Ellipse 387" cx="28.45" cy="431.07" r="28.45" opacity="0.3" fill="url(#linear-gradient-3)" style="isolation: isolate"/>
    </g>
    <g id="Group_7243" data-name="Group 7243">
      <g id="Ecommerce-transfer_money-buy-smartphone-hands" data-name="Ecommerce-transfer money-buy-smartphone-hands">
        <path id="Path_3221" data-name="Path 3221" d="M310.12,468.81l2.15,2.15,6.09-6.09a1.51,1.51,0,0,0,0-2.15h0l-6.09-6.09-2.15,2.15,3.49,3.49H296v3.05h17.64Z" transform="translate(0 0)" fill="#f79256"/>
        <path id="Path_3222" data-name="Path 3222" d="M301,483.14l2.15-2.15-3.49-3.49h17.64v-3H299.65l3.49-3.5L301,468.81l-6.09,6.09a1.53,1.53,0,0,0,0,2.15h0Z" transform="translate(0 0)" fill="#f79256"/>
        <path id="Path_3223" data-name="Path 3223" d="M317,494.51a15,15,0,0,1-13.45-3.3,5.42,5.42,0,0,0-2,.35,5.87,5.87,0,0,0-1.92,1.12,6.09,6.09,0,0,0-5.22-3,6.19,6.19,0,0,0-3.05.84v-25.2a6.09,6.09,0,0,0-6.09-6.09h0a5.92,5.92,0,0,0-3,.84v-5.41a4.57,4.57,0,0,0-4.57-4.56H241.16a4.57,4.57,0,0,0-4.57,4.56v30.46h-1.52a7.61,7.61,0,0,0-7.62,7.61h0V499l3.05,31.91v9.06a1.52,1.52,0,0,0,1.52,1.52h33.5a1.53,1.53,0,0,0,1.53-1.52v-8.65l5.66-8.1H276L277.7,528v11.92a1.52,1.52,0,0,0,1.53,1.52h30.45a1.52,1.52,0,0,0,1.52-1.52V528l7-19.58a10.66,10.66,0,0,0,.62-3.58v-6a6.09,6.09,0,0,0-1.78-4.31Zm-53,43.9H233.55v-6.09H264Zm.73-9.14H233.41l-2.91-30.45v-6.09a4.59,4.59,0,0,1,4.57-4.57h10.66a4.57,4.57,0,0,1,.13,9.14h-7.75a1.52,1.52,0,0,0-1.52,1.52v19.79a4.58,4.58,0,0,0,4.57,4.57H269Zm-23.57-9.13a1.52,1.52,0,0,1-1.52-1.53v-4.56H267v-3h-27.4V500.34h6.09a7.61,7.61,0,0,0,0-15.22h-6.09V454.66a1.52,1.52,0,0,1,1.52-1.52H277.7a1.52,1.52,0,0,1,1.52,1.52V486a6,6,0,0,0-3.06-.85,6.09,6.09,0,0,0-6.07,6.08v13.65a10.77,10.77,0,0,0,.62,3.6l4.17,11.69Zm44.15,18.27h-4.57v-9.15h4.57Zm7.62,0h-4.57v-9.15h4.57Zm7.61,0H296v-9.15h4.57Zm7.61,0h-4.57v-9.15h4.57Zm7.62-33.56a8,8,0,0,1-.45,2.56l-6.71,18.82H280.29l-6.72-18.8a8.08,8.08,0,0,1-.44-2.58V491.2a3,3,0,1,1,6.09,0h0v12.18h3V465.33a3,3,0,1,1,6.09,0h0v38.06h3v-7.61a3,3,0,1,1,6.09,0h0v7.61h3.05V497.3a3,3,0,0,1,.9-2.14,2.72,2.72,0,0,1,1.17-.74,2.9,2.9,0,0,1,1-.16,3.05,3.05,0,0,1,3.05,3v7.62h3v-6.09a3,3,0,1,1,6.09,0h0Z" transform="translate(0 0)" fill="#f79256"/>
        <path id="Path_3224" data-name="Path 3224" d="M259.43,456.18a15.23,15.23,0,1,0,15.23,15.23,15.23,15.23,0,0,0-15.23-15.23Zm0,27.41a12.18,12.18,0,1,1,12.18-12.18h0A12.18,12.18,0,0,1,259.43,483.59Z" transform="translate(0 0)" fill="#f79256"/>
        <path id="Path_3225" data-name="Path 3225" d="M264,474.46a4.59,4.59,0,0,1-3.05,4.29v1.8h-3v-1.8a4.59,4.59,0,0,1-3.05-4.29h3.05a1.52,1.52,0,1,0,1.52-1.53h0a4.57,4.57,0,0,1-1.52-8.86v-1.8h3v1.8a4.59,4.59,0,0,1,3.05,4.3H261a1.52,1.52,0,1,0-1.52,1.52h0A4.59,4.59,0,0,1,264,474.46Z" transform="translate(0 0)" fill="#f79256"/>
      </g>
      <circle id="Ellipse_388" data-name="Ellipse 388" cx="255.95" cy="512.57" r="34.95" opacity="0.3" fill="url(#linear-gradient-4)" style="isolation: isolate"/>
    </g>
    <g id="Group_7248" data-name="Group 7248">
      <circle id="Ellipse_390" data-name="Ellipse 390" cx="447.45" cy="418.07" r="28.45" opacity="0.3" fill="url(#linear-gradient-5)" style="isolation: isolate"/>
      <g id="Group_7245" data-name="Group 7245">
        <g id="Group_7244" data-name="Group 7244">
          <path id="Path_3226" data-name="Path 3226" d="M475.78,389.28H449.3a1.4,1.4,0,0,0-.18,2.8h26.66a1.4,1.4,0,0,0,0-2.8Z" transform="translate(0 0)" fill="#24afa0"/>
          <path id="Path_3227" data-name="Path 3227" d="M475.78,397.82H449.3a1.4,1.4,0,1,0-.18,2.79h26.66a1.4,1.4,0,0,0,0-2.79Z" transform="translate(0 0)" fill="#24afa0"/>
          <path id="Path_3228" data-name="Path 3228" d="M451.84,452.32h-6.73a1.4,1.4,0,0,0,0,2.79h6.73a1.4,1.4,0,0,0,0-2.79Z" transform="translate(0 0)" fill="#24afa0"/>
          <path id="Path_3229" data-name="Path 3229" d="M465.9,452.32h-6.72a1.4,1.4,0,0,0,0,2.79h6.72a1.4,1.4,0,0,0,0-2.79Z" transform="translate(0 0)" fill="#24afa0"/>
          <path id="Path_3230" data-name="Path 3230" d="M480,452.32h-6.72a1.4,1.4,0,0,0-1.3,1.49,1.38,1.38,0,0,0,1.3,1.3H480a1.4,1.4,0,0,0,0-2.79Z" transform="translate(0 0)" fill="#24afa0"/>
          <path id="Path_3231" data-name="Path 3231" d="M451.84,458.6h-6.73a1.4,1.4,0,0,0-.18,2.8h6.91a1.4,1.4,0,0,0,.18-2.8Z" transform="translate(0 0)" fill="#24afa0"/>
          <path id="Path_3232" data-name="Path 3232" d="M465.9,458.6h-6.72a1.4,1.4,0,0,0-.19,2.8h6.91a1.4,1.4,0,0,0,.19-2.8Z" transform="translate(0 0)" fill="#24afa0"/>
          <path id="Path_3233" data-name="Path 3233" d="M480,458.6h-6.72a1.4,1.4,0,0,0,0,2.8H480a1.4,1.4,0,0,0,0-2.8Z" transform="translate(0 0)" fill="#24afa0"/>
          <path id="Path_3234" data-name="Path 3234" d="M451.84,464.89h-6.73a1.4,1.4,0,0,0,0,2.79h6.73a1.4,1.4,0,0,0,0-2.79Z" transform="translate(0 0)" fill="#24afa0"/>
          <path id="Path_3235" data-name="Path 3235" d="M465.9,464.89h-6.72a1.4,1.4,0,0,0-.19,2.79h6.91a1.4,1.4,0,1,0,.19-2.79Z" transform="translate(0 0)" fill="#24afa0"/>
          <path id="Path_3236" data-name="Path 3236" d="M480,464.89h-6.72a1.4,1.4,0,0,0-1.3,1.49,1.38,1.38,0,0,0,1.3,1.3H480a1.4,1.4,0,0,0,0-2.79Z" transform="translate(0 0)" fill="#24afa0"/>
          <path id="Path_3237" data-name="Path 3237" d="M484.2,417.48a2.93,2.93,0,0,0-2.91-2.91h-37.5a2.92,2.92,0,0,0-2.91,2.91v4a1.4,1.4,0,1,0,2.8.18v-4.2a.11.11,0,0,1,.11-.11h37.5a.11.11,0,0,1,.11.11h0v14.58a.11.11,0,0,1-.11.11H443.8a.11.11,0,0,1-.12-.11h0v-4a1.4,1.4,0,0,0-2.8,0v4A2.93,2.93,0,0,0,443.8,435h37.49a2.93,2.93,0,0,0,2.91-2.91Z" transform="translate(0 0)" fill="#24afa0"/>
          <path id="Path_3238" data-name="Path 3238" d="M453.79,441.11a2.79,2.79,0,0,0-2.79-2.79h-6.85a2.79,2.79,0,0,0-2.79,2.79,2.88,2.88,0,0,0,.07.65l.92,3.82a2.76,2.76,0,0,0,2.71,2.14H451a2.8,2.8,0,0,0,2.79-2.79Zm-8.73,3.82-.91-3.82H451v3.82Z" transform="translate(0 0)" fill="#24afa0"/>
          <path id="Path_3239" data-name="Path 3239" d="M468.94,444.93v-3.82a2.79,2.79,0,0,0-2.79-2.79h-7.22a2.79,2.79,0,0,0-2.79,2.79v3.82a2.79,2.79,0,0,0,2.79,2.79h7.22A2.79,2.79,0,0,0,468.94,444.93Zm-10,0v-3.82h7.22v3.82Z" transform="translate(0 0)" fill="#24afa0"/>
          <path id="Path_3240" data-name="Path 3240" d="M482.73,445.58l.92-3.83a2.77,2.77,0,0,0-2.72-3.43h-6.85a2.79,2.79,0,0,0-2.79,2.79v3.82a2.79,2.79,0,0,0,2.79,2.79H480a2.76,2.76,0,0,0,2.71-2.14Zm-2.71-.65h-5.94v-3.82h6.85Z" transform="translate(0 0)" fill="#24afa0"/>
          <path id="Path_3241" data-name="Path 3241" d="M503.62,394.09h-7.57V387.6a7.07,7.07,0,0,0-7.1-6.85H447.9a7.47,7.47,0,0,0-7.47,7.47v11.95a8.39,8.39,0,0,0-7.12,8.28V427.1c0,10.48,1.85,13.3,1.85,23.52V469a7.1,7.1,0,0,0,7.1,7.1h40.57a7.1,7.1,0,0,0,7.1-7.1v-5.73a1.4,1.4,0,0,0-2.8,0V469a4.31,4.31,0,0,1-4.3,4.3H442.26A4.31,4.31,0,0,1,438,469v-18.4c0-10.44-1.85-13.34-1.85-23.52V408.45a5.58,5.58,0,0,1,4.32-5.44v3.57a3.64,3.64,0,0,0,3.64,3.64H481a3.64,3.64,0,0,0,3.64-3.64V403a5.58,5.58,0,0,1,4.32,5.44V427.1c0,10.18-1.84,13.08-1.84,23.52v6a1.39,1.39,0,0,0,1.48,1.3,1.41,1.41,0,0,0,1.31-1.3v-6c0-10.17,1.85-13.1,1.85-23.52V414.45h8.58a7.11,7.11,0,0,0,7.1-7.1v-9.44a3.83,3.83,0,0,0-3.83-3.82Zm-21.76,12.5a.85.85,0,0,1-.85.84H444.07a.85.85,0,0,1-.85-.84V388.22a4.69,4.69,0,0,1,4.69-4.68h35.4a7,7,0,0,0-1.46,4.3Zm9.91,5.07v-3.21a8.39,8.39,0,0,0-7.12-8.28V387.85a4.3,4.3,0,1,1,8.6-.18v19.68a7,7,0,0,0,1.46,4.3Zm12.88-4.3a4.31,4.31,0,0,1-8.61,0h0V396.88h7.58a1,1,0,0,1,1,1Z" transform="translate(0 0)" fill="#24afa0"/>
        </g>
      </g>
    </g>
    <g id="Group_7247" data-name="Group 7247">
      <circle id="Ellipse_389" data-name="Ellipse 389" cx="436.45" cy="113.07" r="28.45" opacity="0.3" fill="url(#linear-gradient-6)" style="isolation: isolate"/>
      <g id="Group_7246" data-name="Group 7246">
        <path id="Path_3242" data-name="Path 3242" d="M448.84,77a1.74,1.74,0,0,0-.6,0,4,4,0,0,1-3.54-4,1.77,1.77,0,0,0-3.53,0h0a7.56,7.56,0,0,0,5.54,7.26v1.76a1.76,1.76,0,1,0,3.52,0h0V80.39a7.52,7.52,0,0,0-1.54-14.88,4,4,0,1,1,4-4,1.76,1.76,0,0,0,3.52,0,7.52,7.52,0,0,0-6-7.35v-1.6a1.76,1.76,0,1,0-3.52,0v1.71a7.51,7.51,0,0,0,2,14.76,4,4,0,0,1,.15,8Z" transform="translate(0 0)" fill="#5d56c4"/>
        <path id="Path_3243" data-name="Path 3243" d="M423.16,67.41a25.53,25.53,0,1,0,25.53-25.53h0a25.53,25.53,0,0,0-25.53,25.53Zm25.53-22a22,22,0,1,1-22,22h0a22,22,0,0,1,22-22Z" transform="translate(0 0)" fill="#5d56c4"/>
        <path id="Path_3244" data-name="Path 3244" d="M482.9,97.28l-13.79,6.52a11.26,11.26,0,0,0-9.58-5.91l-12.73-.35A13.55,13.55,0,0,1,441,96.05l-1.3-.67a22.86,22.86,0,0,0-21.17,0l.08-2.93a1.76,1.76,0,0,0-1.71-1.81h0l-14-.38A1.76,1.76,0,0,0,401.15,92h0l-.84,30.63a1.75,1.75,0,0,0,1.71,1.81h0l14,.39h0a1.75,1.75,0,0,0,1.76-1.72l0-1.46,3.62-1.94a6.22,6.22,0,0,1,4.65-.51l21.65,6.08.12,0a23,23,0,0,0,4.76.5,23.44,23.44,0,0,0,9.81-2.15,1.19,1.19,0,0,0,.22-.12l31.4-20.31a1.75,1.75,0,0,0,.57-2.34,8.88,8.88,0,0,0-11.74-3.58Zm-79,23.67.75-27.11,10.44.28-.75,27.12Zm57-.46a20,20,0,0,1-12.21,1.36l-21.6-6.06a9.73,9.73,0,0,0-7.25.79l-1.86,1,.5-18a19.34,19.34,0,0,1,19.66-1l1.3.67a17.06,17.06,0,0,0,7.31,1.89l12.73.35a7.72,7.72,0,0,1,7.34,6.15l-19-.52a1.76,1.76,0,1,0-.17,3.51h.07l20.92.57h.05a1.76,1.76,0,0,0,1.76-1.71,10.9,10.9,0,0,0-.17-2.28l14.15-6.69,0,0a5.38,5.38,0,0,1,6.08.86Z" transform="translate(0 0)" fill="#5d56c4"/>
        <path id="Path_3245" data-name="Path 3245" d="M450.45,36.93V20.21a1.76,1.76,0,1,0-3.52,0V36.93a1.76,1.76,0,1,0,3.52,0Z" transform="translate(0 0)" fill="#5d56c4"/>
        <path id="Path_3246" data-name="Path 3246" d="M463.65,36.93V29a1.76,1.76,0,1,0-3.52,0v7.92a1.76,1.76,0,1,0,3.52,0Z" transform="translate(0 0)" fill="#5d56c4"/>
        <path id="Path_3247" data-name="Path 3247" d="M437.25,36.93V29a1.77,1.77,0,0,0-3.53,0v7.92a1.77,1.77,0,0,0,3.53,0Z" transform="translate(0 0)" fill="#5d56c4"/>
      </g>
    </g>
    <g id="Group_7238" data-name="Group 7238">
      <path id="Path_1" data-name="Path 1" d="M206.84,231V358.79C236.51,270.32,332,312.85,332,231a62.58,62.58,0,1,0-125.16,0Zm31.33,44.4V231a31.25,31.25,0,0,1,62.5-.56V231c0,32.87-38.23,30.92-62.5,44.4Z" transform="translate(0 0)" fill="#2bc5b4" fill-rule="evenodd"/>
      <g id="Group_4" data-name="Group 4">
        <g clip-path="url(#clip-path)">
          <g id="Group_3" data-name="Group 3">
            <g id="Group_2" data-name="Group 2">
              <g clip-path="url(#clip-path-2)">
                <g id="Group_1" data-name="Group 1">
                  <path id="Rectangle_1" data-name="Rectangle 1" d="M205.45,236.26h34.24v60.38H205.45Z" transform="translate(0 0)" fill="url(#pattern)"/>
                </g>
              </g>
            </g>
          </g>
        </g>
      </g>
    </g>
  </g>
</svg>
