<svg width="162" height="154" viewBox="0 0 162 154" fill="none" xmlns="http://www.w3.org/2000/svg">
<path d="M113.311 69.6638C116.033 88.5497 112.712 106.424 105.213 120.046C97.7141 133.668 86.0957 142.962 72.1958 144.965C58.2959 146.968 44.5262 141.333 33.4867 130.382C22.4466 119.431 14.214 103.222 11.4925 84.3361C8.77106 65.4503 12.0922 47.5764 19.5911 33.9536C27.0896 20.3316 38.7081 11.0378 52.6079 9.03475C66.5078 7.03175 80.2775 12.6671 91.317 23.6177C102.357 34.569 110.59 50.778 113.311 69.6638Z" stroke="#2BC5B4" stroke-width="3"/>
<path d="M111.056 85.5815L111.055 85.5858C110.685 91.9529 109.493 98.2453 107.51 104.307L107.506 104.319C105.275 111.332 101.663 117.827 96.8825 123.423C91.1226 130.006 83.8558 134.307 75.661 135.507C74.3056 135.7 72.9392 135.806 71.5702 135.823L71.5689 135.823C60.4889 135.975 49.635 130.291 40.9202 120.458C32.211 110.632 25.7226 96.7415 23.4184 80.7486C20.9836 63.7791 23.7295 47.7523 30.069 35.5798C36.4099 23.4045 46.273 15.1922 58.0807 13.5059L58.083 13.5055C65.1246 12.4888 72.1311 13.8836 78.6641 17.2683L78.6663 17.2694C88.0875 22.1303 96.5161 31.128 102.447 42.8712C106.427 50.8478 109.088 59.4169 110.325 68.2451L110.327 68.2538C111.165 73.9892 111.41 79.7959 111.056 85.5815Z" stroke="#2BC5B4" stroke-width="3"/>
<path d="M77.3931 77.2126L74.1865 106.423C74.1865 106.423 84.4423 105.462 87.4369 100.334L77.9828 76.7223L77.3931 77.2126Z" fill="#2BC5B4"/>
<path d="M77.3931 77.2126L74.1865 106.423C74.1865 106.423 84.4423 105.462 87.4369 100.334L77.9828 76.7223L77.3931 77.2126Z" fill="#2BC5B4"/>
<path d="M32.2691 76.2387L48.4014 75.1522C48.4014 75.1522 50.0776 87.4088 55.1724 94.3056L43.7174 106.761C43.7174 106.761 31.8385 87.8328 32.2691 76.2387Z" fill="#2BC5B4"/>
<path d="M73.188 73.9682L72.8247 73.6247L72.4862 73.9927L35.8533 113.827L35.5148 114.195L35.8781 114.538L36.3445 114.979L36.7078 115.323L37.0463 114.955L73.6793 75.1209L74.0177 74.7528L73.6544 74.4093L73.188 73.9682Z" fill="#2BC5B4" stroke="#2BC5B4"/>
<path d="M22.2272 77.0889L22.267 77.5833L22.7617 77.5474L74.163 73.82L74.6661 73.7835L74.6252 73.2807L74.5738 72.6478L74.5336 72.1538L74.0393 72.1896L22.638 75.9107L22.1352 75.9471L22.1757 76.4495L22.2272 77.0889Z" fill="#2BC5B4" stroke="#2BC5B4"/>
<path d="M102.963 42.2719L98.3852 47.8238C87.0627 26.1528 77.6152 24.9338 77.6152 24.9338L78.5295 16.003C88.3016 21.0448 96.9343 30.3068 102.963 42.2719Z" fill="#2BC5B4"/>
<path d="M53.6946 49.0557L74.5904 70.9188L73.1262 71.5349L48.8251 61.9814C48.8251 61.9814 50.7729 54.2101 53.6946 49.0557Z" fill="#2BC5B4"/>
<path d="M24.7324 50.8214L24.2679 50.6363L24.0872 51.1026L23.854 51.7045L23.6733 52.1707L24.1378 52.3558L72.6713 71.6917L73.1358 71.8767L73.3165 71.4105L73.5497 70.8086L73.7304 70.3424L73.2659 70.1573L24.7324 50.8214Z" fill="#2BC5B4" stroke="#2BC5B4"/>
<path d="M79.1224 72.734L96.1624 70.3225C96.1624 70.3225 97.3615 77.3717 96.7255 79.4321C96.7053 79.4954 96.6809 79.5574 96.6527 79.6176L79.1224 72.734Z" fill="#2BC5B4"/>
<path d="M40.2654 35.4342C40.2654 35.4342 47.3874 25.1453 56.2586 22.4158L64.1028 41.1717C64.1028 41.1717 56.4573 44.0006 53.7807 49.6453L40.2654 35.4342Z" fill="#2BC5B4"/>
<path d="M75.8349 69.6959L76.6889 69.8062L76.3614 69.0098L76.0382 68.224C75.9907 67.8464 75.9764 67.1036 75.9993 66.0167C76.0231 64.8877 76.0859 63.4258 76.1809 61.6976C76.371 58.2419 76.6894 53.7353 77.0809 48.7262C77.8637 38.7086 78.9376 26.6916 79.8572 17.0743L79.9045 16.5792L79.4097 16.5292L78.7665 16.4643L78.268 16.4139L78.2187 16.9125C78.2056 17.0448 76.9704 29.977 75.9088 42.7666C74.959 54.2028 74.5414 60.6725 74.4079 64.3361L53.378 14.0659L53.1834 13.6007L52.7199 13.7992L52.1281 14.0526L51.6723 14.2478L51.8637 14.7053L74.5218 68.8559C74.5753 69.069 74.6592 69.2711 74.812 69.4193C74.9858 69.5878 75.1796 69.6227 75.3079 69.6278L75.8349 69.6959Z" fill="#2BC5B4" stroke="#2BC5B4"/>
<path d="M34.7734 28.1847L34.4274 27.8237L34.0713 28.1746L33.6139 28.6253L33.2577 28.9762L33.6037 29.3372L72.9269 70.369L73.2729 70.73L73.629 70.379L74.0864 69.9283L74.4426 69.5774L74.0966 69.2164L34.7734 28.1847Z" fill="#2BC5B4" stroke="#2BC5B4"/>
<path d="M91.7629 55.5285L98.8983 47.4458C98.8983 47.4458 105.676 64.1611 104.914 69.13L96.4403 70.3225C96.4403 70.3225 93.3927 55.979 91.7629 55.5285Z" fill="#2BC5B4"/>
<path d="M102.451 41.9911L102.079 41.6565L101.75 42.0327L77.6217 69.5797L77.2923 69.9558L77.6638 70.2904L78.1407 70.7199L78.5122 71.0545L78.8417 70.6784L102.97 43.1313L103.299 42.7552L102.928 42.4206L102.451 41.9911Z" fill="#2BC5B4" stroke="#2BC5B4"/>
<path d="M92.6698 55.4422L92.672 55.4464C94.9164 59.8327 96.4135 64.5626 97.1018 69.4413C97.1202 69.5049 97.1293 69.5635 97.1342 69.6117C97.1406 69.6737 97.1413 69.7319 97.1417 69.7673L97.1417 69.7685C97.1419 69.7864 97.1421 69.799 97.1423 69.8081C97.2105 69.9839 97.2125 70.1497 97.2122 70.242L97.2485 70.5623C97.2485 70.5627 97.2486 70.5631 97.2486 70.5635C97.5979 73.5382 97.6517 76.5402 97.4092 79.5255L97.4091 79.5278L97.3494 80.2234L97.3491 80.2267C97.0339 83.637 96.2808 86.9924 95.1082 90.2102L95.1051 90.2187L95.1017 90.2272C95.0688 90.308 95.0314 90.4024 94.9925 90.5009C94.9417 90.6291 94.8883 90.7642 94.8384 90.8854C93.4319 94.5871 91.2887 97.9649 88.5387 100.814M92.6698 55.4422L88.1789 100.467M92.6698 55.4422L92.6679 55.4386C92.5998 55.3086 92.5274 55.1703 92.4482 55.0307M92.6698 55.4422L92.4482 55.0307M88.5387 100.814L88.1789 100.467M88.5387 100.814C88.5389 100.814 88.5391 100.814 88.5393 100.814L88.1789 100.467M88.5387 100.814C88.3663 100.993 88.1887 101.164 88.0137 101.326M88.1789 100.467C88.0133 100.639 87.841 100.805 87.6688 100.964M88.0137 101.326C88.0156 101.324 88.0175 101.322 88.0194 101.32L87.6688 100.964M88.0137 101.326C85.0708 104.219 81.296 106.119 77.2188 106.758L77.2131 106.759C76.4184 106.874 75.6168 106.936 74.8138 106.943L74.8093 106.943L74.1468 106.943H74.1354L74.1354 106.943C73.9941 106.94 73.8532 106.931 73.7247 106.922L73.679 106.92C73.5339 106.91 73.4039 106.903 73.2789 106.903H73.2611L73.2433 106.902C66.5591 106.425 60.2323 102.397 55.5327 96.1496M88.0137 101.326C88.0118 101.328 88.0098 101.33 88.0079 101.331L87.6688 100.964M87.6688 100.964L55.5327 96.1496M55.5327 96.1496C55.5345 96.1517 55.5362 96.1539 55.5379 96.156L55.9275 95.8426L55.5279 96.1431C55.5295 96.1453 55.5311 96.1474 55.5327 96.1496ZM55.5327 96.1496C55.2797 95.8344 55.0431 95.4964 54.8203 95.1691M55.5327 96.1496L55.2253 94.8754M54.8203 95.1691C54.8238 95.1736 54.8272 95.178 54.8306 95.1823L55.2253 94.8754M54.8203 95.1691C54.8175 95.1649 54.8146 95.1607 54.8118 95.1565L55.2253 94.8754M54.8203 95.1691C54.7396 95.0639 54.6419 94.9211 54.5886 94.8432C54.5748 94.8232 54.564 94.8074 54.5573 94.7977C54.5512 94.7891 54.5429 94.7776 54.5331 94.764C54.5005 94.7188 54.4513 94.6506 54.412 94.5867M55.2253 94.8754C55.1538 94.7835 55.0667 94.6563 55.0092 94.5724C54.992 94.5474 54.9775 94.5262 54.9669 94.511C54.9532 94.4914 54.9395 94.4725 54.926 94.4537C54.8937 94.409 54.8624 94.3655 54.8344 94.3188M54.412 94.5867C54.4138 94.5894 54.4156 94.592 54.4174 94.5947L54.8344 94.3188M54.412 94.5867C50.8375 89.1814 48.5256 83.0406 47.6478 76.6199M54.412 94.5867C54.4099 94.5831 54.4077 94.5796 54.4056 94.5761L54.8344 94.3188M54.8344 94.3188L47.6478 76.6199M47.6478 76.6199C47.6477 76.6192 47.6476 76.6185 47.6475 76.6178L48.1429 76.5501L47.6481 76.6221C47.648 76.6214 47.6479 76.6207 47.6478 76.6199ZM92.4482 55.0307C92.413 54.9532 92.3728 54.8782 92.3278 54.8059C88.7225 48.1117 83.5344 43.0755 77.7073 40.6847C77.4836 40.587 77.2618 40.5039 77.0183 40.4225C73.9891 39.2662 70.7165 38.8954 67.5053 39.3448L67.5041 39.345C66.3137 39.5145 65.1431 39.8019 64.0096 40.2028C63.9102 40.2291 63.8129 40.2627 63.7184 40.3031L63.3538 40.4375L63.3449 40.4408L63.3361 40.4444C59.2559 42.1258 55.7691 44.9846 53.3205 48.656L53.2497 48.7591L53.2497 48.7591L53.2472 48.7628L53.0645 49.0337C53.0169 49.0955 52.9731 49.16 52.9332 49.227C52.6544 49.6456 52.3794 50.0751 52.1166 50.5266C51.8587 50.9695 51.6196 51.3859 51.3799 51.8783C49.8663 54.7856 48.76 57.8875 48.0923 61.0965C48.0376 61.3229 47.9901 61.5541 47.9496 61.7769C47.1241 66.0854 46.948 70.4931 47.4271 74.8537C47.4271 74.8544 47.4272 74.855 47.4273 74.8557L47.464 75.2165C47.4638 75.2884 47.4653 75.4235 47.5072 75.5671L92.4482 55.0307ZM93.6901 89.3686L93.6884 89.3733C93.6112 89.5987 93.5298 89.817 93.4509 89.9992L93.4455 90.0117L93.4407 90.0245C92.1429 93.5332 90.1513 96.7444 87.5849 99.4663C87.4181 99.6398 87.2633 99.8005 87.1044 99.9472L87.0968 99.9542L87.0895 99.9616C84.363 102.695 80.8358 104.489 77.0204 105.081C76.3224 105.184 75.6182 105.239 74.9126 105.247H74.2578C67.6568 105.11 61.2715 101.126 56.5451 94.6426C56.5446 94.6419 56.5441 94.6412 56.5436 94.6405L56.1359 94.0684L56.1356 94.068C56.0077 93.8888 55.8881 93.7125 55.776 93.5318L55.7761 93.5317L55.7691 93.521C52.3741 88.3507 50.1798 82.4859 49.3473 76.3569L49.3473 76.3569L49.3462 76.3496C49.2955 76.0134 49.2509 75.677 49.2124 75.3464C49.2103 75.2086 49.194 75.0802 49.1787 74.973C49.1739 74.9397 49.1694 74.9092 49.1652 74.8807C49.1534 74.8016 49.1439 74.7375 49.1378 74.6697L49.1379 74.6697L49.1368 74.6601C48.6774 70.4971 48.8384 66.289 49.6148 62.1734L49.6148 62.1734L49.6158 62.1676C49.6556 61.9423 49.693 61.7376 49.7419 61.536L49.744 61.5273L49.7458 61.5184C50.3806 58.4161 51.4458 55.4178 52.9103 52.6102L53.3435 51.8161C53.5477 51.4556 53.7649 51.1083 53.9826 50.7601C54.0899 50.5887 54.1972 50.417 54.3032 50.2434C54.4022 50.0916 54.4935 49.952 54.5895 49.8201L54.6066 49.7965L54.6209 49.771C54.6327 49.7501 54.6458 49.7299 54.6601 49.7106L54.668 49.6998L54.6754 49.6886C56.9487 46.2403 60.2042 43.5533 64.0208 41.975L64.6296 41.7483C66.8077 40.9964 69.1153 40.6926 71.4138 40.8554C73.2046 40.9908 74.9661 41.3861 76.643 42.0289C76.6434 42.029 76.6439 42.0292 76.6443 42.0294L77.2982 42.2844C82.7181 44.563 87.6006 49.3695 91.0168 55.8027L91.0167 55.8027L91.02 55.8086C91.1272 56.0042 91.229 56.2077 91.3358 56.4212L91.3358 56.4212C93.427 60.6025 94.8207 65.0975 95.4616 69.7285L95.4622 69.7329L95.5165 70.1003V70.1008V70.1013V70.1018V70.1022V70.1027V70.1032V70.1037V70.1041V70.1046V70.1051V70.1056V70.106V70.1065V70.107V70.1075V70.1079V70.1084V70.1089V70.1094V70.1099V70.1103V70.1108V70.1113V70.1118V70.1122V70.1127V70.1132V70.1137V70.1142V70.1146V70.1151V70.1156V70.1161V70.1166V70.117V70.1175V70.118V70.1185V70.119V70.1194V70.1199V70.1204V70.1209V70.1214V70.1218V70.1223V70.1228V70.1233V70.1238V70.1242V70.1247V70.1252V70.1257V70.1262V70.1266V70.1271V70.1276V70.1281V70.1286V70.129V70.1295V70.13V70.1305V70.131V70.1314V70.1319V70.1324V70.1329V70.1334V70.1339V70.1343V70.1348V70.1353V70.1358V70.1363V70.1367V70.1372V70.1377V70.1382V70.1387V70.1392V70.1396V70.1401V70.1406V70.1411V70.1416V70.1421V70.1425V70.143V70.1435V70.144V70.1445V70.145V70.1454V70.1459V70.1464V70.1469V70.1474V70.1479V70.1483V70.1488V70.1493V70.1498V70.1503V70.1508V70.1512V70.1517V70.1522V70.1527V70.1532V70.1537V70.1541V70.1546V70.1551V70.1556V70.1561V70.1566V70.157V70.1575V70.158V70.1585V70.159V70.1595V70.1599V70.1604V70.1609V70.1614V70.1619V70.1624V70.1629V70.1633V70.1638V70.1643V70.1648V70.1653V70.1658V70.1662V70.1667V70.1672V70.1677V70.1682V70.1687V70.1692V70.1696V70.1701V70.1706V70.1711V70.1716V70.1721V70.1726V70.173V70.1735V70.174V70.1745V70.175V70.1755V70.1759V70.1764V70.1769V70.1774V70.1779V70.1784V70.1789V70.1793V70.1798V70.1803V70.1808V70.1813V70.1818V70.1823V70.1827V70.1832V70.1837V70.1842V70.1847V70.1852V70.1857V70.1861V70.1866V70.1871V70.1876V70.1881V70.1886V70.189V70.1895V70.19V70.1905V70.191V70.1915V70.192V70.1924V70.1929V70.1934V70.1939V70.1944V70.1949V70.1954V70.1958V70.1963V70.1968V70.1973V70.1978V70.1983V70.1988V70.1992V70.1997V70.2002V70.2007V70.2012V70.2017V70.2021V70.2026V70.2031V70.2036V70.2041V70.2046V70.2051V70.2055V70.206V70.2065V70.207V70.2075V70.208V70.2085V70.2089V70.2094V70.2099V70.2104V70.2109V70.2114V70.2118V70.2123V70.2128V70.2133V70.2138V70.2143V70.2148V70.2152V70.2157V70.2162V70.2167V70.2172V70.2177V70.2181V70.2186V70.2191V70.2196V70.2201V70.2206V70.221V70.2215V70.222V70.2225V70.223V70.2235V70.2239V70.2244V70.2249V70.2254V70.2259V70.2264V70.2268V70.2273V70.2278V70.2283V70.2288V70.2293V70.2297V70.2302V70.2307V70.2312V70.2317V70.2322V70.2326V70.2331V70.2336V70.2341V70.2346V70.2351V70.2355V70.236V70.2365V70.237V70.2375V70.2379V70.2384V70.2389V70.2394V70.2399V70.2404V70.2408V70.2413V70.2418V70.2423V70.2428V70.2432V70.2437V70.2442V70.2447V70.2452V70.2456V70.2461V70.2466V70.2471V70.2476V70.2481V70.2485V70.249V70.2495V70.25V70.2505V70.2509V70.2514V70.2519V70.2524V70.2529V70.2533V70.2538V70.2543V70.2548V70.2553V70.2557V70.2562V70.2567V70.2572V70.2576V70.2581V70.2586V70.2591V70.2596V70.26V70.2605V70.261V70.2615V70.262V70.2624V70.2629V70.2634V70.2639V70.2643V70.2648V70.2653V70.2658V70.2663V70.2667V70.2672V70.2677V70.2682V70.2686V70.2691V70.2696V70.2701V70.2705V70.271V70.2715V70.272V70.2724V70.2729V70.2734V70.2739V70.2743V70.2748V70.2753V70.2758V70.2762V70.2767V70.2772V70.2777V70.2781V70.2786V70.2791V70.2796V70.28V70.2805V70.281V70.2815V70.2819V70.2824V70.2829V70.2834V70.2838V70.2843V70.2848V70.2853V70.2857V70.2862V70.2867V70.2871V70.2876V70.2881V70.2886V70.289V70.2895V70.29V70.2904V70.2909V70.2914V70.2919V70.2923V70.2928V70.2933V70.2937V70.2942V70.2947V70.2952V70.2956V70.2961V70.2966V70.297V70.2975V70.298V70.2984V70.2989V70.2994V70.2999V70.3003V70.3008V70.3013V70.3017V70.3022V70.3027V70.3031V70.3036V70.3041V70.3045V70.305V70.3055V70.3059V70.3064V70.3069V70.3073V70.3078V70.3083V70.3087V70.3092C95.5165 70.3567 95.521 70.4052 95.5246 70.4398C95.5287 70.4781 95.534 70.5194 95.539 70.5576C95.541 70.5725 95.5429 70.5871 95.5448 70.6012C95.5533 70.6649 95.5606 70.72 95.5651 70.7674L95.5649 70.7674L95.5665 70.7806C95.907 73.5683 95.975 76.3826 95.7696 79.1835L95.7682 79.2017V79.2201V79.2205V79.2209V79.2213V79.2218V79.2222V79.2226V79.223V79.2235V79.2239V79.2243V79.2247V79.2252V79.2256V79.226V79.2265V79.2269V79.2273V79.2277V79.2282V79.2286V79.229V79.2294V79.2299V79.2303V79.2307V79.2312V79.2316V79.232V79.2324V79.2329V79.2333V79.2337V79.2341V79.2346V79.235V79.2354V79.2358V79.2363V79.2367V79.2371V79.2376V79.238V79.2384V79.2388V79.2393V79.2397V79.2401V79.2405V79.241V79.2414V79.2418V79.2422V79.2427V79.2431V79.2435V79.244V79.2444V79.2448V79.2452V79.2457V79.2461V79.2465V79.2469V79.2474V79.2478V79.2482V79.2486V79.2491V79.2495V79.2499V79.2504V79.2508V79.2512V79.2516V79.2521V79.2525V79.2529V79.2533V79.2538V79.2542V79.2546V79.255V79.2555V79.2559V79.2563V79.2567V79.2572V79.2576V79.258V79.2584V79.2589V79.2593V79.2597V79.2602V79.2606V79.261V79.2614V79.2619V79.2623V79.2627V79.2631V79.2636V79.264V79.2644V79.2648V79.2653V79.2657V79.2661V79.2665V79.267V79.2674V79.2678V79.2682V79.2687V79.2691V79.2695V79.2699V79.2704V79.2708V79.2712V79.2716V79.2721V79.2725V79.2729V79.2733V79.2738V79.2742V79.2746V79.275V79.2755V79.2759V79.2763V79.2767V79.2772V79.2776V79.278V79.2784V79.2789V79.2793V79.2797V79.2801V79.2805V79.281V79.2814V79.2818V79.2822V79.2827V79.2831V79.2835V79.2839V79.2844V79.2848V79.2852V79.2856V79.2861V79.2865V79.2869V79.2873V79.2878V79.2882V79.2886V79.289V79.2894V79.2899V79.2903V79.2907V79.2911V79.2916V79.292V79.2924V79.2928V79.2932V79.2937V79.2941V79.2945V79.2949V79.2954V79.2958V79.2962V79.2966V79.2971V79.2975V79.2979V79.2983V79.2987V79.2992V79.2996V79.3V79.3004V79.3008V79.3013V79.3017V79.3021V79.3025V79.303V79.3034V79.3038V79.3042V79.3046V79.3051V79.3055V79.3059V79.3063V79.3067V79.3072V79.3076V79.308V79.3084V79.3088V79.3093V79.3097V79.3101V79.3105V79.311V79.3114V79.3118V79.3122V79.3126V79.313V79.3135V79.3139V79.3143V79.3147V79.3151V79.3156V79.316V79.3164V79.3168V79.3172V79.3177V79.3181V79.3185V79.3189V79.3193V79.3198V79.3202V79.3206V79.321V79.3214V79.3219V79.3223V79.3227V79.3231V79.3235V79.3239V79.3244V79.3248V79.3252V79.3256V79.326V79.3265V79.3269V79.3273V79.3277V79.3281V79.3285V79.329V79.3294V79.3298V79.3302V79.3306V79.331V79.3315V79.3319V79.3323V79.3327V79.3331V79.3335V79.334V79.3344V79.3348V79.3352V79.3356V79.336V79.3365V79.3369V79.3373V79.3377V79.3381V79.3385V79.3389V79.3394V79.3398V79.3402V79.3406V79.341V79.3414V79.3419V79.3423V79.3427V79.3431V79.3435V79.3439V79.3443V79.3448V79.3452V79.3456V79.346V79.3464V79.3468V79.3472V79.3477V79.3481V79.3485V79.3489V79.3493V79.3497V79.3501V79.3505V79.351V79.3514V79.3518V79.3522V79.3526V79.353V79.3534V79.3538V79.3543V79.3547V79.3551V79.3555V79.3559V79.3563V79.3567V79.3571V79.3576V79.358V79.3584V79.3588V79.3592V79.3596V79.36V79.3604V79.3608V79.3612V79.3617V79.3621V79.3625V79.3629V79.3633V79.3637V79.3641V79.3645V79.3649V79.3653V79.3658V79.3662V79.3666V79.367V79.3674V79.3678V79.3682V79.3686V79.369V79.3694V79.3698V79.3703V79.3707V79.3711V79.3715V79.3719V79.3723V79.3727V79.3731V79.3735V79.3739V79.3743V79.3747V79.3751V79.3755V79.376V79.3764V79.3768V79.3772V79.3776V79.378V79.3784V79.3788V79.3792V79.3796V79.38V79.3804V79.3808V79.3812V79.3816V79.382V79.3824V79.3829V79.3833V79.3837V79.3841V79.3845V79.3849V79.3853V79.3857V79.3861V79.3865V79.3869V79.3873V79.3877V79.3881V79.3885V79.3889V79.3893V79.3897V79.3901V79.3905V79.3909V79.3913V79.3917V79.3921V79.3925V79.3929V79.3933V79.3937V79.3941V79.3945V79.3949V79.3953V79.3957V79.3961V79.3965V79.3969V79.3973V79.3977V79.3981V79.3985V79.3989V79.3993V79.3997V79.4001V79.4005V79.4009V79.4013V79.4017V79.4021V79.4025V79.4029V79.4033V79.4037V79.4041V79.4045V79.4049V79.4053V79.4057V79.4061V79.4065V79.4069V79.4073V79.4077V79.4081V79.4085V79.4089V79.4093V79.4097V79.4101V79.4105V79.4109V79.4113V79.4117V79.4121L95.7302 79.8742C95.4605 83.1135 94.7748 86.3045 93.6901 89.3686Z" fill="#2BC5B4" stroke="#2BC5B4"/>
<path d="M111.583 84.9048C111.205 91.4008 109.989 97.8207 107.966 104.005L101.161 97.1216C103.017 94.3258 104.156 82.2812 104.156 82.2812L104.547 82.5529C104.891 83.2882 108.655 84.2489 111.583 84.9048Z" fill="#2BC5B4"/>
<path d="M79.5462 74.3872L79.1942 74.0321L78.844 74.389L78.3942 74.8475L78.044 75.2044L78.3961 75.5595L106.774 104.184L107.126 104.539L107.476 104.182L107.926 103.724L108.276 103.367L107.924 103.012L79.5462 74.3872Z" fill="#2BC5B4" stroke="#2BC5B4"/>
<path d="M110.328 86.2325L110.797 86.4235L110.982 85.953L111.219 85.3514L111.401 84.8916L110.943 84.705L81.9024 72.8599L110.072 68.5906L110.566 68.5158L110.492 68.022L110.396 67.3816L110.321 66.8864L109.826 66.9615L77.5403 71.8585L75.7461 72.1306L77.4264 72.8158L110.328 86.2325Z" fill="#2BC5B4" stroke="#2BC5B4"/>
<path d="M97.9386 123.016C91.9759 129.833 84.3967 134.345 75.7972 135.604C74.377 135.806 72.9452 135.917 71.5107 135.935L72.902 122.022C72.902 122.022 85.6423 122.214 93.0227 111.932L97.9386 123.016Z" fill="#2BC5B4"/>
<path d="M78.5218 76.6976L78.331 76.2354L77.8707 76.4308L77.2824 76.6804L76.8221 76.8758L77.0129 77.3379L95.9749 123.28L96.1656 123.742L96.6259 123.547L97.2142 123.297L97.6745 123.102L97.4837 122.64L78.5218 76.6976Z" fill="#2BC5B4" stroke="#2BC5B4"/>
<path d="M76.2957 76.8734L75.7976 76.8295L75.755 77.3277L70.7866 135.378L70.744 135.877L71.242 135.92L71.8774 135.976L72.3755 136.02L72.4181 135.522L77.3865 77.4713L77.4292 76.9731L76.9311 76.9293L76.2957 76.8734Z" fill="#2BC5B4" stroke="#2BC5B4"/>
<path d="M104.276 77.3155C104.293 74.6521 104.162 71.9898 103.886 69.3414C103.883 69.1435 103.85 68.9379 103.824 68.7762C103.818 68.7356 103.811 68.6978 103.806 68.6636C103.749 68.1319 103.679 67.6016 103.604 67.0739C102.704 60.5555 100.892 54.2029 98.2242 48.2106V48.1493L98.1781 48.0495L97.9136 47.4771L97.9131 47.4761C93.2643 37.4685 86.4511 29.6216 78.6642 25.3003C78.5043 25.2053 78.3399 25.118 78.1876 25.0372L78.1848 25.0357L78.1835 25.035L78.0579 24.9678C78.057 24.9673 78.0561 24.9669 78.0553 24.9664C72.9558 22.1603 67.1177 21.0711 61.3748 21.8552L61.3748 21.8551L61.3695 21.8559C59.7716 22.0916 58.1991 22.4805 56.6728 23.0174L56.6728 23.0173L56.6655 23.02L56.0735 23.2387L56.0734 23.2386L56.0611 23.2435C50.8964 25.3084 46.3863 28.7795 43.0204 33.2779C42.3832 34.0982 41.7738 34.9528 41.1922 35.8416L41.1915 35.8427C41.0738 36.0198 40.9498 36.2064 40.8316 36.4009C37.2853 42.1434 34.8696 48.5364 33.7193 55.2221C33.6745 55.4391 33.6357 55.6568 33.6033 55.8812C32.4934 62.4672 32.3408 69.1843 33.1505 75.8156C33.1543 76.0053 33.1894 76.2109 33.2157 76.3651C33.2242 76.4152 33.2318 76.4599 33.2371 76.4968C33.2511 76.5936 33.2679 76.7283 33.287 76.8816L33.291 76.9136C33.3113 77.0768 33.3339 77.256 33.3566 77.4152C33.4244 77.8999 33.4983 78.3917 33.5784 78.8726V78.8729V78.8731V78.8734V78.8736V78.8739V78.8741V78.8744V78.8746V78.8749V78.8752V78.8754V78.8757V78.8759V78.8762V78.9159L33.5847 78.9552C33.8918 80.8758 34.2733 82.7394 34.7228 84.5705C34.7238 84.5975 34.7263 84.6244 34.7304 84.6511L34.7335 84.6709L34.7381 84.6905C36.5398 92.2859 39.7122 99.4722 44.0929 105.881C44.2145 106.064 44.3374 106.243 44.4739 106.428C45.7229 108.185 47.0819 109.857 48.5425 111.434C49.3968 112.359 50.2759 113.224 51.167 114.037M104.276 77.3155C104.272 79.115 104.204 80.8955 104.073 82.6568L104.07 82.7013L104.06 82.7395C104.06 82.7413 104.059 82.758 104.059 82.8103C104.059 82.8386 104.059 82.8868 104.056 82.936C104.053 82.986 104.045 83.0562 104.021 83.1326C104.015 83.1537 104.012 83.1774 104.012 83.2887V83.3093L104.01 83.3298C103.619 88.0618 102.674 92.7288 101.194 97.231C101.161 97.3505 101.122 97.4685 101.077 97.5844C101.043 97.7044 101.004 97.8227 100.959 97.939C100.231 100.056 99.3655 102.121 98.3671 104.12M104.276 77.3155C104.276 77.3158 104.276 77.316 104.276 77.3163L103.776 77.3132L104.276 77.3144C104.276 77.3148 104.276 77.3151 104.276 77.3155ZM98.3671 104.12C96.8408 107.217 94.9418 110.108 92.714 112.725L92.7071 112.733L92.707 112.733L92.4018 113.076C92.4014 113.077 92.401 113.077 92.4005 113.078C92.3944 113.085 92.3858 113.095 92.3754 113.107C92.3403 113.149 92.2845 113.215 92.2336 113.268C87.6003 118.467 81.889 121.721 75.5658 122.653L75.565 122.653C74.7135 122.777 73.8561 122.856 72.9965 122.889C72.8608 122.896 72.7249 122.896 72.5893 122.89H72.3441C71.5735 122.909 70.798 122.889 70.0302 122.837L70.0279 122.837C63.4278 122.358 56.9458 119.327 51.167 114.037M98.3671 104.12C98.367 104.12 98.3668 104.12 98.3667 104.121L97.9194 103.897L98.3679 104.118C98.3676 104.119 98.3674 104.119 98.3671 104.12ZM51.167 114.037C51.1669 114.037 51.1669 114.036 51.1668 114.036L51.5045 113.668L51.1676 114.037C51.1674 114.037 51.1672 114.037 51.167 114.037ZM102.454 82.9634L102.454 82.9713L102.453 82.9791C102.092 87.5485 101.199 92.0576 99.7927 96.4109L99.7923 96.4122C99.7238 96.6262 99.6515 96.8311 99.5755 97.0271L99.5715 97.0377L99.5678 97.0484C98.8437 99.2008 97.9729 101.299 96.9618 103.327L96.9609 103.329C95.5388 106.212 93.7802 108.908 91.7235 111.359L91.7234 111.359L91.7169 111.367C91.5805 111.536 91.4301 111.709 91.2763 111.878L91.2716 111.883C86.804 116.953 81.3647 120.1 75.3516 120.975L75.3514 120.975C74.5776 121.088 73.8041 121.163 73.0307 121.201L72.4132 121.201L72.4025 121.201C65.3844 121.353 58.3383 118.39 52.0902 112.594L52.0896 112.593C51.3002 111.863 50.5219 111.081 49.7544 110.259C48.3156 108.703 46.9759 107.054 45.7435 105.323L45.5642 105.058L45.5643 105.058L45.5597 105.051L45.3721 104.783C45.3718 104.783 45.3715 104.782 45.3713 104.782C40.074 97.1345 36.4405 87.5622 34.9703 77.1276L34.9695 77.1221C34.9279 76.8494 34.892 76.5759 34.8556 76.2969C34.8556 76.1954 34.8524 76.0301 34.7909 75.8504C34.7909 75.8493 34.791 75.848 34.7911 75.8466C34.7927 75.813 34.7977 75.7138 34.7724 75.6006C33.9816 69.1599 34.1196 62.6356 35.1821 56.2359C35.1823 56.235 35.1824 56.2342 35.1825 56.2334L35.2951 55.595L35.2956 55.5922C36.3993 49.1128 38.7298 42.916 42.1561 37.3487L42.1562 37.3487L42.1614 37.3399C42.2185 37.2427 42.2819 37.1424 42.352 37.0391L42.3627 37.0232L42.3723 37.0065C42.4066 36.9463 42.4477 36.8833 42.4902 36.8235L42.4966 36.8145L42.5026 36.8053C43.049 35.9618 43.6268 35.1496 44.2235 34.3751L44.2236 34.3752L44.2293 34.3674C47.436 30.036 51.7536 26.6978 56.7024 24.7216L57.1171 24.5698L57.1176 24.5697L57.2903 24.5067C58.7047 24.0124 60.1611 23.6543 61.6406 23.4371C63.3434 23.1891 65.067 23.1257 66.7829 23.2479C70.5448 23.5518 74.2036 24.6549 77.5249 26.4869L77.5319 26.4907L77.539 26.4944L77.6567 26.5545L78.1172 26.8116C82.4058 29.3042 86.2016 32.5931 89.309 36.5097L89.3107 36.5119C92.217 40.1343 94.6624 44.1184 96.5886 48.3691L96.5961 48.3857L96.6048 48.4017C96.6166 48.4235 96.6248 48.4427 96.6399 48.4782C96.6471 48.4952 96.6559 48.5159 96.6674 48.5424L96.6673 48.5424L96.6719 48.5524L96.878 48.9989C99.4381 54.8049 101.18 60.9522 102.053 67.2576L102.053 67.2599C102.127 67.7741 102.195 68.2815 102.256 68.7945C102.256 68.9075 102.258 69.0783 102.313 69.2635C102.307 69.2973 102.3 69.3473 102.3 69.4081V69.4361L102.303 69.4638C102.778 73.6983 102.86 77.9692 102.548 82.2195C102.511 82.4872 102.48 82.7352 102.454 82.9634Z" fill="#2BC5B4" stroke="#2BC5B4"/>
<path d="M77.0234 77.8609C78.8451 77.5984 80.0291 75.354 79.6679 72.8478C79.3068 70.3417 77.5373 68.5229 75.7156 68.7854C73.894 69.0479 72.71 71.2923 73.0711 73.7984C73.4323 76.3046 75.2018 78.1234 77.0234 77.8609Z" fill="#2BC5B4"/>
<path d="M76.3791 77.9538C78.5566 77.64 79.9719 74.9571 79.5402 71.9614C79.1086 68.9656 76.9934 66.7915 74.8158 67.1053C72.6383 67.4191 71.223 70.102 71.6547 73.0977C72.0864 76.0934 74.2016 78.2676 76.3791 77.9538Z" fill="#2BC5B4"/>
<path d="M134.031 39.7816L131.723 40.6528C131.723 40.6528 116.554 47.9722 111.523 49.8064C111.037 50.0523 110.502 50.1877 109.957 50.2029L112.613 54.3543L113.873 53.5505C118.296 50.7259 132.969 41.3995 135.513 40.4414C138.522 39.3116 134.031 39.7816 134.031 39.7816Z" fill="#2BC5B4"/>
<path d="M132.701 41.9097C132.701 41.9097 155.968 47.4272 155.985 39.2039C156.001 30.9806 149.088 32.1086 149.088 32.1086L132.701 41.9097Z" fill="#2BC5B4"/>
<path opacity="0.2" d="M132.701 41.9097C132.701 41.9097 155.968 47.4272 155.985 39.2039C156.001 30.9806 149.088 32.1086 149.088 32.1086L132.701 41.9097Z" fill="black"/>
<path d="M151.296 23.8506C151.296 23.8506 144.824 18.0525 131.698 40.6612L132.068 40.9069L133.178 41.6437C133.178 41.6437 161.053 44.5745 158.017 33.5299C157.532 32.1238 156.905 30.7705 156.147 29.4904C155.978 29.2131 155.752 28.9748 155.484 28.7914L155.369 28.7395C155.369 28.7395 155.312 28.5701 155.164 28.2984C154.654 27.1839 153.131 24.3559 151.296 23.8506Z" fill="#2BC5B4"/>
<path opacity="0.1" d="M151.296 23.8507C151.296 23.8507 144.824 18.0525 131.699 40.6613L132.068 40.9069L132.652 41.206L155.485 28.7914L155.369 28.7396C155.369 28.7396 155.312 28.5701 155.164 28.2984C154.654 27.184 153.131 24.3559 151.296 23.8507Z" fill="black"/>
<path opacity="0.1" d="M155.402 28.5048L131.936 40.8886L131.042 42.38L133.403 41.8752L156.366 29.7241C156.187 29.4038 155.919 29.1423 155.594 28.9711C155.594 28.9711 155.537 28.7807 155.402 28.5048Z" fill="black"/>
<path opacity="0.1" d="M154.983 28.073L131.511 40.4379L130.615 41.9231L132.971 41.4267L155.96 29.2671C155.781 28.9448 155.51 28.6833 155.182 28.5162C155.182 28.5162 155.116 28.3426 154.983 28.073Z" fill="black"/>
<path d="M155.189 28.2899L131.698 40.6613L130.802 42.1464L133.159 41.65L156.129 29.4968C155.944 29.1793 155.674 28.9194 155.35 28.7459C155.35 28.7459 155.324 28.5659 155.189 28.2899Z" fill="#4C4C56"/>
<path opacity="0.1" d="M111.523 49.8064C111.037 50.0523 110.502 50.1877 109.957 50.2029L112.613 54.3543L113.873 53.5505C113.248 52.2101 112.458 50.9525 111.523 49.8064Z" fill="black"/>
<path d="M113.577 55.3222L100.436 62.396C99.9583 62.6588 99.4321 62.8214 98.8894 62.8738C98.3468 62.9263 97.7991 62.8675 97.28 62.701C96.5817 62.5242 95.9412 62.1693 95.4209 61.6711C94.9006 61.1729 94.5183 60.5483 94.3114 59.8583C94.0993 58.9666 94.1976 58.0292 94.5901 57.201C94.9826 56.3727 95.6459 55.703 96.4704 55.3026L109.776 48.5926C109.776 48.5926 114.381 53.8961 113.577 55.3222Z" fill="#D1D9EC"/>
<path opacity="0.1" d="M74.5009 71.4467L78.7442 70.1796L95.8556 61.2385C95.9812 61.1733 96.0924 61.0834 96.1825 60.9743C96.2727 60.8651 96.3399 60.7389 96.3802 60.6033C96.4204 60.4676 96.433 60.3251 96.417 60.1845C96.401 60.0439 96.3568 59.9079 96.2871 59.7847C96.1512 59.5486 95.929 59.3743 95.6673 59.2985C95.4057 59.2227 95.1248 59.2512 94.8837 59.3781L77.4885 68.5551L74.5009 71.4467Z" fill="black"/>
<path d="M74.2859 71.6593L78.5208 70.388L95.6406 61.451C95.7641 61.3856 95.8733 61.2962 95.962 61.1881C96.0506 61.0801 96.1168 60.9554 96.1568 60.8215C96.1968 60.6875 96.2097 60.547 96.1948 60.408C96.1799 60.269 96.1375 60.1344 96.0701 60.0119C95.9356 59.7755 95.7148 59.6002 95.454 59.5229C95.1932 59.4455 94.9125 59.472 94.6708 59.5969L77.2714 68.7823L74.2859 71.6593Z" fill="#DFE6F5"/>
</svg>
