<svg id="86e67b00-e6d5-4c12-8897-14b72eaaa549" data-name="Layer 1" xmlns="http://www.w3.org/2000/svg" xmlns:xlink="http://www.w3.org/1999/xlink" viewBox="0 0 201.73214 57.74774"><defs><style>.e0d65d8c-88df-4e0b-911b-fc9180bdc302{fill:url(#e6b7c4fa-66b4-4315-88ef-722c3dacd196);}.\38 864d9a3-fc13-4f68-8c89-f3873b666ccf{isolation:isolate;}.\37 fd1cdb7-cd75-4175-a7f1-cddbb00c4f61{fill:#fff;}</style><linearGradient id="e6b7c4fa-66b4-4315-88ef-722c3dacd196" y1="28.87387" x2="201.73214" y2="28.87387" gradientUnits="userSpaceOnUse"><stop offset="0" stop-color="#2bc5b4"/><stop offset="1" stop-color="#35ddcb"/></linearGradient></defs><title>appstore</title><rect class="e0d65d8c-88df-4e0b-911b-fc9180bdc302" width="201.73214" height="57.74774" rx="8.02209" ry="8.02209"/><g class="8864d9a3-fc13-4f68-8c89-f3873b666ccf"><g class="8864d9a3-fc13-4f68-8c89-f3873b666ccf"><path class="7fd1cdb7-cd75-4175-a7f1-cddbb00c4f61" d="M100.811,138.61055h-5.96L93.771,141.67012H91.33105l5.2002-13.90039h2.62012l5.17968,13.90039h-2.43994Zm-.63965-1.76074-2.34034-6.59961-2.33984,6.59961Z" transform="translate(-13.88554 -99.55221)"/><path class="7fd1cdb7-cd75-4175-a7f1-cddbb00c4f61" d="M114.9209,131.18965a4.6566,4.6566,0,0,1,1.77,1.96094,7.39566,7.39566,0,0,1,0,6.01953,4.64815,4.64815,0,0,1-1.77,1.96,4.88764,4.88764,0,0,1-2.56983.67969,4.36008,4.36008,0,0,1-2.56005-.73926,3.8653,3.8653,0,0,1-1.48-1.96v7.79981h-2.28028V130.65059H108.311v2.55957a3.8653,3.8653,0,0,1,1.48-1.96,4.36065,4.36065,0,0,1,2.56005-.74023A4.88773,4.88773,0,0,1,114.9209,131.18965Zm-4.99024,1.77051a3.17363,3.17363,0,0,0-1.1997,1.28027,4.388,4.388,0,0,0,0,3.83008,3.18825,3.18825,0,0,0,1.1997,1.26953,3.31416,3.31416,0,0,0,1.72022.4502,3.20639,3.20639,0,0,0,2.43994-.96973,4.32031,4.32031,0,0,0,0-5.33008,3.18948,3.18948,0,0,0-2.43994-.98046A3.31425,3.31425,0,0,0,109.93066,132.96016Z" transform="translate(-13.88554 -99.55221)"/><path class="7fd1cdb7-cd75-4175-a7f1-cddbb00c4f61" d="M128.4209,131.18965a4.65556,4.65556,0,0,1,1.76953,1.96094,7.39049,7.39049,0,0,1,0,6.01953,4.64711,4.64711,0,0,1-1.76953,1.96,4.89061,4.89061,0,0,1-2.57031.67969,4.35749,4.35749,0,0,1-2.55957-.73926,3.8689,3.8689,0,0,1-1.48047-1.96v7.79981h-2.27979V130.65059h2.27979v2.55957a3.8689,3.8689,0,0,1,1.48047-1.96,4.35806,4.35806,0,0,1,2.55957-.74023A4.89069,4.89069,0,0,1,128.4209,131.18965Zm-4.99024,1.77051a3.17475,3.17475,0,0,0-1.20019,1.28027,4.39239,4.39239,0,0,0,0,3.83008,3.18939,3.18939,0,0,0,1.20019,1.26953,3.31364,3.31364,0,0,0,1.71973.4502,3.20676,3.20676,0,0,0,2.44043-.96973,4.32031,4.32031,0,0,0,0-5.33008,3.18984,3.18984,0,0,0-2.44043-.98046A3.31373,3.31373,0,0,0,123.43066,132.96016Z" transform="translate(-13.88554 -99.55221)"/><path class="7fd1cdb7-cd75-4175-a7f1-cddbb00c4f61" d="M146.49023,139.84a3.62685,3.62685,0,0,1-1.51953,1.42969,5.28855,5.28855,0,0,1-2.5.54,6.25568,6.25568,0,0,1-2.58008-.50977,4.48255,4.48255,0,0,1-1.82031-1.42968,4.06047,4.06047,0,0,1-.78027-2.12012h2.44043a2.50347,2.50347,0,0,0,.79,1.58008,2.566,2.566,0,0,0,1.84961.66015,2.19819,2.19819,0,0,0,1.61035-.56054,1.9296,1.9296,0,0,0,.57031-1.43946,1.85078,1.85078,0,0,0-.4209-1.25,2.9375,2.9375,0,0,0-1.04-.7705q-.61962-.2798-1.69922-.63965a14.91732,14.91732,0,0,1-2.15039-.83985,3.90441,3.90441,0,0,1-1.41015-1.2207,3.49372,3.49372,0,0,1-.58008-2.09961,3.57758,3.57758,0,0,1,.56055-2,3.63915,3.63915,0,0,1,1.59961-1.33008,5.77236,5.77236,0,0,1,2.40039-.46972,5.25256,5.25256,0,0,1,3.42968,1.04,3.91891,3.91891,0,0,1,1.4502,2.71972h-2.46a2.40372,2.40372,0,0,0-.75-1.37011,2.3516,2.3516,0,0,0-1.66992-.57032,2.30852,2.30852,0,0,0-1.54.49024,1.74381,1.74381,0,0,0-.58008,1.41015,1.77245,1.77245,0,0,0,.39941,1.19043,2.77131,2.77131,0,0,0,1.01075.73926q.60938.271,1.66992.63086a14.56356,14.56356,0,0,1,2.18945.84961,3.96677,3.96677,0,0,1,1.44043,1.25,3.62376,3.62376,0,0,1,.58984,2.16016A3.8757,3.8757,0,0,1,146.49023,139.84Z" transform="translate(-13.88554 -99.55221)"/><path class="7fd1cdb7-cd75-4175-a7f1-cddbb00c4f61" d="M154.80957,139.68965v1.98047h-1.39941a3.7765,3.7765,0,0,1-2.66993-.84961,3.73557,3.73557,0,0,1-.91015-2.83008V132.59H148.25v-1.93945h1.58008v-2.74023h2.2998v2.74023H154.79V132.59h-2.66016v5.44043a1.8619,1.8619,0,0,0,.34961,1.29981,1.68414,1.68414,0,0,0,1.23047.35937Z" transform="translate(-13.88554 -99.55221)"/><path class="7fd1cdb7-cd75-4175-a7f1-cddbb00c4f61" d="M164.86914,131.18965a4.88277,4.88277,0,0,1,2,1.96094,6.64493,6.64493,0,0,1,0,6.01953,4.87443,4.87443,0,0,1-2,1.96,6.42027,6.42027,0,0,1-5.75,0,4.95087,4.95087,0,0,1-2-1.96972,6.01212,6.01212,0,0,1-.72949-3.00977,5.95154,5.95154,0,0,1,.72949-3,4.97212,4.97212,0,0,1,2-1.96094,6.42035,6.42035,0,0,1,5.75,0Zm-4.5,1.7002a2.95,2.95,0,0,0-1.18945,1.23047,4.82288,4.82288,0,0,0,0,4.06933,2.95873,2.95873,0,0,0,1.18945,1.22071,3.48554,3.48554,0,0,0,3.24024,0,2.96082,2.96082,0,0,0,1.19042-1.22071,4.82288,4.82288,0,0,0,0-4.06933,2.952,2.952,0,0,0-1.19042-1.23047,3.48546,3.48546,0,0,0-3.24024,0Z" transform="translate(-13.88554 -99.55221)"/><path class="7fd1cdb7-cd75-4175-a7f1-cddbb00c4f61" d="M173.669,131.09981a4.54076,4.54076,0,0,1,2.40039-.62988v2.48047h-.67969a3.73922,3.73922,0,0,0-2.41016.72949,2.91227,2.91227,0,0,0-.91015,2.41015v5.58008h-2.28028V130.65059h2.28028v2.15918A4.24778,4.24778,0,0,1,173.669,131.09981Z" transform="translate(-13.88554 -99.55221)"/><path class="7fd1cdb7-cd75-4175-a7f1-cddbb00c4f61" d="M187.92969,136.61055h-8.48047a3.46482,3.46482,0,0,0,.94043,2.51953,3.0727,3.0727,0,0,0,2.17969.82032,3.17009,3.17009,0,0,0,1.92968-.58008,2.39427,2.39427,0,0,0,.97071-1.54h2.43945A4.683,4.683,0,0,1,185.169,141.3a5.96156,5.96156,0,0,1-2.5.50977,5.74991,5.74991,0,0,1-2.82911-.67969,4.83446,4.83446,0,0,1-1.93066-1.96,6.81868,6.81868,0,0,1,0-6.01953,4.843,4.843,0,0,1,1.93066-1.96094,6.27,6.27,0,0,1,5.65918-.00976,4.67172,4.67172,0,0,1,1.86036,1.83984,5.28218,5.28218,0,0,1,.65039,2.61035A5.35379,5.35379,0,0,1,187.92969,136.61055ZM185.33984,133.76a2.57879,2.57879,0,0,0-1.12011-1.08008,3.47179,3.47179,0,0,0-1.55078-.34961,3.19917,3.19917,0,0,0-2.23926.82031,3.34846,3.34846,0,0,0-.98047,2.41992H185.709A3.39222,3.39222,0,0,0,185.33984,133.76Z" transform="translate(-13.88554 -99.55221)"/></g></g><g class="8864d9a3-fc13-4f68-8c89-f3873b666ccf"><g class="8864d9a3-fc13-4f68-8c89-f3873b666ccf"><path class="7fd1cdb7-cd75-4175-a7f1-cddbb00c4f61" d="M97.87109,118.52852H93.69922l-.75586,2.1416h-1.708l3.63965-9.73047h1.83447l3.626,9.73047h-1.708Zm-.44775-1.23242L95.78516,112.676l-1.6377,4.62012Z" transform="translate(-13.88554 -99.55221)"/><path class="7fd1cdb7-cd75-4175-a7f1-cddbb00c4f61" d="M104.689,119.01778l2.18409-6.06153h1.708l-2.93994,7.71387H103.709l-2.93994-7.71387h1.708Z" transform="translate(-13.88554 -99.55221)"/><path class="7fd1cdb7-cd75-4175-a7f1-cddbb00c4f61" d="M114.64307,113.37618a2.78793,2.78793,0,0,1,1.0498,1.37207v-1.792h1.59619v7.71387h-1.59619v-1.792a2.78793,2.78793,0,0,1-1.0498,1.37207,3.04929,3.04929,0,0,1-1.792.51758,3.41817,3.41817,0,0,1-1.79882-.47559,3.25,3.25,0,0,1-1.23926-1.37207,5.18092,5.18092,0,0,1,0-4.21387,3.25016,3.25016,0,0,1,1.23926-1.37207,3.41816,3.41816,0,0,1,1.79882-.47558A3.04922,3.04922,0,0,1,114.64307,113.37618Zm-3.00293,1.56054a3.06,3.06,0,0,0,0,3.73828,2.219,2.219,0,0,0,1.70068.67872,2.31727,2.31727,0,0,0,1.2041-.31446,2.239,2.239,0,0,0,.84033-.88867,3.0759,3.0759,0,0,0,0-2.68164,2.23234,2.23234,0,0,0-.84033-.89551,2.3179,2.3179,0,0,0-1.2041-.31543A2.22248,2.22248,0,0,0,111.64014,114.93672Z" transform="translate(-13.88554 -99.55221)"/><path class="7fd1cdb7-cd75-4175-a7f1-cddbb00c4f61" d="M119.2627,110.04415a1.03511,1.03511,0,0,1,.74218-.26563,1.06119,1.06119,0,0,1,.749.26563.87982.87982,0,0,1,.28613.67187.83682.83682,0,0,1-.28613.6582,1.09469,1.09469,0,0,1-.749.252,1.06734,1.06734,0,0,1-.74218-.252.84282.84282,0,0,1-.27979-.6582A.88648.88648,0,0,1,119.2627,110.04415Zm1.54,2.9121v7.71387h-1.59619v-7.71387Z" transform="translate(-13.88554 -99.55221)"/><path class="7fd1cdb7-cd75-4175-a7f1-cddbb00c4f61" d="M124.33105,110.30977v10.36035h-1.59667V110.30977Z" transform="translate(-13.88554 -99.55221)"/><path class="7fd1cdb7-cd75-4175-a7f1-cddbb00c4f61" d="M131.14844,113.37618a2.78517,2.78517,0,0,1,1.0498,1.37207v-1.792h1.59668v7.71387h-1.59668v-1.792a2.78517,2.78517,0,0,1-1.0498,1.37207,3.04717,3.04717,0,0,1-1.792.51758,3.41941,3.41941,0,0,1-1.79883-.47559,3.2532,3.2532,0,0,1-1.23926-1.37207,5.1861,5.1861,0,0,1,0-4.21387,3.25332,3.25332,0,0,1,1.23926-1.37207,3.4194,3.4194,0,0,1,1.79883-.47558A3.0471,3.0471,0,0,1,131.14844,113.37618Zm-3.00293,1.56054a3.06186,3.06186,0,0,0,0,3.73828,2.22083,2.22083,0,0,0,1.70117.67872,2.31727,2.31727,0,0,0,1.2041-.31446,2.2345,2.2345,0,0,0,.83984-.88867,3.0759,3.0759,0,0,0,0-2.68164,2.22789,2.22789,0,0,0-.83984-.89551,2.3179,2.3179,0,0,0-1.2041-.31543A2.2243,2.2243,0,0,0,128.14551,114.93672Z" transform="translate(-13.88554 -99.55221)"/><path class="7fd1cdb7-cd75-4175-a7f1-cddbb00c4f61" d="M141.93555,113.33418a3.2533,3.2533,0,0,1,1.23925,1.37207,5.1861,5.1861,0,0,1,0,4.21387,3.25318,3.25318,0,0,1-1.23925,1.37207,3.41946,3.41946,0,0,1-1.79883.47559,3.04715,3.04715,0,0,1-1.792-.51758,2.70472,2.70472,0,0,1-1.03614-1.37207v1.792h-1.59668V110.30977h1.59668v4.43848a2.70472,2.70472,0,0,1,1.03614-1.37207,3.04708,3.04708,0,0,1,1.792-.51758A3.41945,3.41945,0,0,1,141.93555,113.33418Zm-3.49317,1.23926a2.228,2.228,0,0,0-.83984.89551,3.0672,3.0672,0,0,0,0,2.68164,2.23457,2.23457,0,0,0,.83984.88867,2.31729,2.31729,0,0,0,1.2041.31446,2.24336,2.24336,0,0,0,1.708-.67872,3.02477,3.02477,0,0,0,0-3.73046,2.23141,2.23141,0,0,0-1.708-.68653A2.31792,2.31792,0,0,0,138.44238,114.57344Z" transform="translate(-13.88554 -99.55221)"/><path class="7fd1cdb7-cd75-4175-a7f1-cddbb00c4f61" d="M146.75879,110.30977v10.36035h-1.59668V110.30977Z" transform="translate(-13.88554 -99.55221)"/><path class="7fd1cdb7-cd75-4175-a7f1-cddbb00c4f61" d="M155.80273,117.12813h-5.93652a2.42367,2.42367,0,0,0,.6582,1.76367,2.15169,2.15169,0,0,0,1.52637.57422,2.21614,2.21614,0,0,0,1.35059-.40625,1.67694,1.67694,0,0,0,.67871-1.07812h1.708a3.27643,3.27643,0,0,1-1.918,2.42968,4.183,4.183,0,0,1-1.75.35645,4.02341,4.02341,0,0,1-1.98047-.47559,3.38693,3.38693,0,0,1-1.35156-1.37207,4.7812,4.7812,0,0,1,0-4.21387,3.38706,3.38706,0,0,1,1.35156-1.37207,4.39161,4.39161,0,0,1,3.96191-.00683,3.26567,3.26567,0,0,1,1.30176,1.28808,3.9825,3.9825,0,0,1,.39941,2.5127Zm-1.81347-1.99512a1.80018,1.80018,0,0,0-.78418-.75586,2.42074,2.42074,0,0,0-1.085-.24511,2.23919,2.23919,0,0,0-1.56739.57421,2.3452,2.3452,0,0,0-.68652,1.69434h4.38184A2.37307,2.37307,0,0,0,153.98926,115.133Z" transform="translate(-13.88554 -99.55221)"/><path class="7fd1cdb7-cd75-4175-a7f1-cddbb00c4f61" d="M166.21777,113.33418a3.41394,3.41394,0,0,1,1.40039,1.37207,4.65664,4.65664,0,0,1,0,4.21387,3.41382,3.41382,0,0,1-1.40039,1.37207,4.49457,4.49457,0,0,1-4.02441,0,3.4656,3.4656,0,0,1-1.40039-1.3789,4.207,4.207,0,0,1-.51074-2.10743,4.16422,4.16422,0,0,1,.51074-2.09961,3.47333,3.47333,0,0,1,1.40039-1.37207,4.49465,4.49465,0,0,1,4.02441,0Zm-3.14941,1.18946a2.06981,2.06981,0,0,0-.833.86133,3.37561,3.37561,0,0,0,0,2.8496,2.06638,2.06638,0,0,0,.833.85352,2.43342,2.43342,0,0,0,2.26758,0,2.06644,2.06644,0,0,0,.833-.85352,3.37561,3.37561,0,0,0,0-2.8496,2.06987,2.06987,0,0,0-.833-.86133,2.4409,2.4409,0,0,0-2.26758,0Z" transform="translate(-13.88554 -99.55221)"/><path class="7fd1cdb7-cd75-4175-a7f1-cddbb00c4f61" d="M176.12988,113.69844a3.49213,3.49213,0,0,1,.8125,2.47754v4.49414H175.3457V116.344a2.25289,2.25289,0,0,0-.53125-1.60254,1.90276,1.90276,0,0,0-1.45605-.56738,1.99853,1.99853,0,0,0-1.52637.60937,2.50838,2.50838,0,0,0-.57422,1.78516v4.10156h-1.5957v-7.71387h1.5957v1.69434a2.58733,2.58733,0,0,1,1.03614-1.34473,2.99845,2.99845,0,0,1,1.67968-.47558A2.81061,2.81061,0,0,1,176.12988,113.69844Z" transform="translate(-13.88554 -99.55221)"/></g></g><path d="M46.3964,145.39627a21.47628,21.47628,0,0,0,2.46482-.77869,8.39982,8.39982,0,0,1,7.10835.01844c2.97919,1.28389,4.99227.76244,7.07322-1.73183a26.8506,26.8506,0,0,0,4.06-6.71359c.36973-.86595.2159-1.27334-.61727-1.75754a8.4052,8.4052,0,0,1-1.84985-13.09531c.54936-.58294,1.16565-1.10282,1.7463-1.6475a8.86265,8.86265,0,0,0-8.58588-3.75475,32.591,32.591,0,0,0-4.61028,1.43581,3.33682,3.33682,0,0,1-2.42954.03528,24.872,24.872,0,0,0-3.76539-1.2621c-3.66921-.77549-7.5887,1.27854-9.55062,4.805-1.64553,2.95773-1.73152,6.136-1.33416,9.34564a23.83051,23.83051,0,0,0,5.0234,11.79745,8.17655,8.17655,0,0,0,4.40083,3.30373m6.13641-30.0264c4.31488.44051,8.361-4.71285,7.65336-8.75174C56.08945,106.30683,51.11269,110.47175,51.66671,115.36987Z" transform="translate(-13.88554 -99.55221)"/><path class="7fd1cdb7-cd75-4175-a7f1-cddbb00c4f61" d="M45.5303,145.39627a8.17655,8.17655,0,0,1-4.40083-3.30373,23.83051,23.83051,0,0,1-5.0234-11.79745c-.39736-3.20963-.31137-6.38791,1.33416-9.34564,1.96192-3.52642,5.88141-5.58045,9.55062-4.805a24.872,24.872,0,0,1,3.76539,1.2621,3.33682,3.33682,0,0,0,2.42954-.03528,32.591,32.591,0,0,1,4.61028-1.43581,8.86265,8.86265,0,0,1,8.58588,3.75475c-.58065.54468-1.19694,1.06456-1.7463,1.6475a8.4052,8.4052,0,0,0,1.84985,13.09531c.83317.4842.987.89159.61727,1.75754a26.8506,26.8506,0,0,1-4.06,6.71359c-2.08095,2.49427-4.094,3.01572-7.07322,1.73183a8.39982,8.39982,0,0,0-7.10835-.01844,21.47628,21.47628,0,0,1-2.46482.77869Z" transform="translate(-13.88554 -99.55221)"/><path class="7fd1cdb7-cd75-4175-a7f1-cddbb00c4f61" d="M51.66671,115.36987c-.554-4.89812,4.42274-9.063,7.65336-8.75174C60.02775,110.657,55.98159,115.81038,51.66671,115.36987Z" transform="translate(-13.88554 -99.55221)"/></svg>