<svg id="20fdcb63-4f06-4c66-aba0-208517f2e648" data-name="Layer 1" xmlns="http://www.w3.org/2000/svg" viewBox="0 0 229.89741 65.81031"><defs><style>.e78cffaa-b2f2-439f-bb17-484a44b9f503{fill:#f79256;}.\36 572c7c7-afb8-4e35-853c-ffd2d1c7a1df{isolation:isolate;}.\34 70b815f-5326-4040-ab3d-5cbf64babded{fill:#fff;}</style></defs><title>googleplay</title><path class="e78cffaa-b2f2-439f-bb17-484a44b9f503" d="M9.14211,0H220.75529a9.14212,9.14212,0,0,1,9.14212,9.14212V56.6682a9.14212,9.14212,0,0,1-9.14212,9.14212H9.14211A9.14211,9.14211,0,0,1,0,56.6682V9.14211A9.14211,9.14211,0,0,1,9.14211,0Z"/><g class="6572c7c7-afb8-4e35-853c-ffd2d1c7a1df"><g class="6572c7c7-afb8-4e35-853c-ffd2d1c7a1df"><path class="470b815f-5326-4040-ab3d-5cbf64babded" d="M106.87305,140.29415a6.23782,6.23782,0,0,1,2.37353,3.61425h-2.56592a4.10362,4.10362,0,0,0-1.61474-1.94629,4.79147,4.79147,0,0,0-2.66211-.72656,4.88557,4.88557,0,0,0-2.53418.66309,4.56113,4.56113,0,0,0-1.75342,1.88183,6.149,6.149,0,0,0-.63086,2.86524,6.39735,6.39735,0,0,0,.6416,2.97265,4.45285,4.45285,0,0,0,1.80664,1.89258,5.44916,5.44916,0,0,0,2.70508.65235,4.76884,4.76884,0,0,0,3.229-1.166,4.93674,4.93674,0,0,0,1.62548-3.19629h-5.53857v-1.79687h7.59131v2.33105a7.22545,7.22545,0,0,1-1.18652,3.02637,6.77632,6.77632,0,0,1-2.45948,2.16992,7.33256,7.33256,0,0,1-3.49609.8125,7.5862,7.5862,0,0,1-3.89209-.9834,6.71391,6.71391,0,0,1-2.60889-2.72656,9.10984,9.10984,0,0,1,0-7.97656,6.678,6.678,0,0,1,2.59815-2.71582,7.60052,7.60052,0,0,1,3.88134-.97266A7.35722,7.35722,0,0,1,106.87305,140.29415Z" transform="translate(-8.78638 -108.87359)"/><path class="470b815f-5326-4040-ab3d-5cbf64babded" d="M120.47363,142.98946a5.19794,5.19794,0,0,1,2.1377,2.0957,7.09822,7.09822,0,0,1,0,6.43652,5.204,5.204,0,0,1-2.1377,2.09571,6.46531,6.46531,0,0,1-3.07959.72656,6.39848,6.39848,0,0,1-3.06836-.72656,5.28767,5.28767,0,0,1-2.13867-2.10645,7.00492,7.00492,0,0,1,0-6.42578,5.29775,5.29775,0,0,1,2.13867-2.0957,6.38777,6.38777,0,0,1,3.06836-.72754A6.45445,6.45445,0,0,1,120.47363,142.98946Zm-4.81152,1.81738a3.14924,3.14924,0,0,0-1.27246,1.31543,5.16187,5.16187,0,0,0,0,4.35156,3.16112,3.16112,0,0,0,1.27246,1.30469,3.72125,3.72125,0,0,0,3.46435,0,3.16009,3.16009,0,0,0,1.272-1.30469,5.14771,5.14771,0,0,0,0-4.35156,3.14823,3.14823,0,0,0-1.272-1.31543,3.72125,3.72125,0,0,0-3.46435,0Z" transform="translate(-8.78638 -108.87359)"/><path class="470b815f-5326-4040-ab3d-5cbf64babded" d="M134.20215,142.98946a5.20615,5.20615,0,0,1,2.13867,2.0957,7.10618,7.10618,0,0,1,0,6.43652,5.2122,5.2122,0,0,1-2.13867,2.09571,6.865,6.865,0,0,1-6.14746,0,5.29055,5.29055,0,0,1-2.13867-2.10645,7.00484,7.00484,0,0,1,0-6.42578,5.30065,5.30065,0,0,1,2.13867-2.0957,6.85674,6.85674,0,0,1,6.14746,0Zm-4.81153,1.81738a3.14718,3.14718,0,0,0-1.27148,1.31543,5.15721,5.15721,0,0,0,0,4.35156,3.159,3.159,0,0,0,1.27148,1.30469,3.72227,3.72227,0,0,0,3.46485,0,3.167,3.167,0,0,0,1.27246-1.30469,5.15711,5.15711,0,0,0,0-4.35156,3.15506,3.15506,0,0,0-1.27246-1.31543,3.72227,3.72227,0,0,0-3.46485,0Z" transform="translate(-8.78638 -108.87359)"/><path class="470b815f-5326-4040-ab3d-5cbf64babded" d="M146.92578,143.05293a4.26855,4.26855,0,0,1,1.60449,2.09571v-2.73731h2.4375v11.91114a6.1415,6.1415,0,0,1-.67382,2.91894,4.92894,4.92894,0,0,1-1.93555,2,5.89615,5.89615,0,0,1-2.99317.72656,6.39478,6.39478,0,0,1-4.00976-1.17578,5.07511,5.07511,0,0,1-1.91406-3.18652h2.416a2.87883,2.87883,0,0,0,1.15528,1.63574,3.76321,3.76321,0,0,0,2.18164.58887,3.32833,3.32833,0,0,0,2.39453-.89844,3.44084,3.44084,0,0,0,.9414-2.60937v-2.86524a4.25986,4.25986,0,0,1-1.60449,2.0957,4.66267,4.66267,0,0,1-2.7373.791,5.22855,5.22855,0,0,1-2.74805-.72656,4.97108,4.97108,0,0,1-1.8916-2.09571,7.90695,7.90695,0,0,1,0-6.43652,4.96522,4.96522,0,0,1,1.8916-2.0957,5.22013,5.22013,0,0,1,2.74805-.72754A4.66274,4.66274,0,0,1,146.92578,143.05293Zm-4.58691,2.38477a4.67634,4.67634,0,0,0,0,5.71,3.39325,3.39325,0,0,0,2.59863,1.03711,3.54678,3.54678,0,0,0,1.83887-.48145,3.417,3.417,0,0,0,1.2832-1.35839,4.68795,4.68795,0,0,0,0-4.09473,3.3933,3.3933,0,0,0-1.2832-1.36816,3.53754,3.53754,0,0,0-1.83887-.48145A3.39325,3.39325,0,0,0,142.33887,145.4377Z" transform="translate(-8.78638 -108.87359)"/><path class="470b815f-5326-4040-ab3d-5cbf64babded" d="M156.335,138.37032v15.82422h-2.4375V138.37032Z" transform="translate(-8.78638 -108.87359)"/><path class="470b815f-5326-4040-ab3d-5cbf64babded" d="M170.14941,148.78438H161.082a3.70245,3.70245,0,0,0,1.00586,2.69434,3.28463,3.28463,0,0,0,2.33008.87695,3.39479,3.39479,0,0,0,2.06445-.62012,2.56557,2.56557,0,0,0,1.03711-1.64648h2.6084a5.00659,5.00659,0,0,1-2.92969,3.71,6.38229,6.38229,0,0,1-2.67285.54492,6.15616,6.15616,0,0,1-3.02637-.72656,5.17611,5.17611,0,0,1-2.06347-2.09571,7.29675,7.29675,0,0,1,0-6.43652,5.17,5.17,0,0,1,2.06347-2.0957,6.70031,6.70031,0,0,1,6.05176-.01074,4.98191,4.98191,0,0,1,1.98926,1.96679,6.06872,6.06872,0,0,1,.60937,3.83887Zm-2.76953-3.04785a2.75564,2.75564,0,0,0-1.19726-1.1543,3.702,3.702,0,0,0-1.65723-.374,3.42215,3.42215,0,0,0-2.39551.87695,3.58157,3.58157,0,0,0-1.04785,2.58691h6.69336A3.63117,3.63117,0,0,0,167.37988,145.73653Z" transform="translate(-8.78638 -108.87359)"/><path class="470b815f-5326-4040-ab3d-5cbf64babded" d="M180.02832,148.33516v5.85938h-2.4375V139.09688h5.13184a5.53261,5.53261,0,0,1,3.9248,1.24023,4.45252,4.45252,0,0,1,1.31445,3.40039,4.33369,4.33369,0,0,1-1.34668,3.36817,5.57723,5.57723,0,0,1-3.89257,1.22949Zm5.45313-4.59766a2.558,2.558,0,0,0-.71583-1.957,3.28738,3.28738,0,0,0-2.29882-.67285h-2.43848v5.23926h2.43848Q185.48144,146.34688,185.48145,143.7375Z" transform="translate(-8.78638 -108.87359)"/><path class="470b815f-5326-4040-ab3d-5cbf64babded" d="M192.53809,138.37032v15.82422h-2.4375V138.37032Z" transform="translate(-8.78638 -108.87359)"/><path class="470b815f-5326-4040-ab3d-5cbf64babded" d="M202.95215,143.05293a4.26855,4.26855,0,0,1,1.60449,2.09571v-2.73731h2.4375v11.78321h-2.4375v-2.73731a4.25986,4.25986,0,0,1-1.60449,2.0957,4.66268,4.66268,0,0,1-2.73731.791,5.22854,5.22854,0,0,1-2.748-.72656,4.97108,4.97108,0,0,1-1.8916-2.09571,7.90684,7.90684,0,0,1,0-6.43652,4.96522,4.96522,0,0,1,1.8916-2.0957,5.22012,5.22012,0,0,1,2.748-.72754A4.66275,4.66275,0,0,1,202.95215,143.05293Zm-4.58692,2.38477a4.67638,4.67638,0,0,0,0,5.71,3.39327,3.39327,0,0,0,2.59864,1.03711,3.54674,3.54674,0,0,0,1.83886-.48145,3.417,3.417,0,0,0,1.28321-1.35839,4.68795,4.68795,0,0,0,0-4.09473,3.39325,3.39325,0,0,0-1.28321-1.36816,3.53751,3.53751,0,0,0-1.83886-.48145A3.39327,3.39327,0,0,0,198.36523,145.4377Z" transform="translate(-8.78638 -108.87359)"/><path class="470b815f-5326-4040-ab3d-5cbf64babded" d="M211.31348,142.41133l3.52832,8.66114,3.27246-8.66114h2.71582l-7.1211,17.38574h-2.71582l2.54493-5.88085-4.96192-11.50489Z" transform="translate(-8.78638 -108.87359)"/></g></g><g class="6572c7c7-afb8-4e35-853c-ffd2d1c7a1df"><g class="6572c7c7-afb8-4e35-853c-ffd2d1c7a1df"><path class="470b815f-5326-4040-ab3d-5cbf64babded" d="M103.01074,122.01094a4.35988,4.35988,0,0,1,1.66162,2.5293h-1.7959a2.87661,2.87661,0,0,0-1.13037-1.36231,3.35593,3.35593,0,0,0-1.86377-.50878,3.42979,3.42979,0,0,0-1.77392.46386,3.20284,3.20284,0,0,0-1.22754,1.31739,4.30861,4.30861,0,0,0-.44141,2.00585,4.48081,4.48081,0,0,0,.44922,2.08106,3.11835,3.11835,0,0,0,1.26465,1.32422,3.81026,3.81026,0,0,0,1.89356.457,3.3404,3.3404,0,0,0,2.26074-.81641,3.45341,3.45341,0,0,0,1.1372-2.2373h-3.877V126.007h5.31445v1.63183a5.06573,5.06573,0,0,1-.83105,2.11817,4.744,4.744,0,0,1-1.72119,1.51953,5.14121,5.14121,0,0,1-2.44776.56836,5.31351,5.31351,0,0,1-2.72412-.68848,4.703,4.703,0,0,1-1.82666-1.9082,6.37821,6.37821,0,0,1,0-5.584,4.67492,4.67492,0,0,1,1.81885-1.90039,5.31856,5.31856,0,0,1,2.7168-.68164A5.14565,5.14565,0,0,1,103.01074,122.01094Z" transform="translate(-8.78638 -108.87359)"/><path class="470b815f-5326-4040-ab3d-5cbf64babded" d="M114.208,127.95332h-6.34717a2.59416,2.59416,0,0,0,.70361,1.88575,2.30256,2.30256,0,0,0,1.63184.61425,2.36889,2.36889,0,0,0,1.44433-.43457,1.79263,1.79263,0,0,0,.72608-1.15234h1.82617a3.50186,3.50186,0,0,1-2.05078,2.59668,4.4569,4.4569,0,0,1-1.87109.38184,4.29979,4.29979,0,0,1-2.11817-.50879,3.61531,3.61531,0,0,1-1.44433-1.4668,5.10578,5.10578,0,0,1,0-4.50586,3.61531,3.61531,0,0,1,1.44433-1.4668,4.69576,4.69576,0,0,1,4.23633-.00781,3.495,3.495,0,0,1,1.39209,1.377,4.2501,4.2501,0,0,1,.42676,2.6875Zm-1.93848-2.13281a1.92813,1.92813,0,0,0-.83838-.80859,2.58514,2.58514,0,0,0-1.16015-.26172,2.39444,2.39444,0,0,0-1.67627.61328,2.50741,2.50741,0,0,0-.73389,1.81152h4.68555A2.53433,2.53433,0,0,0,112.26953,125.82051Z" transform="translate(-8.78638 -108.87359)"/><path class="470b815f-5326-4040-ab3d-5cbf64babded" d="M120.06055,130.258v1.48242H119.0127a2.82681,2.82681,0,0,1-1.998-.63574,2.79644,2.79644,0,0,1-.68115-2.11816v-4.042h-1.18262v-1.45215h1.18262v-2.05078h1.72119v2.05078h1.99121v1.45215h-1.99121v4.07128a1.3941,1.3941,0,0,0,.2622.97364,1.2595,1.2595,0,0,0,.92041.26855Z" transform="translate(-8.78638 -108.87359)"/><path class="470b815f-5326-4040-ab3d-5cbf64babded" d="M125.22461,120.37911a1.10416,1.10416,0,0,1,.793-.28516,1.13011,1.13011,0,0,1,.80078.28516.9352.9352,0,0,1,.30762.71777.89112.89112,0,0,1-.30762.7041,1.1668,1.1668,0,0,1-.80078.26953,1.13952,1.13952,0,0,1-.793-.26953.9006.9006,0,0,1-.29981-.7041A.94562.94562,0,0,1,125.22461,120.37911Zm1.64648,3.11328v8.248h-1.706v-8.248Z" transform="translate(-8.78638 -108.87359)"/><path class="470b815f-5326-4040-ab3d-5cbf64babded" d="M133.084,130.258v1.48242h-1.04785a2.82861,2.82861,0,0,1-1.999-.63574,2.79834,2.79834,0,0,1-.68066-2.11816v-4.042h-1.18262v-1.45215h1.18262v-2.05078h1.72167v2.05078h1.99024v1.45215h-1.99024v4.07128a1.39429,1.39429,0,0,0,.26172.97364,1.26084,1.26084,0,0,0,.9209.26855Z" transform="translate(-8.78638 -108.87359)"/><path class="470b815f-5326-4040-ab3d-5cbf64babded" d="M144.11523,123.89668a3.65139,3.65139,0,0,1,1.49707,1.4668,4.98539,4.98539,0,0,1,0,4.50586,3.65139,3.65139,0,0,1-1.49707,1.4668,4.51741,4.51741,0,0,1-2.15625.50879,4.47139,4.47139,0,0,1-2.14746-.50879,3.6995,3.6995,0,0,1-1.49707-1.47461,4.898,4.898,0,0,1,0-4.498,3.71077,3.71077,0,0,1,1.49707-1.4668,4.48261,4.48261,0,0,1,2.14746-.50878A4.52878,4.52878,0,0,1,144.11523,123.89668Zm-3.36816,1.27247a2.20557,2.20557,0,0,0-.89062.92089,3.61046,3.61046,0,0,0,0,3.0459,2.21375,2.21375,0,0,0,.89062.91309,2.60888,2.60888,0,0,0,2.42481,0,2.21381,2.21381,0,0,0,.89062-.91309,3.61056,3.61056,0,0,0,0-3.0459,2.20563,2.20563,0,0,0-.89062-.92089,2.60133,2.60133,0,0,0-2.42481,0Z" transform="translate(-8.78638 -108.87359)"/><path class="470b815f-5326-4040-ab3d-5cbf64babded" d="M154.71289,124.28536a3.73612,3.73612,0,0,1,.86816,2.65039v4.80468H153.875v-4.625a2.41176,2.41176,0,0,0-.56836-1.71484,2.036,2.036,0,0,0-1.55762-.60547,2.13461,2.13461,0,0,0-1.63086.65039,2.68081,2.68081,0,0,0-.61425,1.90918v4.38574h-1.70606v-8.248h1.70606v1.81152a2.77124,2.77124,0,0,1,1.10742-1.4375,3.2144,3.2144,0,0,1,1.79687-.50879A3.00686,3.00686,0,0,1,154.71289,124.28536Z" transform="translate(-8.78638 -108.87359)"/></g></g><path class="470b815f-5326-4040-ab3d-5cbf64babded" d="M31.02839,160.82277l19.63273-19.63228L31.02839,121.55782Zm1.75049-41.177.007.12957,19.81163,19.81233,4.63094-4.8812c-.04856-.03235-.2271-.15609-.41023-.27263q-4.14628-2.63866-8.29393-5.27521-7.083-4.49582-14.17827-8.97221A7.21809,7.21809,0,0,0,32.77888,119.64575Zm19.87606,23.266-20.0326,20.03232a11.85515,11.85515,0,0,0,1.94057-.76339q9.03742-5.68681,18.04229-11.42538c1.59087-1.00967,3.17658-2.02749,4.65136-2.96921Zm1.24312-1.68806,5.45539,5.25259c1.71567-1.10145,3.49713-2.20443,5.23418-3.37337a2.08922,2.08922,0,0,0,.17684-3.552c-1.78622-1.26094-3.65853-2.39993-5.39076-3.52416Z" transform="translate(-8.78638 -108.87359)"/><path class="470b815f-5326-4040-ab3d-5cbf64babded" d="M31.02839,160.82277V121.55782l19.63273,19.63267Z" transform="translate(-8.78638 -108.87359)"/><path class="470b815f-5326-4040-ab3d-5cbf64babded" d="M32.77888,119.64575a7.21809,7.21809,0,0,1,1.56712.54065q7.10724,4.45723,14.17827,8.97221,4.14941,2.63375,8.29393,5.27521c.18313.11654.36167.24028.41023.27263l-4.63094,4.8812L32.78586,119.77532Z" transform="translate(-8.78638 -108.87359)"/><path class="470b815f-5326-4040-ab3d-5cbf64babded" d="M52.65494,142.91174l4.60162,4.87434c-1.47478.94172-3.06049,1.95954-4.65136,2.96921q-9.01545,5.72172-18.04229,11.42538a11.85515,11.85515,0,0,1-1.94057.76339Z" transform="translate(-8.78638 -108.87359)"/><path class="470b815f-5326-4040-ab3d-5cbf64babded" d="M53.89806,141.22368l5.47565-5.19693c1.73223,1.12423,3.60454,2.26322,5.39076,3.52416a2.08922,2.08922,0,0,1-.17684,3.552c-1.73705,1.16894-3.51851,2.27192-5.23418,3.37337Z" transform="translate(-8.78638 -108.87359)"/></svg>