<svg id="Badges" xmlns="http://www.w3.org/2000/svg" viewBox="0 0 130 41"><defs><style>.cls-1{fill:#524cb3;}.cls-2,.cls-3,.cls-4{fill:#fff;}.cls-2{stroke:#524cb3;stroke-miterlimit:10;}.cls-2,.cls-3{fill-rule:evenodd;}</style></defs><title>Artboard 7 copy</title><rect class="cls-1" x="1" y="0.5" width="128" height="40" rx="4"/><path class="cls-2" d="M11.44,20.1V9.58a1.13,1.13,0,0,1,1-1.12,1.82,1.82,0,0,1,.95.27l19.3,10.55c.41.23.62.52.61.82s-.2.59-.61.82L13.43,31.47a1.82,1.82,0,0,1-.95.27,1.13,1.13,0,0,1-1-1.11Z"/><path class="cls-2" d="M24,20.17,12.29,8.48l.19,0a1.82,1.82,0,0,1,.95.27L27.64,16.5Z"/><path class="cls-2" d="M27.56,23.75,24,20.17l3.66-3.67,5.09,2.78c.41.23.62.52.61.82s-.2.59-.61.82Z"/><path class="cls-2" d="M12.41,31.73h0L24,20.17l3.58,3.58L13.43,31.47a1.82,1.82,0,0,1-.95.27Z"/><path class="cls-3" d="M72.78,34.36a5.61,5.61,0,0,1-1.11-1.52l1.61-.69a3.18,3.18,0,0,0,.49.76,2.22,2.22,0,0,0,1.64.76,2.16,2.16,0,0,0,1.7-.8,2.81,2.81,0,0,0,.47-1.68v-.63c-1.15,1.48-3.67,1.27-5.08-.26a4.45,4.45,0,0,1,0-5.93c1.51-1.49,3.73-1.67,5-.26h0V23.4h1.74V31a4.15,4.15,0,0,1-1.59,3.65,4.08,4.08,0,0,1-2.34.68,3.86,3.86,0,0,1-2.61-1Zm41.85.41h0l1.69-4-3-6.92H115l2.13,4.93,2.08-4.93h1.7l-4.61,10.91ZM106.56,31h0a2.7,2.7,0,0,1-.75-1.85,2.29,2.29,0,0,1,.62-1.63,4.22,4.22,0,0,1,4.6-.64,1.64,1.64,0,0,0-1.77-1.68,1.7,1.7,0,0,0-1.65,1.07l-1.53-.61a3.15,3.15,0,0,1,3.15-2,3.25,3.25,0,0,1,3.45,3.66v4.2H111v-.75a3,3,0,0,1-.91.72,3.22,3.22,0,0,1-1.4.28,3.13,3.13,0,0,1-2.14-.77ZM53.28,27.35h0a4.16,4.16,0,1,1,4.16,4.2,4.16,4.16,0,0,1-4.16-4.2Zm9,0h0a4.16,4.16,0,1,1,4.16,4.2,4.16,4.16,0,0,1-4.16-4.2ZM42,29.56h0a6.49,6.49,0,0,1,9.08-9.28l-1.24,1.3a4.54,4.54,0,0,0-6.44.08,4.84,4.84,0,0,0-.05,6.68,4.6,4.6,0,0,0,6.58.11,3.82,3.82,0,0,0,.94-2.24H46.67V24.43H52.6a6.77,6.77,0,0,1,.1,1.35,5.73,5.73,0,0,1-6,5.76,6.75,6.75,0,0,1-4.72-2Zm42.23.75h0a4.54,4.54,0,0,1,0-5.95,3.65,3.65,0,0,1,5.45,0,6.45,6.45,0,0,1,1.07,1.93l-5.55,2.33a2.15,2.15,0,0,0,2,1.28,2.29,2.29,0,0,0,2.07-1.16l1.45,1h0c-.16.22-.37.44-.52.61a4.2,4.2,0,0,1-5.94,0Zm10.42,1.17h0v-11h3.55A3.54,3.54,0,0,1,102,23.78a3.39,3.39,0,0,1-3.44,3.34h-2.2v4.36Zm8.42,0h0v-11h1.69V31.48ZM80.51,31.3h0V18.93h1.85V31.3ZM111,28.24h0a3,3,0,0,0-1.59-.4c-1.2,0-1.88.6-1.88,1.27a1.22,1.22,0,0,0,1.37,1.1,2.11,2.11,0,0,0,2.1-2Zm-51.26-.89h0a2.33,2.33,0,1,0-2.32,2.54,2.42,2.42,0,0,0,2.32-2.54Zm9,0h0a2.33,2.33,0,1,0-2.32,2.54,2.42,2.42,0,0,0,2.32-2.54Zm8.83.77h0a2.6,2.6,0,0,0,.06-.3.1.1,0,0,0,0,0,3.29,3.29,0,0,0,0-.45,3,3,0,0,0,0-.42.2.2,0,0,0,0-.05,2.22,2.22,0,0,0-.09-.37,2.3,2.3,0,0,0-2.14-1.67,2.55,2.55,0,0,0,0,5.06,2.32,2.32,0,0,0,2.13-1.76Zm7.31-.91h0l3.71-1.57a1.71,1.71,0,0,0-1.54-.87,2.33,2.33,0,0,0-2.17,2.44Zm15.34-3.4h0a1.77,1.77,0,0,0-1.89-1.74h-2v3.49h2.13A1.77,1.77,0,0,0,100.27,23.81Z"/><path class="cls-4" d="M40.59,10.56a2.83,2.83,0,0,1,2.95-2.91,2.62,2.62,0,0,1,2.25,1.17l-.8.46a1.8,1.8,0,0,0-1.45-.75,1.92,1.92,0,0,0-1.94,2,1.93,1.93,0,0,0,1.94,2,2,2,0,0,0,1.33-.51v-.86H43.18v-.87h2.66v2.1a3,3,0,0,1-2.3,1A2.83,2.83,0,0,1,40.59,10.56Z"/><path class="cls-4" d="M47.06,13.36V7.75h3.85v.86H48.05v1.45h2.8v.87h-2.8V12.5h2.86v.86Z"/><path class="cls-4" d="M53.64,13.36V8.61h-1.7V7.75h4.38v.86h-1.7v4.75Z"/><path class="cls-4" d="M59.75,13.36V7.75h1v5.61Z"/><path class="cls-4" d="M63.48,13.36V8.61H61.77V7.75h4.39v.86h-1.7v4.75Z"/><path class="cls-4" d="M69.34,10.56a2.87,2.87,0,1,1,5.74,0,2.87,2.87,0,1,1-5.74,0Zm4.73,0a1.87,1.87,0,1,0-3.72,0,1.87,1.87,0,1,0,3.72,0Z"/><path class="cls-4" d="M80.15,13.36l-2.93-4v4h-1V7.75h1l2.87,3.89V7.75h1v5.61Z"/></svg>