<svg width="152" height="165" viewBox="0 0 152 165" fill="none" xmlns="http://www.w3.org/2000/svg">
<path d="M138.376 119.291C134.469 114.048 114.636 106.707 104.419 102.962C100.963 101.613 99.0102 101.014 98.259 100.565C96.7565 99.3661 92.0987 93.074 92.0987 93.074H91.7982V87.5311C94.9535 84.0854 97.5077 80.1903 98.86 77.1941C99.9117 75.0968 100.813 68.2055 100.813 68.2055C106.973 65.3591 107.725 55.6214 108.025 50.0784C108.175 47.232 106.823 47.0822 105.321 47.6814C105.321 47.232 105.471 46.6328 105.471 46.1833C107.725 40.4905 109.227 34.6479 109.377 28.6555C109.528 19.3672 105.922 9.62955 97.9585 4.6858C90.5962 0.191486 81.431 0.491107 72.8668 1.09035C68.0588 1.38997 63.1005 1.68959 58.7433 3.78694C54.386 5.88429 51.381 10.5284 51.5313 15.3224C49.4278 12.7756 45.2208 13.3748 42.8168 15.622C40.4128 17.8691 39.6615 21.3148 39.2108 24.4608C38.4595 29.854 38.6098 35.2472 40.1123 40.3407C40.8635 42.8875 42.0655 45.2845 43.568 47.5316C42.0655 46.9324 40.8635 47.232 41.0138 49.9286C41.3143 55.4716 42.0655 65.2093 48.2258 68.0557C48.8268 72.2504 49.4278 75.5462 50.179 77.0443C51.6815 80.0405 54.0855 83.9356 57.391 87.3812V92.7744H57.0905C57.0905 92.7744 52.4328 99.0665 50.9303 100.265C50.78 100.415 50.0288 100.714 49.1273 101.164C47.9253 101.613 46.4228 102.212 44.77 102.812C34.5531 106.557 14.8703 113.748 10.9638 119.141C0.482178 128.24 1.83443 159.59 0.482178 164.384C15.7001 164.384 46.7233 164.384 74.6698 164.384C102.616 164.384 132.035 164.384 151.394 164.384C150.041 159.59 149.491 132.045 138.376 119.291Z" fill="#E2E2E2"/>
</svg>
