<svg id="090d7faf-38fc-459c-89c3-fda846d6a9d5" data-name="Layer 1" xmlns="http://www.w3.org/2000/svg" viewBox="0 0 273.00001 273.00001"><defs><style>.\38 c8d2ce7-7c0d-4459-9b65-5d6995004368{fill:#fff;}.bdab49fc-a807-41ce-8be3-41989136b4bf{fill:none;}</style></defs><title>newWhite</title><g id="27c93ba8-7566-4d1a-afcc-6aacbc0143f4" data-name="Layer_1"><g id="e9b30f26-627f-407a-ab0a-6b341d70515c" data-name=" 2031588182592"><path class="8c8d2ce7-7c0d-4459-9b65-5d6995004368" d="M13,30.9V74.5C23.1,44.3,55.7,58.8,55.7,30.9a21.35006,21.35006,0,1,0-42.7,0ZM23.7,46.1V30.9a10.65012,10.65012,0,1,1,21.3,0C45,42.1,32,41.5,23.7,46.1Z" transform="translate(21.4 94.39998)"/><path class="8c8d2ce7-7c0d-4459-9b65-5d6995004368" d="M23.7,32.9A50.33325,50.33325,0,0,0,13,38.6V52.9A41.4947,41.4947,0,0,1,23.7,46Z" transform="translate(21.4 94.39998)"/><polygon class="8c8d2ce7-7c0d-4459-9b65-5d6995004368" points="221.3 125.3 221.3 151.7 225.9 151.7 225.9 143.2 233.2 151.7 238.6 151.7 238.6 151.3 230 141.8 237.6 133.3 237.6 133.1 232.1 133.1 225.9 140.5 225.9 125.3 221.3 125.3"/><path class="8c8d2ce7-7c0d-4459-9b65-5d6995004368" d="M194,51.9a5.73713,5.73713,0,0,1-4.1,1.6c-2.9,0-5.2-1.9-5.2-5.4a5.14685,5.14685,0,0,1,5.3-5.5,6.37388,6.37388,0,0,1,3.8,1.4l2.9-3a8.75187,8.75187,0,0,0-6.7-2.7c-5.4,0-9.8,3.2-9.8,9.8,0,6.5,4.4,9.8,9.8,9.8a9.28922,9.28922,0,0,0,7.1-2.9Z" transform="translate(21.4 94.39998)"/><path class="8c8d2ce7-7c0d-4459-9b65-5d6995004368" d="M171.5,41.2a6.8547,6.8547,0,0,0-5.9-2.9c-5.4-.1-9.6,3.3-9.6,9.6,0,6.5,4,9.9,9.6,9.9,2-.1,4.9-1.1,6-3.3l.2,2.7h4.3V38.7h-4.4ZM166,42.4c7.2,0,7.2,11.2,0,11.2a5.32831,5.32831,0,0,1-5.5-5.6A5.32831,5.32831,0,0,1,166,42.4Z" transform="translate(21.4 94.39998)"/><path class="8c8d2ce7-7c0d-4459-9b65-5d6995004368" d="M144.7,57.3h5V35.4H158V30.8H136.3v4.6h8.3V57.3Z" transform="translate(21.4 94.39998)"/><polygon class="8c8d2ce7-7c0d-4459-9b65-5d6995004368" points="150.7 133.1 147.2 141.2 145.4 146.3 143.6 141.1 140.8 133.1 135.4 133.1 142.8 151.3 139.4 159.3 144.4 159.3 155.7 133.1 150.7 133.1"/><path class="8c8d2ce7-7c0d-4459-9b65-5d6995004368" d="M107.1,41.2a6.85471,6.85471,0,0,0-5.9-2.9c-5.4-.1-9.6,3.3-9.6,9.6,0,6.5,4,9.9,9.5,9.9,2.1-.1,5-1.1,6-3.3l.2,2.7h4.3V38.7h-4.3Zm-5.4,1.2c7.2,0,7.2,11.2,0,11.2A5.32831,5.32831,0,0,1,96.2,48,5.27477,5.27477,0,0,1,101.7,42.4Z" transform="translate(21.4 94.39998)"/><path class="8c8d2ce7-7c0d-4459-9b65-5d6995004368" d="M79.8,30.9H67.4V57.3h5V49.5h7.4C92.7,49.5,92.7,30.9,79.8,30.9Zm-7.4,4.7h7.4c6.3,0,6.3,9.3,0,9.3H72.4Z" transform="translate(21.4 94.39998)"/><rect class="bdab49fc-a807-41ce-8be3-41989136b4bf" width="273.00001" height="273.00001"/></g></g></svg>