<svg id="all_layers" xmlns="http://www.w3.org/2000/svg" xmlns:xlink="http://www.w3.org/1999/xlink" width="179.01mm" height="193.1mm" viewBox="0 0 507.42 547.38">
  <defs>
    <clipPath id="clip-path" transform="translate(0.01 -0.17)">
      <path d="M256.81,252.83a58.51,58.51,0,0,0-12.6,6.7v16.9a43.1,43.1,0,0,1,12.6-8.1Z" fill="none"/>
    </clipPath>
    <clipPath id="clip-path-2" transform="translate(0.01 -0.17)">
      <rect x="244.21" y="252.83" width="12.6" height="23.6" fill="none"/>
    </clipPath>
    <pattern id="Rectangle_1_1_" data-name="Rectangle 1 1 " width="24.3" height="24.3" patternTransform="matrix(1, 0, 0, -1, 525.24, -523.26)" patternUnits="userSpaceOnUse" viewBox="0 0 24.3 24.3">
      <rect width="24.3" height="24.3" fill="none"/>
      <rect width="24.3" height="24.3" fill="none"/>
    </pattern>
    <clipPath id="clip-path-3" transform="translate(0.01 -0.17)">
      <circle cx="243.57" cy="46.48" r="29.6" fill="none"/>
    </clipPath>
    <linearGradient id="linear-gradient" x1="1581.59" y1="-929.19" x2="1582.59" y2="-929.19" gradientTransform="translate(-65103.72 38258.36) scale(41.08)" gradientUnits="userSpaceOnUse">
      <stop offset="0" stop-color="#2bc5b4"/>
      <stop offset="1" stop-color="#2bc5b4" stop-opacity="0.47"/>
    </linearGradient>
    <linearGradient id="linear-gradient-2" x1="1010.19" y1="-4734.89" x2="1011.19" y2="-4734.89" gradientTransform="translate(-57703.38 269845.86) scale(56.9)" gradientUnits="userSpaceOnUse">
      <stop offset="0" stop-color="#524cb3"/>
      <stop offset="1" stop-color="#5953b6" stop-opacity="0.47"/>
    </linearGradient>
    <linearGradient id="linear-gradient-3" x1="1107.49" y1="-4955.85" x2="1108.49" y2="-4955.85" gradientTransform="translate(-77467.27 346926.04) scale(69.9)" gradientUnits="userSpaceOnUse">
      <stop offset="0" stop-color="#f79256"/>
      <stop offset="1" stop-color="#f79256" stop-opacity="0.48"/>
    </linearGradient>
    <linearGradient id="linear-gradient-4" x1="1154.77" y1="-4913.89" x2="1155.77" y2="-4913.89" gradientTransform="translate(-65511.1 280017.95) scale(56.9)" xlink:href="#linear-gradient"/>
    <linearGradient id="linear-gradient-5" x1="1154.77" y1="-4913.89" x2="1155.77" y2="-4913.89" gradientTransform="translate(-65522.1 279712.95) scale(56.9)" xlink:href="#linear-gradient-2"/>
  </defs>
  <g id="main_grp">
    <g id="paytack_logo" class="paytack_logo">
      <path id="Path_1" data-name="Path 1" d="M244.21,250.47V302c11.9-35.6,50.4-18.5,50.4-51.5a25.2,25.2,0,1,0-50.4,0Zm12.6,17.9v-17.9a12.6,12.6,0,0,1,25.2-.2v.2c0,13.2-15.4,12.5-25.2,17.9Z" transform="translate(0.01 -0.17)" fill="#2bc5b4" fill-rule="evenodd"/>
      <g id="Group_4" data-name="Group 4">
        <g clip-path="url(#clip-path)">
          <g id="Group_3" data-name="Group 3">
            <g id="Group_2" data-name="Group 2">
              <g clip-path="url(#clip-path-2)">
                <g id="Group_1" data-name="Group 1">
                  <path id="Rectangle_1" data-name="Rectangle 1" d="M243.61,252.63h13.8v24.3h-13.8Z" transform="translate(0.01 -0.17)" fill="url(#Rectangle_1_1_)"/>
                </g>
              </g>
            </g>
          </g>
        </g>
      </g>
    </g>
    <path class="dash-line" id="heart_line" stroke-linecap="round" d="M270.31,208V90" fill="none" stroke="#f79256" transform="translate(0.01 -0.17)" stroke-width="4" stroke-dasharray="5 10" opacity="0.5" style="isolation: isolate"/>
    <path class="dash-line" id="swipe_line" stroke-linecap="round" d="M270.31,424V305" fill="none" stroke="#f79256" transform="translate(0.01 -0.17)" stroke-width="4" stroke-dasharray="5 10" opacity="0.5" style="isolation: isolate"/>
    <path class="dash-line" id="people_line" stroke-linecap="round" d="M210.31,222l-80-80" fill="none" stroke="#f79256" transform="translate(0.01 -0.17)" stroke-width="4" stroke-dasharray="5 10" opacity="0.5" style="isolation: isolate"/>
    <path class="dash-line" id="dollar_line" stroke-linecap="round" d="M323.31,222l80-80" fill="none" stroke="#f79256" transform="translate(0.01 -0.17)" stroke-width="4" stroke-dasharray="5 10" opacity="0.5" style="isolation: isolate"/>
    <path class="dash-line" id="graph_line" stroke-linecap="round" d="M210.31,302l-95,95" fill="none" stroke="#f79256" transform="translate(0.01 -0.17)" stroke-width="4" stroke-dasharray="5 10" opacity="0.5" style="isolation: isolate"/>
    <path class="dash-line" id="device_line" stroke-linecap="round" d="M323.31,302l95,95" fill="none" stroke="#f79256" transform="translate(0.01 -0.17)" stroke-width="4" stroke-dasharray="5 10" opacity="0.5" style="isolation: isolate"/>
    <g id="heart_grp" class="heart">
      <g id="Ellipse_375" data-name="Ellipse 375" opacity="0.3" style="isolation: isolate">
        <g>
          <g clip-path="url(#clip-path-3)">
            <rect x="213.88" y="16.71" width="11" height="59.3" fill="#f79256"/>
          </g>
          <g clip-path="url(#clip-path-3)">
            <rect x="224.88" y="16.71" width="48.3" height="59.3" fill="#f79256"/>
          </g>
        </g>
      </g>
      <g id="Path_3183" data-name="Path 3183">
        <path d="M316.47,34.78a8.08,8.08,0,0,0-14.1-5l-11,12.7a9.91,9.91,0,0,0-1.1,1.7l-.5.2a7.53,7.53,0,0,0-5.5-5.4c-14.6-4.1-16.5-5-20.4-4.6h0c-10.7,1.2-13.2,1.5-18.6,4.6a87.29,87.29,0,0,0-11.3,7.8l-.7-.8a4.57,4.57,0,0,0-6.4-.5l-15.5,13.4a4.52,4.52,0,0,0-.5,6.2h0l20.5,23.3a4.25,4.25,0,0,0,5.9.5h0l15.5-13.4a4.57,4.57,0,0,0,.5-6.4h0l-.6-.7,1-.9c2.6-2.3,6.6-3,10.7-1.8l10.3,2.9a2.18,2.18,0,1,0,1.2-4.2h0l-10.3-2.9a15.93,15.93,0,0,0-14.8,2.7l-1,.9-13-15a76.72,76.72,0,0,1,10.6-7.3c4.6-2.7,6.2-2.9,16.8-4,2.5-.2,4.1.2,12.6,2.7,6.6,1.9,8,1.9,8.6,3.9a3.67,3.67,0,0,1,.1,1.8,6.12,6.12,0,0,1-.5,1.2,2,2,0,0,1-2,.7c-4.2-.6-14.2-1.9-14.3-1.9a2.22,2.22,0,0,0-.6,4.4c.1,0,10.1,1.3,14.3,1.9a6.5,6.5,0,0,0,7.2-4.2c.1,0,22.4-9.2,22.5-9.3,2.3-1.2,4.6-1.5,6,.8,1.6,2.9-1.2,5-2,5.5l-29.6,17h-.1a8,8,0,0,1-1.6.8,2.19,2.19,0,0,0,1.8,4,21.16,21.16,0,0,0,2.1-1.1c.1,0,29.7-17,29.7-17,8.1-5.1,4.2-14.2-1.9-15.2ZM250,72.18h0c0,.1-15.3,13.3-15.3,13.4l-20.4-23.2L229.77,49h.2Zm48.9-31.5,6.8-7.9a3.54,3.54,0,0,1,5.1-.3,3.33,3.33,0,0,1,1.2,2.8Z" transform="translate(0.01 -0.17)" fill="#f79256"/>
      </g>
      <g id="Path_3184" data-name="Path 3184">
        <path d="M280.47,7.48a3.79,3.79,0,0,0,3.1,1.7,3.69,3.69,0,0,0,2.9-1.7,5.81,5.81,0,0,1,8.1-2.2,5.93,5.93,0,0,1,2.5,2.9,2.22,2.22,0,0,0,4.1-1.7A10.36,10.36,0,0,0,287.57,1a10.65,10.65,0,0,0-4.1,3.2c-6.1-7.8-18.6-3.4-18.6,6.4,0,10.3,8.9,18.2,17.3,22.1a3,3,0,0,0,2.6,0c6-2.8,12.4-7.9,15.3-14a2.3,2.3,0,0,0-1-3,2.21,2.21,0,0,0-3,1c-2.4,5-7.7,9.1-12.6,11.6-6.9-3.4-14.1-9.8-14.1-17.8a5.93,5.93,0,0,1,6-5.9,5.45,5.45,0,0,1,5.1,2.9Z" transform="translate(0.01 -0.17)" fill="#f79256"/>
      </g>
    </g>
    <g id="people_grp" class="people">
      <circle id="Ellipse_385" data-name="Ellipse 385" cx="46.88" cy="88.98" r="20.5" opacity="0.3" fill="url(#linear-gradient)" style="isolation: isolate"/>
      <path id="Path_3207" data-name="Path 3207" d="M110.37,66.05a27.28,27.28,0,0,0,.3-4.1,29.55,29.55,0,1,0-59.1-.5V62a28.28,28.28,0,0,0,.3,4.1,26.24,26.24,0,0,0-1.9,50.4v6.3a1.58,1.58,0,0,0,1.6,1.6v4.9a1.58,1.58,0,0,0,1.6,1.6H63a1.58,1.58,0,0,0,1.6-1.6v-4.9a1.58,1.58,0,0,0,1.6-1.6h0v-6.3a25.24,25.24,0,0,0,8.2-4.5v17.3a1.58,1.58,0,0,0,1.6,1.6h9.8a1.58,1.58,0,0,0,1.6-1.6V112a25.24,25.24,0,0,0,8.2,4.5v6.3a1.58,1.58,0,0,0,1.6,1.6h0v4.9a1.58,1.58,0,0,0,1.6,1.6h9.8a1.58,1.58,0,0,0,1.6-1.6v-4.9a1.58,1.58,0,0,0,1.6-1.6v-6.3a26.13,26.13,0,0,0,16.7-33.1,24.63,24.63,0,0,0-18.1-17.3Zm-29.3-30.3a26.31,26.31,0,0,1,18.1,45.4v-4.3a4.91,4.91,0,0,0-4.9-4.9h-8.2V69a10,10,0,0,0,4.9-8.5v-1.6h.8a4.06,4.06,0,0,0,4.1-4.1,4.18,4.18,0,0,0-3.3-4.1v-5a4.91,4.91,0,0,0-4.9-4.9H76.47l-4.7-1.6a1.6,1.6,0,0,0-1.5.2,1.71,1.71,0,0,0-.7,1.3v9.9a4.08,4.08,0,0,0,.8,8.1h.8v1.6a9.83,9.83,0,0,0,4.9,8.5v3h-8.2a4.91,4.91,0,0,0-4.9,4.9V81a26.35,26.35,0,0,1-1-37.2,26.78,26.78,0,0,1,19.1-8ZM68,91.55a5.07,5.07,0,0,1,3.3,1.3v6.9a1.58,1.58,0,0,0,1.6,1.6V103H43.27v-6.6a4.91,4.91,0,0,1,4.9-4.9Zm-16.5-9.9a6.58,6.58,0,0,1,3.5-5.8,29.81,29.81,0,0,0,8.3,9.7,6.56,6.56,0,0,1-9.2,1.3,6.35,6.35,0,0,1-2.6-5.2Zm13.9,6.6a5.55,5.55,0,0,0,.6-.8c.5.3,1,.5,1.5.8Zm.9-4.5v-7a1.58,1.58,0,0,1,1.6-1.6h6.8a6.47,6.47,0,0,0,7.9,4.7,6.58,6.58,0,0,0,4.7-4.7h6.8a1.58,1.58,0,0,1,1.6,1.6v7a26.68,26.68,0,0,1-7,3.4,27.26,27.26,0,0,1-15.5,0,29.46,29.46,0,0,1-6.9-3.4Zm8.2-31.6h13.1v8.2a6.6,6.6,0,1,1-13.2,0h0v-8.2Zm-1.6-3.3V43l2.8.9a.9.9,0,0,0,.5.1h11.5a1.58,1.58,0,0,1,1.6,1.6v3.3Zm11,26.3a3.27,3.27,0,0,1-4.5,1.2,3.45,3.45,0,0,1-1.2-1.2Zm-4.4-3.3v-1.8a9.15,9.15,0,0,0,3.3,0v1.8Zm16.6,15.6a5.55,5.55,0,0,0,.6.8h-2.1c.6-.3,1-.5,1.5-.8Zm-6.8,13.9a1.58,1.58,0,0,0,1.6-1.6v-6.9a5.07,5.07,0,0,1,3.3-1.3h19.7a4.91,4.91,0,0,1,4.9,4.9v6.6H89.17Zm14.8-13.1a6.49,6.49,0,0,1-5.2-2.6,28.66,28.66,0,0,0,8.3-9.7,6.59,6.59,0,0,1,2.7,8.9,6.68,6.68,0,0,1-5.8,3.4ZM91,55.45v-1.6h.8a.8.8,0,0,1,0,1.6H91Zm-19.7-1.7v1.6h-.8a.8.8,0,0,1,0-1.6Zm-9.9,73.9h-6.6v-3.3h6.6Zm1.6-6.6h-9.8v-3.8a27.15,27.15,0,0,0,4.9.5,26.26,26.26,0,0,0,4.9-.5Zm11.5-13.5a23,23,0,1,1-22.1-38.3,26.54,26.54,0,0,0,1.2,3.7,9.83,9.83,0,0,0-4.3,13.2,8,8,0,0,0,1.5,2.1h-2.5a8.24,8.24,0,0,0-8.2,8.2v8.2a1.58,1.58,0,0,0,1.6,1.6h32.8Zm9.9,20.1h-6.6v-26.3h6.6Zm-9.9-29.5v-7.3a29.62,29.62,0,0,0,6.6.7h1.6v-.1a42.61,42.61,0,0,0,5-.6v7.3Zm32.9,29.5h-6.6v-3.3h6.6Zm1.6-6.6h-9.8v-3.8a27.15,27.15,0,0,0,4.9.5,26.26,26.26,0,0,0,4.9-.5Zm-4.9-6.5a22.61,22.61,0,0,1-16.4-7v-1.2h32.8a1.58,1.58,0,0,0,1.6-1.6v-8.2a8.24,8.24,0,0,0-8.2-8.2h-2.5a9.79,9.79,0,0,0-.7-13.8,10.09,10.09,0,0,0-2.1-1.5,22.85,22.85,0,0,0,1.2-3.7,23,23,0,0,1-5.7,45.2Z" transform="translate(0.01 -0.17)" fill="#24afa0"/>
    </g>
    <g id="graph_grp" class="graph">
      <g id="Group_7241" data-name="Group 7241">
        <path id="Path_3208" data-name="Path 3208" d="M105.29,421.9V390.1a11.37,11.37,0,1,0-13-11.3H14.39v64.9h48.8a25.95,25.95,0,1,0,51.8-3.2,26.32,26.32,0,0,0-9.7-18.6Zm-1.6-51.2a8.1,8.1,0,1,1-8.1,8.1A8.07,8.07,0,0,1,103.69,370.7Zm-86.1,11.4h75.1a10.56,10.56,0,0,0,1.8,3.5l-9.9,9.9a4.46,4.46,0,0,0-4.2,0l-3.3-3.3a5.37,5.37,0,0,0,.5-2.1,4.9,4.9,0,0,0-9.8,0,5.37,5.37,0,0,0,.5,2.1l-8.1,8.1a5.37,5.37,0,0,0-2.1-.5,4.9,4.9,0,1,0,4.9,4.9,5.37,5.37,0,0,0-.5-2.1l8.1-8.1a4.46,4.46,0,0,0,4.2,0l3.3,3.3a4.88,4.88,0,0,0,8.8,4.2,4.66,4.66,0,0,0,0-4.3l9.9-9.9a10.83,10.83,0,0,0,5.2,2.1v29.6a26,26,0,0,0-32.5,5.3v-7.2h-9.7v19.5h3.7c-.2,1.1-.3,2.2-.4,3.2H17.59Zm65,16.2a1.6,1.6,0,1,1-1.6,1.6,1.58,1.58,0,0,1,1.6-1.6Zm-11.4-8.1a1.6,1.6,0,1,1,1.6,1.6,1.58,1.58,0,0,1-1.6-1.6Zm-11.4,14.6a1.6,1.6,0,1,1-1.6-1.6,1.58,1.58,0,0,1,1.6,1.6ZM89,455.1a13,13,0,1,1,13-13h0a13,13,0,0,1-13,13Zm-22.7-25.5a24.36,24.36,0,0,0-1.9,4.4h-1.3V421h3.2Zm21.1-10.1V426a16.17,16.17,0,0,0-14.5,17.7,14.88,14.88,0,0,0,1.4,5.1l-5.6,3.2a22.61,22.61,0,0,1,10.4-30.3,23.19,23.19,0,0,1,8.3-2.2Zm1.7,45.4a22.59,22.59,0,0,1-18.8-10l5.7-3.3a16.19,16.19,0,0,0,26.3,0l5.7,3.3a23.29,23.29,0,0,1-18.9,10Zm20.4-12.8-5.6-3.2a16.13,16.13,0,0,0-8.1-21.4,17.52,17.52,0,0,0-5.1-1.4v-6.6a22.81,22.81,0,0,1,18.8,32.6Z" transform="translate(0.01 -0.17)" fill="#5d56c4"/>
        <path id="Path_3209" data-name="Path 3209" d="M89.09,432.4a9.7,9.7,0,1,0,9.7,9.7A9.71,9.71,0,0,0,89.09,432.4Zm0,16.2a6.5,6.5,0,1,1,6.5-6.5h0A6.62,6.62,0,0,1,89.09,448.6Z" transform="translate(0.01 -0.17)" fill="#5d56c4"/>
        <path id="Path_3210" data-name="Path 3210" d="M20.89,385.4h3.2v3.2h-3.2Z" transform="translate(0.01 -0.17)" fill="#5d56c4"/>
        <path id="Path_3211" data-name="Path 3211" d="M27.39,385.4h22.7v3.2H27.39Z" transform="translate(0.01 -0.17)" fill="#5d56c4"/>
        <path id="Path_3212" data-name="Path 3212" d="M20.89,391.8h3.2V395h-3.2Z" transform="translate(0.01 -0.17)" fill="#5d56c4"/>
        <path id="Path_3213" data-name="Path 3213" d="M27.39,391.8h22.7V395H27.39Z" transform="translate(0.01 -0.17)" fill="#5d56c4"/>
        <path id="Path_3214" data-name="Path 3214" d="M20.89,398.3h3.2v3.2h-3.2Z" transform="translate(0.01 -0.17)" fill="#5d56c4"/>
        <path id="Path_3215" data-name="Path 3215" d="M27.39,398.3h22.7v3.2H27.39Z" transform="translate(0.01 -0.17)" fill="#5d56c4"/>
        <path id="Path_3216" data-name="Path 3216" d="M20.89,404.8h3.2V408h-3.2Z" transform="translate(0.01 -0.17)" fill="#5d56c4"/>
        <path id="Path_3217" data-name="Path 3217" d="M27.39,404.8h22.7V408H27.39Z" transform="translate(0.01 -0.17)" fill="#5d56c4"/>
        <path id="Path_3218" data-name="Path 3218" d="M20.89,437.3h9.7V421.1h-9.7Zm3.2-13h3.3V434h-3.3Z" transform="translate(0.01 -0.17)" fill="#5d56c4"/>
        <path id="Path_3219" data-name="Path 3219" d="M33.89,437.3h9.7v-13h-9.7Zm3.2-9.8h3.3V434h-3.2Z" transform="translate(0.01 -0.17)" fill="#5d56c4"/>
        <path id="Path_3220" data-name="Path 3220" d="M46.89,437.3h9.7v-26h-9.7Zm3.2-22.7h3.2v19.5h-3.2Z" transform="translate(0.01 -0.17)" fill="#5d56c4"/>
      </g>
      <circle id="Ellipse_387" data-name="Ellipse 387" cx="28.5" cy="430.88" r="28.5" opacity="0.3" fill="url(#linear-gradient-2)" style="isolation: isolate"/>
    </g>
    <g id="swipe_grp" class="swipe">
      <g id="Ecommerce-transfer_money-buy-smartphone-hands" data-name="Ecommerce-transfer money-buy-smartphone-hands">
        <path id="Path_3221" data-name="Path 3221" d="M310.15,468.76l2.2,2.2,6.1-6.1a1.57,1.57,0,0,0,0-2.2h0l-6.1-6.1-2.2,2.2,3.5,3.5H296v3h17.6Z" transform="translate(0.01 -0.17)" fill="#f79256"/>
        <path id="Path_3222" data-name="Path 3222" d="M301,483.16l2.2-2.2-3.5-3.5h17.6v-3h-17.6l3.5-3.5-2.2-2.2-6.1,6.1a1.57,1.57,0,0,0,0,2.2h0Z" transform="translate(0.01 -0.17)" fill="#f79256"/>
        <path id="Path_3223" data-name="Path 3223" d="M317.05,494.46a14.78,14.78,0,0,1-13.4-3.3,6.45,6.45,0,0,0-2,.3,4.53,4.53,0,0,0-1.9,1.1,6,6,0,0,0-5.2-3,6.11,6.11,0,0,0-3,.8v-25.2a6.06,6.06,0,0,0-6.1-6.1h0a6.11,6.11,0,0,0-3,.8v-5.4a4.59,4.59,0,0,0-4.6-4.6h-36.5a4.59,4.59,0,0,0-4.6,4.6V485h-1.5a7.6,7.6,0,0,0-7.6,7.6h0v6.2l3,31.9v9.1a1.54,1.54,0,0,0,1.5,1.5h33.5a1.54,1.54,0,0,0,1.5-1.5v-8.6l5.7-8.1h3.3l1.7,4.8v11.9a1.54,1.54,0,0,0,1.5,1.5h30.5a1.54,1.54,0,0,0,1.5-1.5v-11.9l7-19.6a10.88,10.88,0,0,0,.6-3.6v-6a7,7,0,0,0-1.9-4.2ZM264,538.36h-30.5v-6.1H264Zm.8-9.1h-31.3l-2.9-30.5v-6.1a4.59,4.59,0,0,1,4.6-4.6h10.7a4.55,4.55,0,0,1,.1,9.1h-7.7a1.54,1.54,0,0,0-1.5,1.5v19.8a4.59,4.59,0,0,0,4.6,4.6h27.8Zm-23.6-9.1a1.54,1.54,0,0,1-1.5-1.5v-4.6h27.4v-3h-27.4v-10.7h6.1a7.6,7.6,0,1,0,0-15.2h-6.1v-30.5a1.54,1.54,0,0,1,1.5-1.5h36.5a1.54,1.54,0,0,1,1.5,1.5V486a6.58,6.58,0,0,0-3.1-.9,6.06,6.06,0,0,0-6.1,6.1v13.7a11.33,11.33,0,0,0,.6,3.6l4.2,11.7Zm44.2,18.2h-4.6v-9.1h4.6Zm7.6,0h-4.6v-9.1H293Zm7.6,0H296v-9.1h4.6Zm7.6,0h-4.6v-9.1h4.6Zm7.6-33.5a11.71,11.71,0,0,1-.4,2.6l-6.7,18.8h-28.3l-6.7-18.8a7.46,7.46,0,0,1-.4-2.6v-13.7a3.05,3.05,0,1,1,6.1.1h0v12.2h3v-38.1a3,3,0,0,1,6,0h0v38.1h3v-7.6a3,3,0,0,1,6,0h0v7.6h3v-6.1a2.72,2.72,0,0,1,.9-2.1,2.4,2.4,0,0,1,1.2-.7,3,3,0,0,1,1-.2,3,3,0,0,1,3,3V505h3v-6.1a3,3,0,0,1,6,0h0Z" transform="translate(0.01 -0.17)" fill="#f79256"/>
        <path id="Path_3224" data-name="Path 3224" d="M259.45,456.16a15.2,15.2,0,1,0,15.2,15.2,15.19,15.19,0,0,0-15.2-15.2Zm0,27.4a12.2,12.2,0,1,1,12.2-12.2h0A12.18,12.18,0,0,1,259.45,483.56Z" transform="translate(0.01 -0.17)" fill="#f79256"/>
        <path id="Path_3225" data-name="Path 3225" d="M264,474.46a4.64,4.64,0,0,1-3,4.3v1.8h-3v-1.8a4.54,4.54,0,0,1-3-4.3h3a1.5,1.5,0,1,0,1.5-1.5h0a4.5,4.5,0,0,1-4.5-4.6,4.64,4.64,0,0,1,3-4.3v-1.8h3v1.8a4.54,4.54,0,0,1,3,4.3h-3a1.5,1.5,0,1,0-1.5,1.5h0A4.57,4.57,0,0,1,264,474.46Z" transform="translate(0.01 -0.17)" fill="#f79256"/>
      </g>
      <circle id="Ellipse_388" data-name="Ellipse 388" cx="255.92" cy="512.38" r="35" opacity="0.3" fill="url(#linear-gradient-3)" style="isolation: isolate"/>
    </g>
    <g id="device_grp" class="device">
      <circle id="Ellipse_390" data-name="Ellipse 390" cx="447.42" cy="417.88" r="28.5" opacity="0.3" fill="url(#linear-gradient-4)" style="isolation: isolate"/>
      <g id="Group_7245" data-name="Group 7245">
        <g id="Group_7244" data-name="Group 7244">
          <path id="Path_3226" data-name="Path 3226" d="M475.81,389.25h-26.5a1.4,1.4,0,1,0-.2,2.8h26.7a1.37,1.37,0,0,0,1.3-1.5A1.49,1.49,0,0,0,475.81,389.25Z" transform="translate(0.01 -0.17)" fill="#24afa0"/>
          <path id="Path_3227" data-name="Path 3227" d="M475.81,397.85h-26.5a1.4,1.4,0,0,0-.2,2.8h26.7a1.37,1.37,0,0,0,1.3-1.5A1.4,1.4,0,0,0,475.81,397.85Z" transform="translate(0.01 -0.17)" fill="#24afa0"/>
          <path id="Path_3228" data-name="Path 3228" d="M451.81,452.35h-6.7a1.37,1.37,0,0,0-1.3,1.5,1.32,1.32,0,0,0,1.3,1.3h6.7a1.37,1.37,0,0,0,1.3-1.5A1.32,1.32,0,0,0,451.81,452.35Z" transform="translate(0.01 -0.17)" fill="#24afa0"/>
          <path id="Path_3229" data-name="Path 3229" d="M465.91,452.35h-6.7a1.37,1.37,0,0,0-1.3,1.5,1.32,1.32,0,0,0,1.3,1.3h6.7a1.37,1.37,0,0,0,1.3-1.5A1.32,1.32,0,0,0,465.91,452.35Z" transform="translate(0.01 -0.17)" fill="#24afa0"/>
          <path id="Path_3230" data-name="Path 3230" d="M480,452.35h-6.7a1.37,1.37,0,0,0-1.3,1.5,1.32,1.32,0,0,0,1.3,1.3H480a1.37,1.37,0,0,0,1.3-1.5A1.4,1.4,0,0,0,480,452.35Z" transform="translate(0.01 -0.17)" fill="#24afa0"/>
          <path id="Path_3231" data-name="Path 3231" d="M451.81,458.65h-6.7a1.4,1.4,0,1,0-.2,2.8h6.9a1.4,1.4,0,0,0,.2-2.8Z" transform="translate(0.01 -0.17)" fill="#24afa0"/>
          <path id="Path_3232" data-name="Path 3232" d="M465.91,458.65h-6.7a1.4,1.4,0,1,0-.2,2.8h6.9a1.4,1.4,0,0,0,.2-2.8Z" transform="translate(0.01 -0.17)" fill="#24afa0"/>
          <path id="Path_3233" data-name="Path 3233" d="M480,458.65h-6.7a1.37,1.37,0,0,0-1.3,1.5,1.32,1.32,0,0,0,1.3,1.3H480a1.37,1.37,0,0,0,1.3-1.5A1.4,1.4,0,0,0,480,458.65Z" transform="translate(0.01 -0.17)" fill="#24afa0"/>
          <path id="Path_3234" data-name="Path 3234" d="M451.81,464.85h-6.7a1.37,1.37,0,0,0-1.3,1.5,1.32,1.32,0,0,0,1.3,1.3h6.7a1.37,1.37,0,0,0,1.3-1.5A1.4,1.4,0,0,0,451.81,464.85Z" transform="translate(0.01 -0.17)" fill="#24afa0"/>
          <path id="Path_3235" data-name="Path 3235" d="M465.91,464.85h-6.7a1.4,1.4,0,1,0-.2,2.8h6.9a1.4,1.4,0,1,0,.2-2.8Z" transform="translate(0.01 -0.17)" fill="#24afa0"/>
          <path id="Path_3236" data-name="Path 3236" d="M480,464.85h-6.7a1.37,1.37,0,0,0-1.3,1.5,1.32,1.32,0,0,0,1.3,1.3H480a1.37,1.37,0,0,0,1.3-1.5A1.49,1.49,0,0,0,480,464.85Z" transform="translate(0.01 -0.17)" fill="#24afa0"/>
          <path id="Path_3237" data-name="Path 3237" d="M484.21,417.45a2.9,2.9,0,0,0-2.9-2.9h-37.5a2.9,2.9,0,0,0-2.9,2.9v4a1.4,1.4,0,0,0,2.8.2v-4.2a.1.1,0,0,1,.1-.1h37.5a.1.1,0,0,1,.1.1h0v14.6a.1.1,0,0,1-.1.1h-37.5a.1.1,0,0,1-.1-.1h0v-4a1.37,1.37,0,0,0-1.5-1.3,1.32,1.32,0,0,0-1.3,1.3v4a2.9,2.9,0,0,0,2.9,2.9h37.5a2.9,2.9,0,0,0,2.9-2.9Z" transform="translate(0.01 -0.17)" fill="#24afa0"/>
          <path id="Path_3238" data-name="Path 3238" d="M453.81,441.15a2.8,2.8,0,0,0-2.8-2.8h-6.9a2.8,2.8,0,0,0-2.8,2.8,1.27,1.27,0,0,0,.1.6l.9,3.8a2.69,2.69,0,0,0,2.7,2.1h5.9a2.8,2.8,0,0,0,2.8-2.8Zm-8.7,3.8-.9-3.8H451V445Z" transform="translate(0.01 -0.17)" fill="#24afa0"/>
          <path id="Path_3239" data-name="Path 3239" d="M468.91,445v-3.8a2.8,2.8,0,0,0-2.8-2.8h-7.2a2.86,2.86,0,0,0-2.8,2.8V445a2.8,2.8,0,0,0,2.8,2.8h7.2A2.8,2.8,0,0,0,468.91,445Zm-10,0v-3.8h7.2V445Z" transform="translate(0.01 -0.17)" fill="#24afa0"/>
          <path id="Path_3240" data-name="Path 3240" d="M482.71,445.55l.9-3.8a2.84,2.84,0,0,0-2.1-3.4,1.27,1.27,0,0,0-.6-.1H474a2.8,2.8,0,0,0-2.8,2.8v3.8a2.86,2.86,0,0,0,2.8,2.8h5.9a2.63,2.63,0,0,0,2.8-2.1ZM480,445h-5.9v-3.8h6.8Z" transform="translate(0.01 -0.17)" fill="#24afa0"/>
          <path id="Path_3241" data-name="Path 3241" d="M503.61,394.05H496v-6.4h0a7,7,0,0,0-7.1-6.9h-41a7.49,7.49,0,0,0-7.5,7.5v11.9a8.47,8.47,0,0,0-7.1,8.3v18.6c0,10.5,1.8,13.3,1.8,23.5V469a7.13,7.13,0,0,0,7.1,7.1h40.6a7.13,7.13,0,0,0,7.1-7.1v-5.7a1.37,1.37,0,0,0-1.5-1.3,1.32,1.32,0,0,0-1.3,1.3V469a4.27,4.27,0,0,1-4.3,4.3h-40.6a4.27,4.27,0,0,1-4.3-4.3v-18.3c0-10.4-1.8-13.3-1.8-23.5v-18.7a5.48,5.48,0,0,1,4.3-5.4v3.6a3.59,3.59,0,0,0,3.6,3.6h36.9a3.59,3.59,0,0,0,3.6-3.6v-3.6a5.56,5.56,0,0,1,4.3,5.4v18.6c0,10.2-1.8,13.1-1.8,23.5v6a1.37,1.37,0,0,0,1.5,1.3,1.32,1.32,0,0,0,1.3-1.3v-6c0-10.2,1.8-13.1,1.8-23.5v-12.6h8.7a7.13,7.13,0,0,0,7.1-7.1V398a3.88,3.88,0,0,0-3.8-3.9Zm-21.8,12.5a.79.79,0,0,1-.8.8h-36.9a.79.79,0,0,1-.8-.8v-18.3a4.69,4.69,0,0,1,4.7-4.7h35.3a7.23,7.23,0,0,0-1.5,4.3Zm10,5.1v-3.2a8.39,8.39,0,0,0-7.1-8.3v-12.3a4.3,4.3,0,0,1,8.6-.2v19.7a6.63,6.63,0,0,0,1.5,4.3Zm12.8-4.3a4.3,4.3,0,1,1-8.6,0h0v-10.5h7.6a1,1,0,0,1,1,1Z" transform="translate(0.01 -0.17)" fill="#24afa0"/>
        </g>
      </g>
    </g>
    <g id="dollar_grp" class="dollar">
      <circle id="Ellipse_389" data-name="Ellipse 389" cx="436.42" cy="112.88" r="28.5" opacity="0.3" fill="url(#linear-gradient-5)" style="isolation: isolate"/>
      <g id="Group_7246" data-name="Group 7246">
        <path id="Path_3242" data-name="Path 3242" d="M448.83,77.05h-.6a3.93,3.93,0,0,1-3.5-4,1.8,1.8,0,0,0-3.6,0h0a7.62,7.62,0,0,0,5.5,7.3v1.8a1.8,1.8,0,0,0,3.6,0h0v-1.7a7.4,7.4,0,0,0,5.8-8.9,7.51,7.51,0,0,0-7.4-6,4,4,0,1,1,4-4,1.8,1.8,0,0,0,3.6,0,7.59,7.59,0,0,0-6-7.4v-1.6a1.8,1.8,0,0,0-3.6,0v1.7a7.47,7.47,0,0,0,2,14.7,4,4,0,0,1,4,4,4.07,4.07,0,0,1-3.8,4.1Z" transform="translate(0.01 -0.17)" fill="#5d56c4"/>
        <path id="Path_3243" data-name="Path 3243" d="M423.13,67.45a25.5,25.5,0,1,0,25.6-25.6h0a25.65,25.65,0,0,0-25.6,25.6Zm25.6-22a22,22,0,1,1-22,22h0a21.87,21.87,0,0,1,22-22Z" transform="translate(0.01 -0.17)" fill="#5d56c4"/>
        <path id="Path_3244" data-name="Path 3244" d="M482.93,97.25l-13.8,6.5a11.34,11.34,0,0,0-9.6-5.9l-12.7-.4A14.66,14.66,0,0,1,441,96l-1.3-.7a22.71,22.71,0,0,0-21.2,0l.1-2.8a1.71,1.71,0,0,0-1.7-1.8h0l-14-.4a1.71,1.71,0,0,0-1.8,1.7h0l-.8,30.6a1.71,1.71,0,0,0,1.7,1.8h0l14,.4h.1a1.84,1.84,0,0,0,1.8-1.7v-1.5l3.6-1.9a6.15,6.15,0,0,1,4.6-.5l21.7,6.1h.1a26.07,26.07,0,0,0,4.8.5,23.65,23.65,0,0,0,9.8-2.1c.1,0,.1-.1.2-.1l31.4-20.3a1.75,1.75,0,0,0,.6-2.3,9,9,0,0,0-11.8-3.7ZM403.83,121l.8-27.1,10.4.3-.7,27.1Zm57-.5a20.44,20.44,0,0,1-12.2,1.4l-21.6-6.1a9.82,9.82,0,0,0-7.3.8l-1.9,1,.5-18a19.34,19.34,0,0,1,19.7-1l1.3.7a17.22,17.22,0,0,0,7.3,1.9l12.8.3a7.58,7.58,0,0,1,7.3,6.2l-19-.5a1.75,1.75,0,1,0-.1,3.5h.1l20.9.5h0a1.84,1.84,0,0,0,1.8-1.7,9,9,0,0,0-.2-2.3l14.1-6.7h0a5.33,5.33,0,0,1,6.1.9Z" transform="translate(0.01 -0.17)" fill="#5d56c4"/>
        <path id="Path_3245" data-name="Path 3245" d="M450.43,37V20.25a1.8,1.8,0,0,0-3.6,0V37a1.8,1.8,0,1,0,3.6,0Z" transform="translate(0.01 -0.17)" fill="#5d56c4"/>
        <path id="Path_3246" data-name="Path 3246" d="M463.63,37v-7.9a1.8,1.8,0,0,0-3.6,0V37a1.8,1.8,0,0,0,3.6,0Z" transform="translate(0.01 -0.17)" fill="#5d56c4"/>
        <path id="Path_3247" data-name="Path 3247" d="M437.23,37v-7.9a1.8,1.8,0,0,0-3.6,0V37a1.8,1.8,0,0,0,3.6,0Z" transform="translate(0.01 -0.17)" fill="#5d56c4"/>
      </g>
    </g>
  </g>
</svg>
