<svg xmlns="http://www.w3.org/2000/svg" xmlns:xlink="http://www.w3.org/1999/xlink" viewBox="0 0 315.72 257.54"><defs><style>.cls-1{fill:none;}.cls-2{fill:url(#linear-gradient);}.cls-3{fill:url(#linear-gradient-2);}.cls-4{fill:url(#linear-gradient-3);}.cls-5,.cls-6{isolation:isolate;}.cls-6{font-size:18px;fill:#1c1d3e;font-family:Poppins-ExtraBold, Poppins;font-weight:800;}.cls-7{clip-path:url(#clip-path);}.cls-8{fill:url(#linear-gradient-4);}.cls-9{fill:#e8e8e8;}.cls-10{fill:url(#linear-gradient-5);}.cls-11{fill:url(#linear-gradient-6);}.cls-12{fill:url(#linear-gradient-7);}.cls-13{clip-path:url(#clip-path-2);}.cls-14{fill:url(#linear-gradient-8);}.cls-15{fill:#eee;}.cls-16{fill:url(#linear-gradient-9);}.cls-17{fill:#716ef1;}.cls-18{fill:#88d4ef;}.cls-19{fill:#64bee7;}.cls-20{fill:#b0deee;}</style><linearGradient id="linear-gradient" x1="-556.84" y1="616.67" x2="-556.84" y2="617.67" gradientTransform="matrix(-206.08, 0, 0, 206.04, -114653.06, -127026.79)" gradientUnits="userSpaceOnUse"><stop offset="0" stop-color="#2bc5b4"/><stop offset="1" stop-color="#2bc5b4" stop-opacity="0.47"/></linearGradient><linearGradient id="linear-gradient-2" x1="-560.59" y1="616.85" x2="-560.59" y2="615.85" gradientTransform="matrix(114.14, 0, 0, -52.5, 64222.11, 32445.28)" xlink:href="#linear-gradient"/><linearGradient id="linear-gradient-3" x1="-566.84" y1="616.52" x2="-566.84" y2="615.52" gradientTransform="matrix(31.65, -4.45, -4.45, -31.65, 20918.26, 17079.85)" gradientUnits="userSpaceOnUse"><stop offset="0" stop-color="#e3e4f7"/><stop offset="1" stop-color="#e3e4f7" stop-opacity="0.35"/></linearGradient><clipPath id="clip-path" transform="translate(0 18.81)"><rect class="cls-1" x="182.5" y="59.58" width="114.14" height="52.5" rx="7" transform="matrix(0.99, -0.14, 0.14, 0.99, -9.61, 34.18)"/></clipPath><linearGradient id="linear-gradient-4" x1="-566.84" y1="616.52" x2="-566.84" y2="615.52" gradientTransform="matrix(31.65, -4.45, -4.45, -31.65, 20970.96, 17044.78)" xlink:href="#linear-gradient-3"/><linearGradient id="linear-gradient-5" x1="-566.84" y1="616.52" x2="-566.84" y2="615.52" gradientTransform="matrix(31.65, -4.45, -4.45, -31.65, 20978.27, 17096.77)" xlink:href="#linear-gradient-3"/><linearGradient id="linear-gradient-6" x1="-560.38" y1="619.56" x2="-560.38" y2="618.56" gradientTransform="matrix(114.13, 0, 0, -52.5, 64174.49, 32554.71)" xlink:href="#linear-gradient"/><linearGradient id="linear-gradient-7" x1="-566.09" y1="620.97" x2="-566.09" y2="619.97" gradientTransform="matrix(25.18, -19.68, -19.68, -25.18, 26680.48, 4560.21)" xlink:href="#linear-gradient-3"/><clipPath id="clip-path-2" transform="translate(0 18.81)"><rect class="cls-1" x="158.72" y="26.74" width="114.13" height="52.5" rx="7" transform="translate(13.12 144.09) rotate(-38)"/></clipPath><linearGradient id="linear-gradient-8" x1="-566.09" y1="620.97" x2="-566.09" y2="619.97" gradientTransform="matrix(25.18, -19.68, -19.68, -25.18, 26708.58, 4503.49)" xlink:href="#linear-gradient-3"/><linearGradient id="linear-gradient-9" x1="-566.09" y1="620.97" x2="-566.09" y2="619.97" gradientTransform="matrix(25.18, -19.68, -19.68, -25.18, 26740.9, 4544.86)" xlink:href="#linear-gradient-3"/></defs><g id="Layer_2" data-name="Layer 2"><g id="Layer_1-2" data-name="Layer 1"><g id="Group_7261" data-name="Group 7261"><path id="Subtraction_10" data-name="Subtraction 10" class="cls-2" d="M103,238.74A102.88,102.88,0,1,0,63,230.64,102.57,102.57,0,0,0,103,238.74Zm0-180.1a77.1,77.1,0,1,1-77.1,77.1A77.1,77.1,0,0,1,103,58.64Z" transform="translate(0 18.81)"/><g id="Group_7201" data-name="Group 7201"><g id="Group_7199" data-name="Group 7199"><rect id="Rectangle_3133" data-name="Rectangle 3133" class="cls-3" x="182.5" y="59.58" width="114.14" height="52.5" rx="8" transform="matrix(0.99, -0.14, 0.14, 0.99, -9.61, 52.98)"/><g id="Group_7198" data-name="Group 7198"><circle id="Ellipse_357" data-name="Ellipse 357" class="cls-4" cx="239.73" cy="105.77" r="15.98"/><g id="_2" data-name=" 2" class="cls-5"><text class="cls-6" transform="translate(234.62 112.85) rotate(-8)">$</text></g></g><g class="cls-7"><g id="Mask_Group_18" data-name="Mask Group 18"><circle id="Ellipse_358" data-name="Ellipse 358" class="cls-8" cx="292.43" cy="70.7" r="15.98"/><circle id="Ellipse_361" data-name="Ellipse 361" class="cls-9" cx="179.4" cy="86.58" r="15.98"/><circle id="Ellipse_359" data-name="Ellipse 359" class="cls-10" cx="299.73" cy="122.69" r="15.98"/><circle id="Ellipse_360" data-name="Ellipse 360" class="cls-9" cx="186.71" cy="138.57" r="15.98"/></g></g></g><g id="Group_7200" data-name="Group 7200"><rect id="Rectangle_3133-2" data-name="Rectangle 3133-2" class="cls-11" x="158.72" y="26.74" width="114.13" height="52.5" rx="7" transform="translate(13.12 162.89) rotate(-38)"/><g id="Group_7198-2" data-name="Group 7198-2"><circle id="Ellipse_357-2" data-name="Ellipse 357-2" class="cls-12" cx="216.49" cy="72.7" r="15.98"/><g id="_3" data-name=" 3" class="cls-5"><text class="cls-6" transform="translate(217.18 80.8) rotate(-38)">$</text></g></g><g class="cls-13"><g id="Mask_Group_18-2" data-name="Mask Group 18-2"><circle id="Ellipse_358-2" data-name="Ellipse 358-2" class="cls-14" cx="244.6" cy="15.98" r="15.98"/><circle id="Ellipse_361-2" data-name="Ellipse 361-2" class="cls-15" cx="154.66" cy="86.25" r="15.98"/><circle id="Ellipse_359-2" data-name="Ellipse 359-2" class="cls-16" cx="276.92" cy="57.35" r="15.98"/><circle id="Ellipse_360-2" data-name="Ellipse 360-2" class="cls-15" cx="186.98" cy="127.62" r="15.98"/></g></g></g></g><path id="Subtraction_11" data-name="Subtraction 11" class="cls-17" d="M103,238.74a103,103,0,1,0,0-206v25.9a77.1,77.1,0,1,1-37.3,144.58L53.29,225.94A102.57,102.57,0,0,0,103,238.74Z" transform="translate(0 18.81)"/><g id="Group_125" data-name="Group 125"><rect id="Rectangle_80-2" data-name="Rectangle 80-2" class="cls-18" x="155.04" y="163.54" width="153" height="58" rx="9"/><path id="Rectangle_81-2" data-name="Rectangle 81-2" class="cls-19" d="M180.54,162.74h99a4.49,4.49,0,0,1,4.5,4.5h0a4.5,4.5,0,0,1-4.5,4.5h-99a4.51,4.51,0,0,1-4.5-4.5h0A4.5,4.5,0,0,1,180.54,162.74Z" transform="translate(0 18.81)"/><path id="Rectangle_82-2" data-name="Rectangle 82-2" class="cls-20" d="M180.54,179.74h68a4.49,4.49,0,0,1,4.5,4.5h0a4.5,4.5,0,0,1-4.5,4.5h-68a4.51,4.51,0,0,1-4.5-4.5h0A4.5,4.5,0,0,1,180.54,179.74Z" transform="translate(0 18.81)"/></g></g></g></g></svg>