<svg xmlns="http://www.w3.org/2000/svg" viewBox="0 0 407.69 348.52"><defs><style>.cls-1{fill:#407bff;}.cls-2{opacity:0.2;isolation:isolate;}.cls-3{fill:#88d4ef;}.cls-4{fill:#64bee7;}.cls-5{fill:#b0deee;}</style></defs><g id="Layer_2" data-name="Layer 2"><g id="Layer_1-2" data-name="Layer 1"><g id="Group_7261" data-name="Group 7261"><path class="cls-1" d="M318.29,262.79,279.2,116.68A15.05,15.05,0,0,0,260.77,106L11.16,172.82A15,15,0,0,0,.52,191.25l39.09,146.1h0A15,15,0,0,0,58,348l249.6-66.78A15.05,15.05,0,0,0,318.29,262.79Zm-269.08,2L41.7,236.73a6.49,6.49,0,0,1,4.59-7.94L89.24,217.3a6.48,6.48,0,0,1,7.94,4.58L104.69,250a6.49,6.49,0,0,1-4.59,7.94L57.15,269.39A6.48,6.48,0,0,1,49.21,264.8Zm52.19,34.78-33.51,9a6.73,6.73,0,0,1-8.24-4.76L58,297.72a6.73,6.73,0,0,1,4.76-8.24l33.52-9a6.73,6.73,0,0,1,8.24,4.76l1.62,6.07A6.73,6.73,0,0,1,101.4,299.58Zm9.11-121.88L36,197.64a4.59,4.59,0,0,1-2.37-8.86l74.52-19.94a4.59,4.59,0,1,1,2.37,8.86Zm50.23,106-33.52,9a6.73,6.73,0,0,1-8.24-4.76l-1.62-6.07a6.73,6.73,0,0,1,4.76-8.24l33.51-9a6.73,6.73,0,0,1,8.24,4.76l1.63,6.08A6.73,6.73,0,0,1,160.74,283.71Zm59.33-15.88-33.51,9a6.73,6.73,0,0,1-8.24-4.76L176.69,266a6.74,6.74,0,0,1,4.77-8.24l33.51-9a6.74,6.74,0,0,1,8.24,4.77l1.63,6.07A6.74,6.74,0,0,1,220.07,267.83Zm3.18-86.39a18.67,18.67,0,1,1,3.13-34.91,18.67,18.67,0,1,1,7.36,27.52A18.62,18.62,0,0,1,223.25,181.44ZM279.41,252l-33.51,9a6.74,6.74,0,0,1-8.25-4.76L236,250.09a6.73,6.73,0,0,1,4.76-8.24l33.52-9a6.73,6.73,0,0,1,8.24,4.76l1.62,6.07A6.73,6.73,0,0,1,279.41,252Z"/><path class="cls-2" d="M318.29,262.79,279.2,116.68A15.05,15.05,0,0,0,260.77,106L11.16,172.82A15,15,0,0,0,.52,191.25l39.09,146.1h0A15,15,0,0,0,58,348l249.6-66.78A15.05,15.05,0,0,0,318.29,262.79Zm-269.08,2L41.7,236.73a6.49,6.49,0,0,1,4.59-7.94L89.24,217.3a6.48,6.48,0,0,1,7.94,4.58L104.69,250a6.49,6.49,0,0,1-4.59,7.94L57.15,269.39A6.48,6.48,0,0,1,49.21,264.8Zm52.19,34.78-33.51,9a6.73,6.73,0,0,1-8.24-4.76L58,297.72a6.73,6.73,0,0,1,4.76-8.24l33.52-9a6.73,6.73,0,0,1,8.24,4.76l1.62,6.07A6.73,6.73,0,0,1,101.4,299.58Zm9.11-121.88L36,197.64a4.59,4.59,0,0,1-2.37-8.86l74.52-19.94a4.59,4.59,0,1,1,2.37,8.86Zm50.23,106-33.52,9a6.73,6.73,0,0,1-8.24-4.76l-1.62-6.07a6.73,6.73,0,0,1,4.76-8.24l33.51-9a6.73,6.73,0,0,1,8.24,4.76l1.63,6.08A6.73,6.73,0,0,1,160.74,283.71Zm59.33-15.88-33.51,9a6.73,6.73,0,0,1-8.24-4.76L176.69,266a6.74,6.74,0,0,1,4.77-8.24l33.51-9a6.74,6.74,0,0,1,8.24,4.77l1.63,6.07A6.74,6.74,0,0,1,220.07,267.83Zm3.18-86.39a18.67,18.67,0,1,1,3.13-34.91,18.67,18.67,0,1,1,7.36,27.52A18.62,18.62,0,0,1,223.25,181.44ZM279.41,252l-33.51,9a6.74,6.74,0,0,1-8.25-4.76L236,250.09a6.73,6.73,0,0,1,4.76-8.24l33.52-9a6.73,6.73,0,0,1,8.24,4.76l1.62,6.07A6.73,6.73,0,0,1,279.41,252Z"/><path class="cls-1" d="M233.74,174.05a18.64,18.64,0,0,0-7.36-27.52,18.67,18.67,0,1,1,7.36,27.52Zm12.78,1.16a18.66,18.66,0,1,0-20.14-28.68,18.64,18.64,0,0,1,7.36,27.52A18.56,18.56,0,0,0,246.52,175.21Zm0,0a18.66,18.66,0,1,0-20.14-28.68,18.64,18.64,0,0,1,7.36,27.52A18.56,18.56,0,0,0,246.52,175.21Zm-10.07-16.63a18.7,18.7,0,1,0-2.71,15.47A18.59,18.59,0,0,0,236.45,158.58ZM104.69,250l-7.51-28.08a6.48,6.48,0,0,0-7.94-4.58L46.29,228.79a6.49,6.49,0,0,0-4.59,7.94l7.51,28.07a6.48,6.48,0,0,0,7.94,4.59L100.1,257.9A6.49,6.49,0,0,0,104.69,250Zm0,0-7.51-28.08a6.48,6.48,0,0,0-7.94-4.58L46.29,228.79a6.49,6.49,0,0,0-4.59,7.94l7.51,28.07a6.48,6.48,0,0,0,7.94,4.59L100.1,257.9A6.49,6.49,0,0,0,104.69,250Zm3.45-81.12L33.62,188.78A4.59,4.59,0,0,0,36,197.64l74.52-19.94a4.59,4.59,0,1,0-2.37-8.86Zm0,0L33.62,188.78A4.59,4.59,0,0,0,36,197.64l74.52-19.94a4.59,4.59,0,1,0-2.37-8.86Zm-3.6,116.43a6.73,6.73,0,0,0-8.24-4.76l-33.52,9A6.73,6.73,0,0,0,58,297.72l1.63,6.07a6.73,6.73,0,0,0,8.24,4.76l33.51-9a6.73,6.73,0,0,0,4.76-8.24Zm0,0a6.73,6.73,0,0,0-8.24-4.76l-33.52,9A6.73,6.73,0,0,0,58,297.72l1.63,6.07a6.73,6.73,0,0,0,8.24,4.76l33.51-9a6.73,6.73,0,0,0,4.76-8.24Zm59.33-15.88a6.73,6.73,0,0,0-8.24-4.76l-33.51,9a6.73,6.73,0,0,0-4.76,8.24l1.62,6.07a6.73,6.73,0,0,0,8.24,4.76l33.52-9a6.73,6.73,0,0,0,4.76-8.24Zm0,0a6.73,6.73,0,0,0-8.24-4.76l-33.51,9a6.73,6.73,0,0,0-4.76,8.24l1.62,6.07a6.73,6.73,0,0,0,8.24,4.76l33.52-9a6.73,6.73,0,0,0,4.76-8.24Zm59.34-15.87a6.74,6.74,0,0,0-8.24-4.77l-33.51,9a6.74,6.74,0,0,0-4.77,8.24l1.63,6.08a6.73,6.73,0,0,0,8.24,4.76l33.51-9a6.74,6.74,0,0,0,4.77-8.24Zm0,0a6.74,6.74,0,0,0-8.24-4.77l-33.51,9a6.74,6.74,0,0,0-4.77,8.24l1.63,6.08a6.73,6.73,0,0,0,8.24,4.76l33.51-9a6.74,6.74,0,0,0,4.77-8.24Zm59.34-15.88a6.73,6.73,0,0,0-8.24-4.76l-33.52,9a6.73,6.73,0,0,0-4.76,8.24l1.62,6.07a6.74,6.74,0,0,0,8.25,4.76l33.51-9a6.73,6.73,0,0,0,4.76-8.24Zm0,0a6.73,6.73,0,0,0-8.24-4.76l-33.52,9a6.73,6.73,0,0,0-4.76,8.24l1.62,6.07a6.74,6.74,0,0,0,8.25,4.76l33.51-9a6.73,6.73,0,0,0,4.76-8.24Z"/><g id="Group_84" data-name="Group 84"><rect id="Rectangle_80" data-name="Rectangle 80" class="cls-3" x="146.69" width="261" height="159" rx="9"/><rect id="Rectangle_81" data-name="Rectangle 81" class="cls-4" x="176.69" y="25" width="196" height="11" rx="5"/><path id="Rectangle_82" data-name="Rectangle 82" class="cls-5" d="M181.19,50h68a4.5,4.5,0,0,1,4.5,4.5h0a4.5,4.5,0,0,1-4.5,4.5h-68a4.49,4.49,0,0,1-4.5-4.5h0A4.49,4.49,0,0,1,181.19,50Z"/><path id="Rectangle_84" data-name="Rectangle 84" class="cls-4" d="M181.19,67h122a4.5,4.5,0,0,1,4.5,4.5h0a4.5,4.5,0,0,1-4.5,4.5h-122a4.49,4.49,0,0,1-4.5-4.5h0A4.49,4.49,0,0,1,181.19,67Z"/><path id="Rectangle_87" data-name="Rectangle 87" class="cls-4" d="M181.19,84h137a4.5,4.5,0,0,1,4.5,4.5h0a4.5,4.5,0,0,1-4.5,4.5h-137a4.49,4.49,0,0,1-4.5-4.5h0A4.49,4.49,0,0,1,181.19,84Z"/><rect id="Rectangle_88" data-name="Rectangle 88" class="cls-5" x="235.69" y="119" width="84" height="22" rx="5"/><path id="Rectangle_83" data-name="Rectangle 83" class="cls-4" d="M261.19,50h68a4.5,4.5,0,0,1,4.5,4.5h0a4.5,4.5,0,0,1-4.5,4.5h-68a4.49,4.49,0,0,1-4.5-4.5h0A4.49,4.49,0,0,1,261.19,50Z"/></g></g></g></g></svg>