<svg xmlns="http://www.w3.org/2000/svg" xmlns:xlink="http://www.w3.org/1999/xlink" viewBox="0 0 137.07 159.22"><defs><style>.cls-1{fill:url(#linear-gradient);}.cls-2{fill:url(#linear-gradient-2);}.cls-3{fill:url(#linear-gradient-3);}.cls-4{fill:url(#linear-gradient-4);}.cls-5{fill:url(#linear-gradient-5);}.cls-6{fill:#ffc372;}</style><linearGradient id="linear-gradient" x1="-666.46" y1="778.73" x2="-666.46" y2="777.73" gradientTransform="matrix(37.95, -68.47, -72.65, -40.27, 81928.06, -14186.18)" gradientUnits="userSpaceOnUse"><stop offset="0" stop-color="#e3e4f7"/><stop offset="1" stop-color="#e3e4f7" stop-opacity="0.35"/></linearGradient><linearGradient id="linear-gradient-2" x1="-676.25" y1="778.89" x2="-676.25" y2="777.89" gradientTransform="matrix(7.48, -13.5, -68.23, -37.82, 58216.58, 20375.46)" gradientUnits="userSpaceOnUse"><stop offset="0" stop-color="#f79256"/><stop offset="1" stop-color="#f79256" stop-opacity="0.48"/></linearGradient><linearGradient id="linear-gradient-3" x1="-667.13" y1="783.35" x2="-667.13" y2="782.35" gradientTransform="matrix(29.72, -53.62, -25.36, -14.06, 39778.12, -24718.04)" gradientUnits="userSpaceOnUse"><stop offset="0" stop-color="#524cb3"/><stop offset="1" stop-color="#5953b6" stop-opacity="0.47"/></linearGradient><linearGradient id="linear-gradient-4" x1="-670.06" y1="781.67" x2="-670.06" y2="780.67" gradientTransform="matrix(15.2, -27.42, -33.21, -18.41, 36155.46, -3895.1)" xlink:href="#linear-gradient-3"/><linearGradient id="linear-gradient-5" x1="-668.03" y1="789.53" x2="-668.03" y2="788.53" gradientTransform="matrix(22.96, -41.43, -13.54, -7.51, 26144.05, -21696.19)" gradientUnits="userSpaceOnUse"><stop offset="0" stop-color="#2bc5b4"/><stop offset="1" stop-color="#2bc5b4" stop-opacity="0.47"/></linearGradient></defs><g id="Layer_2" data-name="Layer 2"><g id="Layer_1-2" data-name="Layer 1"><g id="Group_7261" data-name="Group 7261"><g id="Group_7208" data-name="Group 7208"><path id="Path_3172" data-name="Path 3172" class="cls-1" d="M126.7,79.78l-86.19,30.8,68,48.64Z"/><path id="Path_3173" data-name="Path 3173" class="cls-2" d="M75.93,86.41A162.64,162.64,0,0,0,62.27,71.1,108.41,108.41,0,0,0,46.18,58c-5.8-3.84-12-7.81-19.3-9s-14.94-.62-21.12,3.11l.18.74a77,77,0,0,1,19.14,3.6c5.9,2,12.13,3.75,18,6.82A131.23,131.23,0,0,1,59.78,74c5.41,4,10.52,8.39,15.59,12.92Z"/><path id="Path_3174" data-name="Path 3174" class="cls-3" d="M93.44,82.2a133.47,133.47,0,0,1-1.21-16.83,121.08,121.08,0,0,1,1.09-16.58c.77-5.47,2.61-10.65,3.48-16,.18-1.35.47-2.66.74-4s.58-2.63.77-4c.6-2.66,1.14-5.36,1.9-8.25l-.62-.46a22.55,22.55,0,0,0-6.25,6.62,40,40,0,0,0-3.94,8.08c-2.11,5.63-2.07,11.69-2.19,17.51a95.43,95.43,0,0,0,1.2,17.38A106.73,106.73,0,0,0,92.7,82.39Z"/><path id="Path_3175" data-name="Path 3175" class="cls-4" d="M57.71,92A44.81,44.81,0,0,0,45.6,86a37.23,37.23,0,0,0-13.89-1.31,32.93,32.93,0,0,0-3.56.43,25.31,25.31,0,0,0-3.57.7A18.19,18.19,0,0,0,18,89a19.63,19.63,0,0,0-5,5.49,12.51,12.51,0,0,0-2,7.16l.72.27a41.2,41.2,0,0,1,5.18-3.73c1.74-1,3.41-1.89,5.16-2.69.88-.41,1.7-.86,2.58-1.24s1.69-.91,2.58-1.31a18.71,18.71,0,0,1,2.68-1.26,15.5,15.5,0,0,1,2.84-.94,38.33,38.33,0,0,1,12.17-1,49.82,49.82,0,0,1,12.46,2.88Z"/><path id="Path_3176" data-name="Path 3176" class="cls-5" d="M109.86,79.62a49.79,49.79,0,0,1,2.48-12.55,38.39,38.39,0,0,1,5.88-10.7,15.07,15.07,0,0,1,2-2.2,19.74,19.74,0,0,1,2.25-1.93c.72-.64,1.5-1.21,2.24-1.81s1.47-1.22,2.19-1.85c1.45-1.27,3-2.41,4.58-3.6A40.37,40.37,0,0,1,137,41.79l0-.77a12.48,12.48,0,0,0-7.34-1.14,19.6,19.6,0,0,0-7.06,2.33,18,18,0,0,0-5.6,4.72,25.67,25.67,0,0,0-2.1,3A34.23,34.23,0,0,0,113.12,53a37.12,37.12,0,0,0-4.5,13.21,44.88,44.88,0,0,0,.48,13.49Z"/><path id="Path_3177" data-name="Path 3177" class="cls-6" d="M52.41,37.57l4.42,6.37-2.75,7.24L61.5,49l6,4.84.18-7.74,6.47-4.25-7.31-2.55-2-7.48-4.69,6.17Z"/><path id="Path_3178" data-name="Path 3178" class="cls-6" d="M109,28.64l2.52,3.64L110,36.41l4.23-1.27,3.45,2.77.1-4.42,3.7-2.43L117.3,29.6l-1.17-4.27-2.68,3.52Z"/><path id="Path_3179" data-name="Path 3179" class="cls-6" d="M36,72l2.52,3.64L37,79.74l4.24-1.27,3.45,2.77.1-4.43,3.69-2.42L44.3,72.93l-1.17-4.27-2.68,3.52Z"/><path id="Path_3180" data-name="Path 3180" class="cls-6" d="M71.4,3.31l2.52,3.63-1.56,4.14L76.6,9.81l3.45,2.77.09-4.43,3.7-2.42L79.67,4.27,78.5,0,75.82,3.52Z"/><path id="Path_3181" data-name="Path 3181" class="cls-6" d="M0,58.34l1.89,2.73L.71,64.18l3.19-1L6.49,65.3,6.56,62l2.78-1.82-3.13-1.1-.88-3.21-2,2.65Z"/></g></g></g></g></svg>